<?xml version="1.0" encoding="utf-8"?>
<!-- Generator: Adobe Illustrator 20.0.0, SVG Export Plug-In . SVG Version: 6.00 Build 0)  -->
<svg version="1.1" id="Layer_1" xmlns="http://www.w3.org/2000/svg" xmlns:xlink="http://www.w3.org/1999/xlink" x="0px" y="0px"
	 viewBox="0 0 531.5 531.5" style="enable-background:new 0 0 531.5 531.5;" xml:space="preserve">
<style type="text/css">
	.st0{fill:#FFF5F5;stroke:#EEBA86;stroke-width:2;stroke-linecap:round;stroke-linejoin:round;stroke-miterlimit:10;}
	.st1{opacity:0.25;fill:#89C0E6;}
	.st2{opacity:0.5;fill:#BD5F98;}
	.st3{fill:none;stroke:#EEBA86;stroke-width:2;stroke-miterlimit:10;}
	.st4{fill:none;stroke:#EEBA86;stroke-width:2;stroke-linecap:round;stroke-linejoin:round;stroke-miterlimit:10;}
	.st5{fill:none;stroke:#89C0E6;stroke-width:2;stroke-linecap:round;stroke-linejoin:round;stroke-miterlimit:10;}
</style>
<g>
	<g>
		<path class="st0" d="M80.4,395.4c-0.6-4.6,2.2-6.5,8.2-0.9c6.9,6.4,11.2,14.8,17,22c6.4,7.9,14.2,15.5,23.7,19.8
			c4.8,2.2,10,3.5,14.9,5.4c1.4,0.5,8.3,2.9,3.7,4.1c-21.3,1.7-45.3-14.9-57.9-31c-3.5-4.4-6.6-10.2-8.6-15.4
			C80.9,398,80.6,396.6,80.4,395.4z"/>
		<path class="st1" d="M85.8,408.1c0,0,1.7,0.5,3.9,1.7c2.1,1.2,10.7,11.8,14.3,14.4c3.6,2.7,1.6-3.4-0.8-6.6
			c-2.3-3.2-7.2-9.5-8.9-13.1s-1.4-6.8-1.4-6.8L85.8,408.1z"/>
		<path class="st0" d="M114.2,296.7c0.5,0.1,0.9,0.2,1.4,0.4c4.3,1.7,5.6,7.2,5.8,11.8c0.7,15.7-5.4,31.2-11.2,45.6
			c-5.8,14.3-9.9,29.7-17.1,43.3c-1.2,2.3-5.8,11.5-9.6,11.1c-18-2,6.8-77.5,10.6-86.3c3.5-8,5.6-17.7,12.6-23.5
			C108.7,297.3,111.5,296.2,114.2,296.7z"/>
		<path class="st1" d="M119,314c0,0-3.3,17.4-7.9,30.1c-7,19.1-13.3,38.4-22.6,56.3c-0.5,0.9-0.9,1.9-1.6,2.6
			c-0.7,0.8-1.8,1.3-2.8,1c-2.6-0.7-0.7-5.5-0.1-7c2.7-7,5.4-14,8.1-20.9c5.5-14.5,11.8-28.8,16.1-43.7c1.9-6.6,3.6-12.4,2-19.3
			c-0.7-2.9-4.1-7.6-3.4-10.5c0.6-2.5,1.2-4.2,2.8-4.3C111.1,298.1,119.4,309.5,119,314z"/>
		<path class="st0" d="M169.3,301.3c-6.8-1.9-13.7-3.7-20.5-5.3c-10.2-2.5-23.7-7.3-34.2-4.8c-2.9,0.7-5.7,2.4-6.9,5.1
			c-1,2.4-0.6,5.1,0.5,7.4c4.6,9.2,17.5,13.9,26.6,17.8c6.3,2.7,13.5,5.6,19.9,7.8"/>
		<path class="st1" d="M161.2,327.1c-0.1,0.1-0.3,0.3-0.5,0.4c-2.5,1.3-5.5-1-7.8-2.1c-5.2-2.4-10.4-4.6-15.6-6.8
			c-4.7-1.9-9.7-3.8-14.3-6.2c-2.4-1.2-12.5-6.7-11.7-10c0.4-1.6,2.2-1.2,3.3-0.7c8.4,4,16.9,8,25.4,11.9c4.6,2.1,9.5,3.6,13.9,5.9
			c2,1,4.5,1.6,6.2,3.2C161.3,323.6,162.3,325.9,161.2,327.1z"/>
		<path class="st2" d="M106.8,430.6c0,0,8.1,6.1,20.9,11.6c3.8,1.6,11.5,2.6,13.4,2.8c1.9,0.3,6.7,0.9,7.4,0c0.9-1.1-4-2.4-6.5-3.2
			s-11.2-3.5-15-5.9c-1.8-1.2-1.8-1.1-13-9.4c0,0,15.3,12.6,12.6,13C122.9,439.9,106.8,430.6,106.8,430.6z"/>
	</g>
	<g>
		<path class="st0" d="M34.3,413.4c2.2-4.1,5.6-4,7.3,4c2,9.1,0.7,18.5,1.3,27.8c0.7,10.1,2.7,20.8,8,29.8c2.7,4.6,6.2,8.6,9.1,13
			c0.8,1.2,5.1,7.1,0.7,5.5c-18.4-10.8-28.5-38.3-29.6-58.6c-0.3-5.6,0.5-12.1,1.8-17.6C33.2,415.7,33.7,414.4,34.3,413.4z"/>
		<path class="st1" d="M30.9,428.2c0,0,1.3-0.3,2.1,4.2c0.8,4.5,1.4,16.6,4.2,20.9c2.8,4.2,2.5-10.8,2-13.9s0.1-10.9,0.5-14.5
			c0.4-3.6,1.9-7.5,1.9-7.5L30.9,428.2z"/>
		<path class="st0" d="M84.1,325.1c8-1.4,11.4,7.9,8.4,15.6c-10.2,26-29.3,50.8-46.6,72.5c-2.2,2.8-20.1,25.2-18.6,10.3
			c1.3-12.8,34.6-75.9,40.6-83.5c3.7-4.7,6.5-10.4,11.8-13.4C81.4,325.9,82.8,325.4,84.1,325.1z"/>
		<path class="st1" d="M91.6,338.2c0,0-17.6,31.7-35.3,57c-7.9,11.3-22.8,31-23.9,28c-1.1-3,25.2-38.4,27.2-41.3
			c6.5-9.3,19.4-27.7,22.3-37.4c1-3.2-1.2-7.4-1.8-10.3c-0.6-2.9-1.3-4.6-1.3-4.6L91.6,338.2z"/>
		<path class="st0" d="M166.7,354.6c-25.8-4.8-50-8.7-75.1-16.4c-3.4-1-6.8-2.2-9.5-4.4c-3.9-3.2-6-9.6-1.2-13
			c3-2.1,6.9-2.2,10.5-2.2c24.1,0.4,39.1,4.6,63.1,6.7"/>
		<path class="st1" d="M171.2,351.8c0,0-48.4-9-52.3-9.7c-3.9-0.8-32.6-7.8-33.9-10.6c-1.3-2.7,13,0.1,17.1,0.6s64.5,12.6,64.5,12.6
			L171.2,351.8z"/>
		<path class="st2" d="M41.6,471c2.9,5.5,7.8,13,12.6,16.9c3.4,2.7,7.9,6.8,7.8,5c0-1.2-6.6-9.9-9.7-14.3c-3.1-4.4-5.5-10.4-7-14.7
			c-0.9-2.6-2.4-10.8-2.4-10.8s-0.5,3.8,1.8,13.3c0.8,3.1,3.8,10.1,2.7,10.1c-1.9,0-7.8-9.9-9.4-13.2c-0.1-0.2-0.2-0.4-0.3-0.5
			C39.8,468,39.7,467.5,41.6,471z"/>
	</g>
	<g>
		<path class="st0" d="M20.5,429.9c2.8-3.7,6.1-3.1,6.6,5c0.6,9.3-2,18.4-2.8,27.7c-0.8,10.1-0.4,21,3.5,30.7
			c2,4.9,4.8,9.4,7.1,14.2c0.6,1.3,4,7.8-0.1,5.6c-16.6-13.4-22.6-42.1-20.6-62.3c0.5-5.6,2.3-11.9,4.4-17.1
			C19.1,432.1,19.8,430.8,20.5,429.9z"/>
		<path class="st1" d="M18,447.1c0,0-1.4,7.8-1.1,17.1c0.3,9.3,2.4,15.5,3.2,12.9c0.8-2.6,1.9-18.2,2.2-22.8
			c0.4-4.6,1.6-10.1,1.6-10.1L18,447.1z"/>
		<path class="st0" d="M89.6,353.9c-13.2-13.3-58,46.4-61.2,51.5c-3.6,5.5-26.6,44.4-10.4,41.7c9.2-1.5,20.5-18.3,26.1-24.8
			c7.4-8.5,14.4-17.4,21.7-26c7.9-9.3,15.4-19,22.9-28.6c2.1-2.7,4.4-6,3.4-9.3C91.5,356.4,90.6,355,89.6,353.9z"/>
		<path class="st1" d="M16.1,443.2c2.4-0.1,14.9-8.2,22.1-17.8s35.5-43.7,37.6-47c2.1-3.2,11.1-12.6,11.1-12.6s-3.9,0.3-6.5-2.5
			c-2.6-2.8-3.7-4.3-4.2-5.2c-0.6-0.9-1.7,1.8-1.8,4.6c-0.3,8.1-3.7,13-15.3,28.4C31.1,428.7,12.3,443.3,16.1,443.2z"/>
		<path class="st0" d="M200.4,382.9c0,0-110.7-12.4-120-19.5c-10.4-7.8-1.3-14.8,7.5-15.7c9-0.9,18.1-0.8,27.1-0.8
			c16.2,0,29.8-0.1,46,0.7"/>
		<path class="st1" d="M206.6,380c0,0-99.8-13.7-107.5-15.4c-7.7-1.8-21.6-3.2-20.2-6.3c1.4-3.1,39.7,3.4,46.2,4.4
			c6.5,1,70.2,7.4,70.2,7.4L206.6,380z"/>
		<path class="st2" d="M18,485.8c0,0,6,14.7,12.1,21.9c3,3.6,6,6.1,6.1,4.7c0.1-1.4-6.8-13.8-9-19c-2.2-5.2-3-11-3-11
			s-0.6,4.5,2.8,13.8c2.4,6.5,1.7,7.7,0,5.1C22.3,494.1,18.3,487.1,18,485.8z"/>
	</g>
	<g>
		<path class="st0" d="M68.1,481c-0.6-4.6,2.2-6.5,8.2-0.9c6.9,6.4,11.2,14.8,17,22c6.4,7.9,14.2,15.5,23.7,19.8
			c4.8,2.2,10,3.5,14.9,5.4c1.4,0.5,8.3,2.9,3.7,4.1c-21.3,1.7-45.3-14.9-57.9-31c-3.5-4.4-6.6-10.2-8.6-15.4
			C68.6,483.5,68.2,482.2,68.1,481z"/>
		<path class="st1" d="M91.5,510.3c0,0-10.5-9.5-16.4-19c-5.9-9.5-6.7-3.4-5.9-9.5s6.2-6.6,8.1,0.6c3.7,13.4,23.1,30.5,23.3,32.8
			C100.8,517.6,95.3,513.3,91.5,510.3z"/>
		<path class="st0" d="M98.1,372.4c-7.5,0.5-16,8.5-18.9,15.4c-7.7,18.4-19.5,69-16.7,84.4s11.6,14.8,14.8,7.1
			c5.8-14,9.7-29.1,14.4-43.4c3.1-9.4,6.2-18.9,9.6-28.2C104.1,400.1,119,371,98.1,372.4z"/>
		<path class="st1" d="M104.3,381.9c1.5,6.3-2,14.9-4.1,20c-2.7,6.5-22.3,72.1-25,75.5c-1.4,1.8-4.3,3.8-6.1,1.5
			c-1.9-2.6,1.4-8.3,2.2-10.8c1.5-4.5,3-9,4.6-13.5c5.8-17,11.7-34,17.6-50.9c1.9-5.4,5.8-12,1.3-17.1c-2.8-3.1-9.5-8.9-3.1-12.8
			c3.8-2.3,7.8,1.3,10.4,3.8C103.1,378.8,103.9,380.2,104.3,381.9z"/>
		<path class="st0" d="M172.7,359.9c-12.8,0.3-25.5,1-38.3,2c-7,0.6-48.9,0.2-45.3,14c1.6,6.3,19.4,8.2,29,9.4
			c29.4,3.5,64,14.1,93.3,5.3"/>
		<path class="st1" d="M208.4,386.3c-2.9,1.7-8.1,2.3-10.3,2.7c-12.7,2.6-24.9,0.5-37.6-0.8c-10.2-1.1-20.4-1.9-30.5-3.7
			c-8.7-1.5-36.9-5-33.7-7.5c2.3-1.7,8.7-0.4,11.3-0.3c23.3,1,47.8,6.7,71.4,4.5c8.8-0.8,18.2-1.2,26.9-3.1c2.2-0.1,5,3.9,4.6,5.9
			C210.2,384.9,209.4,385.7,208.4,386.3z"/>
		<path class="st2" d="M98,519.3c0,0,20.6,10,21.5,7.4c0.6-1.9-2.2-2.3-5.6-5c-3.2-2.6-11.8-9.2-11.8-9.2s12,8.8,20,11.9
			c8,3.1,14.1,3.8,14.1,5.6c0,1.7-8.1,1.1-11.8,0.2S104.6,524.1,98,519.3z"/>
	</g>
	<g>
		<path class="st0" d="M495.2,256.6c-3.3-2.1-5.5-0.8-3.3,5.4c2.5,7.2,7.4,13.4,10.9,20.2c3.9,7.4,7,15.7,7.2,24
			c0.1,4.2-0.6,8.3-0.8,12.5c-0.1,1.2-0.5,6.9,1.9,4.2c8.1-14.3,3.4-37.4-4.6-52.2c-2.2-4.1-5.5-8.4-8.8-11.8
			C496.9,257.9,496,257.1,495.2,256.6z"/>
		<path class="st1" d="M496.9,269.7c0,0,11,17.3,11.3,14.4c0.3-2.8-6.6-19.4-6.6-19.4L496.9,269.7z"/>
		<path class="st0" d="M454,219.2c-0.2-1.5,0-2.9,1.1-4c12.7-12.5,30.6,17.2,33.4,21.3c5.4,8.1,10.9,16.4,13.5,25.6
			c2,6.9-8.5,12.1-14.7,5.2c-7-7.8-12.9-16.1-18.9-24.5c-4.1-5.8-9.1-11.1-12.1-17.4C455.7,223.9,454.4,221.5,454,219.2z"/>
		<path class="st1" d="M473.1,218.9c-0.8,1.8,0.2,7.1,0.5,9c1.1,6.4,5.5,11.2,9.1,16.2c4.1,5.6,8.3,11.1,12.5,16.6
			c1.3,1.7,3.5,6.3-0.1,6.8c-2.2,0.3-4.8-2.5-6-4c-2.9-3.5-22.8-29.7-22.8-29.7S473.1,219,473.1,218.9z"/>
		<path class="st0" d="M417,240.7c5.4-4.6,10.8-9.1,16.4-13.5c8.2-6.5,18.3-16.6,29-18.8c2.9-0.6,6.2-0.2,8.4,1.7
			c1.9,1.7,2.7,4.4,2.7,6.9c-0.3,10.3-10,20-16.6,27.4c-4.5,5.1-9.3,10-14.2,14.6"/>
		<path class="st1" d="M428.4,251.5c0,0,26.5-22.6,29.3-24.8c2.8-2.2,10.3-11.1,11.5-8.8c1.2,2.3-1.3,7.7-6.1,13.4
			s-26.2,27.2-26.2,27.2L428.4,251.5z"/>
		<path class="st2" d="M506,287.5C506,287.4,505.9,287.5,506,287.5c3.4,8,4.9,13.7,4.8,19.5c-0.1,7.6-1.9,15.5-0.7,15.7
			c1.2,0.2,3-6.4,3.5-8.4c1.9-9,1.2-12.1,0.6-17.3c-1-7.4-4.1-17.4-4.1-17.4s3.5,18,1.3,17.1C509.2,295.8,507.9,291.6,506,287.5z"/>
	</g>
	<g>
		<path class="st0" d="M497.2,283.3c-2.8-3-5.5-2.3-5,4.8c0.6,8.1,3.9,15.8,5.6,23.7c1.9,8.7,2.8,18.1,0.7,26.7
			c-1.1,4.4-3,8.5-4.3,12.8c-0.4,1.2-2.5,7,0.8,4.8c12.4-12.8,14.1-37.9,10-55.3c-1.1-4.8-3.4-10.1-5.7-14.5
			C498.7,285.1,497.9,284.1,497.2,283.3z"/>
		<path class="st1" d="M497.1,298.4c0,0,4.1,18.9,6.4,19.7c2,0.7,1-7.9,0-13.4c-1.1-5.6-1.9-10-1.9-10L497.1,298.4z"/>
		<path class="st0" d="M466.5,232.3c0.1-1.7,0.7-3.1,2-4c15.1-9.7,25.3,26.9,27,32.1c3.3,10.1,6.5,20.5,6.9,31.1
			c0.3,7.9-11,10.5-15.3,1.4c-4.9-10.2-8.6-20.8-12.3-31.4c-2.6-7.3-6.1-14.4-7.5-22C467.1,237.7,466.3,234.8,466.5,232.3z"/>
		<path class="st1" d="M482.4,234.2c0,0-2.3,11.1-1.7,14.7c1,6.6,4.7,13.1,7.2,19.3c2.8,7,5.6,14,8.5,20.9c0.6,1.6,1.2,3.5,0.3,4.8
			c-3.1,4.4-6-2.6-7.1-4.7c-4.3-8.6-7.2-18-10.7-26.9c-2-5.2-4.1-10.4-6.1-15.6L482.4,234.2z"/>
		<path class="st0" d="M442.2,279c12.1-11.5,24.1-23.1,34.7-36c2.2-2.7,4.5-5.5,5.5-8.9c1.5-4.9-0.2-11.3-6.1-11.5
			c-3.6-0.1-7,1.9-10,3.9c-10,6.7-20.2,14.3-29.7,22"/>
		<path class="st1" d="M438,277.7c0,0,35.8-35.3,38.9-40.2c3.1-4.9,5.2-10,2.8-8.5s-47.9,42.4-47.9,42.4L438,277.7z"/>
		<path class="st2" d="M499.7,320.8c0,0,1.2,10.4,0,15.5c-1.5,6.6-3.7,12.3-4.8,14.8c-1.1,2.5-1.6,5.9,0,4.3
			c1.5-1.6,4.1-5.4,6.7-10.9c2.7-5.7,3.6-11,4-14.3c0.4-3.3,1.2-6.3,1-11.1c-0.1-1.8-0.8-7.9-0.8-7.9s1,17.9-2.3,18.8
			C501.4,330.5,499.7,320.8,499.7,320.8z"/>
	</g>
	<g>
		<path class="st0" d="M490.5,299.6c-2.3-3.7-5.4-3.5-6.5,4.1c-1.2,8.7,0.6,17.5,0.6,26.3c0,9.6-1.2,19.8-5.5,28.6
			c-2.2,4.5-5.2,8.5-7.6,12.8c-0.7,1.2-4.3,7-0.3,5.2c16.4-11.1,24.1-37.6,23.7-56.9c-0.1-5.3-1.3-11.4-2.8-16.5
			C491.6,301.8,491.1,300.5,490.5,299.6z"/>
		<path class="st1" d="M485.1,315c0,0,1.6,24.4,3.6,22.5c2-1.8,3.6-13.3,3.8-17.2c0.2-3.9,0-8,0-8L485.1,315z"/>
		<path class="st0" d="M468.6,248.3c0.4-1.5,1.2-2.9,2.7-3.4c17.3-6.8,22,29.6,22.9,34.7c1.8,10.1,3.5,20.5,2.2,30.5
			c-1,7.6-13.1,8.1-16.2-1.2c-3.4-10.5-5.6-21.1-7.7-31.7c-1.5-7.3-4-14.6-4.2-22C468.3,253.6,468,250.7,468.6,248.3z"/>
		<path class="st1" d="M484,252.2c0,0-4.5,8.1-4.2,15.3c0.2,7.3,12.7,41.4,9.2,43.2c-3.4,1.8-5.2-7.9-9.1-19.2
			c-3.9-11.3-8.4-27-8.4-27L484,252.2z"/>
		<path class="st0" d="M440.8,286.9c19.5-13.7,40.5-29.3,43.2-34.8c5.7-11.7-5.6-13.8-13.9-10.6c-8.4,3.3-16.5,7.5-24.5,11.6
			c-1.3,0.7-2.7,1.4-4,2.1"/>
		<path class="st1" d="M438.1,283.4c0,0,39.9-28.7,42.1-33c2.2-4.3,2.1-6.4-2.8-3.2c-4.9,3.2-42.6,30.7-42.6,30.7L438.1,283.4z"/>
		<path class="st2" d="M484.2,345.1c0,0-2.6,12.1-0.8,12.4c1.6,0.2,7-14.3,8-17.7c1-3.4,2.7-10.8,2.7-10.8s-1.9,16.5-7.5,27.4
			c-6.9,13.4-15.4,19.4-16.3,20.1c-1.3,1-1-1.4,2-5.6s4.1-6.7,6.5-10.5C482.5,354.8,484.2,345.1,484.2,345.1z"/>
	</g>
	<g>
		<path class="st0" d="M512.7,336.6c-2.4-3.9-5.8-3.7-7,4.4c-1.4,9.2,0.4,18.5,0.4,27.8c0,10.1-1.4,20.9-6.1,30.3
			c-2.4,4.7-5.6,9-8.3,13.6c-0.7,1.3-4.7,7.5-0.3,5.6c17.7-11.9,26.1-40,25.9-60.3c-0.1-5.6-1.3-12.1-2.9-17.5
			C513.8,338.9,513.3,337.6,512.7,336.6z"/>
		<path class="st1" d="M508.1,349.6c0,0,0.5,11.7,1.4,17.1c0.8,5.4,0.8,5.4,0.8,5.4s2.8,4.9,3.3-7c0.5-11.9-0.3-13.5-0.3-13.5
			L508.1,349.6z"/>
		<path class="st0" d="M475.6,268.4C475.6,268.4,475.6,268.4,475.6,268.4c2.6-1.4,6-0.5,8.2,1.4c3,2.5,5.2,6.9,7.2,10.2
			c4.3,7.2,38.6,68.9,22.4,71.5c-6.4,1-13.9-14.8-16.3-19.2C492.6,324.3,462.9,275.3,475.6,268.4z"/>
		<path class="st1" d="M475.4,282.4c0,0,13.2,29.2,20.6,42.4c4.6,8.4,13.3,22.4,15.3,22c2-0.4-6.2-17.1-10.4-24.8
			c-4.2-7.8-16.3-26.7-17.6-38.5c-0.7-6.4,1-11.3,1-11.3L475.4,282.4z"/>
		<path class="st0" d="M443.2,275.9c7-3.6,14.6-7.5,22.3-9.7c6.1-1.7,17.2-7.1,19.6,1.4c1.8,6.3-12.6,16.9-20.3,22.7
			c-11.5,8.6-22.7,17.4-34.4,25.3"/>
		<path class="st1" d="M430.6,292c0,0,49.6-29.1,50.6-24.5c1.2,5.3-4.8,8.4-12,14.8c-7.3,6.5-41.6,29.1-41.6,29.1L430.6,292z"/>
		<path class="st2" d="M505.5,383.5c0,0-3.1,14.3-2.9,16.7c0.2,2.4,1.7,0,3.2-2.8c1.5-2.8,8.1-18.2,8.1-18.2s-2.4,11-8.1,21.3
			c-4.2,7.7-10.1,14-15.5,17.7c-1.7,1.2-0.2-1.8,2-5.3c2.2-3.5,5.2-8.6,6.9-11.3C503.5,394.8,505.5,383.5,505.5,383.5z"/>
	</g>
	<path class="st0" d="M155.1,324.5c0.8-5.5,3.2-10.8,7-15.7c9.2-11.7,24.5-18.6,37.7-24.9c31-14.8,63.8-25.5,97.2-33
		c32.2-7.2,67-13.9,100.1-12.2c14.5,0.7,34.9,1.4,43.2,15.6c8.3,14.2-1.6,37.1-6.3,51.3c-18.8,57.3-67.2,106.5-130,111.3
		c-28.4,2.2-56.5-6.5-81.3-19.9c-12.4-6.7-24.1-14.7-35.1-23.6c-10.7-8.7-22.8-18.2-29.3-30.6C155.2,336.7,154.2,330.5,155.1,324.5z
		"/>
	<path class="st2" d="M328.6,328.3c-1.5-2.9-5.5-2.2-7-0.3c-2.8,3.7-9.9,3.3-11.8,6.7C304.6,344.1,335.3,341.3,328.6,328.3z"/>
	<path class="st3" d="M328.6,328.3c-1.5-2.9-5.5-2.2-7-0.3c-2.8,3.7-9.9,3.3-11.8,6.7C304.6,344.1,335.3,341.3,328.6,328.3z"/>
	<path class="st0" d="M346.8,292.1c0,0,12.2-7.6,11.7-20.5c-0.2-5.4-8.3-8.4-10-13.6c-1.6-5.2,0-10.8,6.7-10.5
		c8.7,0.4,6.4,10.3,10.5,15.1c4.1,4.8,9.2-1.2,9.3-6.3c0.1-3.7-3-20-12.8-30.6c-8.4-9.1-19.4-19.8-33-17.9
		c-5.8,0.8-12.7,3.6-15.6,9.3c-4,8,2.8,14.8,9.1,18.8c6.6,4.2,12.6,12.9,8.9,21.1c-4.7,10.4-16.3,11.4-23.7,7.5
		c-10.3-5.3-14.5-21.3-16.8-31.8c-2.1-9.7-1.2-20.2,3.7-28.9c6.1-10.9,19.3-17.8,31.6-17.9c16.8-0.1,32.3,9.7,44.4,20.5
		c6.5,5.8,11.8,12.7,16.9,19.8c4.4,6,8,14,14.1,18.4c11.4,8.3,15.5-6.2,26.1-6.6c7.4-0.2,10.2,6.1,11.7,9c1.6,2.9,5.3,13.2,3.5,26.1
		"/>
	<path class="st0" d="M283.8,306.1c0,0-23.5-2.4-28.5-12.5c-4.1-8.3-2.1-15-4.8-20.2c-2.5-4.8-10.2-6.4-11.7,0.1
		c-1.1,4.7,4,9.1,2.6,13.8c-1.1,3.5-5.5,6.8-9.4,3.5c-6.9-5.7-8.7-14.7-13.5-21.8c-7.4-11-19.4-16.7-31.1-21.9
		c-5.2-2.3-10.4-5.4-13.5-10.2c-8.8-13.3,5.5-27.7,12.9-37.6c8.4-11.3,11.3-30.4-7.5-34.1c-11.9-2.3-23.8,12.8-28,24.2
		c-4.1,11.4-6.3,25.3-3.3,37.3c5.4,22.2,25.5,34.5,44.9,44.4c6.7,3.4,11.9,10.2,13.9,17.5c1.2,4.5,1.2,18.2-6.1,10.4
		c-3.8-4.1-8.7-18.6-16.2-11.4c-10.2,9.8-5.9,29.3,0.8,39.9"/>
	
		<ellipse transform="matrix(0.9762 -0.2169 0.2169 0.9762 -35.1451 42.8042)" class="st1" cx="177.5" cy="181.5" rx="12.5" ry="12"/>
	
		<ellipse transform="matrix(0.9762 -0.2169 0.2169 0.9762 -35.1451 42.8042)" class="st4" cx="177.5" cy="181.5" rx="12.5" ry="12"/>
	<ellipse transform="matrix(0.9762 -0.2169 0.2169 0.9762 -46.9161 74.4605)" class="st1" cx="315.8" cy="251" rx="12.5" ry="12"/>
	<ellipse transform="matrix(0.9762 -0.2169 0.2169 0.9762 -46.9161 74.4605)" class="st4" cx="315.8" cy="251" rx="12.5" ry="12"/>
	
		<ellipse transform="matrix(0.9762 -0.2169 0.2169 0.9762 -35.7164 43.8855)" class="st5" cx="182.1" cy="184.7" rx="2.7" ry="2.7"/>
	
		<ellipse transform="matrix(0.9762 -0.2169 0.2169 0.9762 -47.9223 74.1184)" class="st5" cx="313.8" cy="255.4" rx="2.7" ry="2.7"/>
	<path class="st0" d="M279.6,311.5c0,0,25.2,5.1,40.7,1.6c15.5-3.4,30.7-16.1,34.1-19.6"/>
	<path class="st0" d="M304,416.9c0,0,16-2.6,21.1-9.3c5-6.7,4.6-12.6,9.1-15.5s13.9-8.6,18.1-8.2s4.8,2.7,11.4,3.5
		c6.7,0.8,11.8,1.1,16.2-2.2"/>
	<path class="st0" d="M315,389.4c10.4,0.8,9.1,13.8,0.9,18.8"/>
	<path class="st0" d="M371.7,368.9c0,0-4.4,3.3-3.1,9c1.3,5.7,6.7,5,6.7,5"/>
	<path class="st1" d="M294.6,309.6c0,0,12.3,2.1,23.7,0c11.3-2.2,26-11.5,25.1-12.5c-2.3-2.6-10.1,3.3-13.2,4.7s-7.8,3.8-15,4.4
		c-4.2,0.3-8.4-0.2-12.6,0c-2.3,0.1-4.8,0.1-7,0.8C294,307.3,291.3,309.1,294.6,309.6z"/>
	<path class="st1" d="M329.1,408.4c1.2,2.2,9.3-2.1,13.1-3.6s25.1-10.8,22.9-12.7c-2.2-2-4.5-1.4-6.8-2.3s-2.8-3.2-7.5-2.5
		c-4.7,0.7-12.9,4.6-14.8,7.1c-1.9,2.5-1.7,4.9-2.9,7.3C332,404,327.9,406.3,329.1,408.4z"/>
	<g>
		<path class="st0" d="M461.7,276.1c12.5,10.1,5.6,33.4,0.5,45.8c-8.1,19.7-23.2,34.6-41.5,46.1c-14.6,9.2-44.5,16.8-46.1,9.7
			c-1.4-6.2,8.7-12.6,12.8-15.8c6.5-5,12.9-10.2,18.3-16.3c7.6-8.6,13.2-18.7,16.4-29.5c3.4-11.5,2.6-22.2,10.2-32.5
			c3.4-4.6,7.9-8.5,13.7-9.9C453.1,272.1,458.2,273.3,461.7,276.1z"/>
		<g>
			<path class="st0" d="M344.8,347.9c-0.8-4.1,7.1-7.1,9.9-8.5c6.1-3.3,11.1-6.9,13.4-13.8c4-12.2-7.2-20.9-2.7-32.8
				c3.7-9.6,12.1-18.1,20.5-23.7c15.4-10.3,35.5-17.9,54.2-13.8c9.4,2.1,20.6,7.3,26.7,15.1c6,7.7,4,21.7,1.3,30.5
				c-3.6,11.9-11.4,22.1-20.5,30.6c-13.8,12.8-31.1,23-49.7,27.3C385.8,361.4,348.4,365.6,344.8,347.9z"/>
			<path class="st0" d="M335.4,323.5c-0.5-3.7,7.3-11,10.6-13.6c3.3-2.6,14.4-9.9,16.5-7.4c2.2,2.5,4.9,10.2,4.8,12.2
				c0,2-8,6.3-13.9,6.6S335.7,326.3,335.4,323.5z"/>
		</g>
	</g>
	<g>
		<path class="st0" d="M180.9,386.4c0.5,16.4,17.3,25.5,30.2,31.1c22.2,9.7,45.2,11.6,67.2,6.1c16-4,40.1-20.4,35.5-26.7
			c-4.1-5.5-15.2-2.8-20.2-2.1c-7.9,1.1-15.8,2-23.9,1.5c-11.4-0.7-22.8-4-33.3-9.6c-11.2-5.9-19.1-14.4-31.9-16.4
			c-5.7-0.9-11.5-0.4-16.1,2.8C182.9,377.2,180.7,381.8,180.9,386.4z"/>
		<g>
			<path class="st0" d="M255.2,315.6c1.2,0.2,2.4,0.5,3.5,0.9c10.8,3.7,8.2,18.7,15.2,26.1c5.5,5.7,13.4,8.2,23.1,10.2
				c9.7,2,18.7,2.8,19.5,8.6c3.2,22.2-23.1,39.9-40.7,46.6c-35.3,13.4-93.1,8.3-107.7-33.2c-14.8-42,36.9-58.9,69-59.9
				C242.7,314.8,249.4,314.4,255.2,315.6z"/>
			<path class="st0" d="M267.9,326.6c0,0-1-4.4,3.3-5.8c4.3-1.4,14.5,0.5,21.7,3.5c7.2,3,8.9,6.8,7.6,9c-1.4,2.2-8.9,1.5-13.8,2.6
				c-4.9,1.1-13.8,4.9-15.1,2.9c-0.7-1-1.6-4.1-2.3-6.8S267.9,326.6,267.9,326.6z"/>
		</g>
	</g>
	<path class="st1" d="M174.8,376.3c0,0,9.9,19.4,33.9,27.3c24,7.9,45.5,4.5,68.2-3.3s32.1-24.5,33.2-29c1.1-4.4,0.1-9.1-8.5-9.9
		s-23.1-6.7-34.7-2.7c-11.7,4-23.4,7.8-35.3,11.2c-17.5,5-34.4,12.7-48.3-2.2c-1.6-1.7-7.7-9.8-10.3-5.6
		C169.9,366.9,174.8,376.3,174.8,376.3z"/>
	<path class="st1" d="M351.4,349.1c3.4,8.8,22,7.2,29.5,6.9c29.6-1.3,75.1-23.7,81.9-56c1.6-7.8,5.9-25-0.9-28.2
		c-7.4-3.5-13.1,17.6-16.3,21.6c-9,11.1-24.6,18.3-38.6,20.2c-8.3,1.1-27.2-4.7-30.2,6.8c-1.6,6.4-5.3,15.9-11.2,19.4
		C358.3,344,348.8,342.3,351.4,349.1z"/>
	<path class="st1" d="M279,421.4c8.3-2.2,20.6-7.4,25-16.8c1.9-4,0.6-5.6-3.9-2.8c-4.5,2.8-14.1,7.9-27.2,11.6
		c-26.7,7.5-39.8,3.5-39.3,6.6C234.1,422.6,252.4,428.5,279,421.4z"/>
	<path class="st1" d="M380.5,374.2c-0.1,3,4.3,2.7,6.2,2.6c3.8-0.1,7.8-1.6,11.4-2.6c5-1.4,9.7-3.3,14.3-5.6
		c5.7-2.8,11.1-6.2,16.1-10c4.7-3.5,10.4-7.7,13.5-12.7c1.9-3.2-2.8-1.9-4.5-1.3c-3.4,1.3-6.4,3.6-9.6,5.4c-6,3.3-12.4,5.8-19,7.8
		c-5.1,1.6-10.5,2.8-15.5,4.8C390.2,363.9,380.6,370.7,380.5,374.2z"/>
	<path class="st2" d="M269.9,332.1c0,0,1.2,6.1,2.6,6.7c1.6,0.6,7-1.2,9.2-2c1.4-0.6,5.7-1.7,9.2-2c4.4-0.4,11.8,0.3,8.7-5.1
		c0,0,0,2.7-0.8,2.8c-0.8,0.2-2-1.9-2.8-1.7c-0.8,0.2-0.5,1.6-1.1,2c-0.6,0.4-2-1.8-3.1-1.4s-0.7,1.5-1.6,2.1
		c-0.9,0.6-2.3-2.7-3.2-2.1c-0.9,0.7-0.6,2.7-1.3,3.1s-2.4-2.5-3.2-2.3c-1.3,0.3-0.8,3.3-1.4,3.5s-2.5-3.6-3.4-2.6
		c-0.8,1-0.2,3.6-1.1,4c-0.9,0.3-1.9-4.3-2.5-3.9c-0.6,0.5,0,3.7-0.7,3.6C272.8,336.6,269.9,332.1,269.9,332.1z"/>
	<path class="st2" d="M364.6,307.3c0,0,2.3,6.9,2.1,7.5c-0.2,0.6-2.2,2.5-7,4.4c-1.2,0.5-3.4,1.2-7.7,1.6
		c-1.2,0.1-11.2,2.4-11.7,2.5c-0.5,0.1-3.4,0.7-4,0.3c-0.7-0.4-0.1-1.7,0.2-2.4c0.3-0.6,0.8-1.4,0.8-1.4s-0.4,1.4,0,2
		c0.5,0.5,1.4,0.4,1.9-0.2c0.5-0.6,0.5-2.1,1-2.3c0.5-0.1,0.9,1.4,1.7,1.7c0.8,0.3,0.9-2.5,1.9-3c1-0.5,0.8,2.2,2.2,2.4
		s1.3-3.6,2.4-3.9s1.3,2.9,2.3,2.9c1,0,0.9-3.9,2-4.2s0.9,2.6,2.2,2.7s1.2-4.1,2.1-4.5s1.1,3.1,2.3,2.8s0.2-4,1-4.3
		c0.8-0.3,1.6,2.3,2.6,2.3C364.1,314.2,364.6,307.3,364.6,307.3z"/>
</g>
</svg>
