<?xml version="1.0" encoding="utf-8"?>
<!-- Generator: Adobe Illustrator 20.0.0, SVG Export Plug-In . SVG Version: 6.00 Build 0)  -->
<svg version="1.1" id="Layer_1" xmlns="http://www.w3.org/2000/svg" xmlns:xlink="http://www.w3.org/1999/xlink" x="0px" y="0px"
	 viewBox="0 0 300 300" style="enable-background:new 0 0 300 300;" xml:space="preserve">
<style type="text/css">
	.st0{fill:#F7931E;stroke:#54465B;stroke-width:2;stroke-miterlimit:10;}
	.st1{fill:#54465B;stroke:#54465B;stroke-miterlimit:10;}
	.st2{fill:#FBB03B;}
	.st3{fill:#F15A24;}
</style>
<g>
	<path class="st0" d="M282.3,283.7c1.5-1.5-8.7-14-16-21.3c-7.3-7.3-48.7-40.7-50-50c-1.3-9.3,10.7-28,18-36
		c7.3-8,20.7-42.7,10.7-37.3c-10,5.3-20,30-25.3,33.3c-5.3,3.3-20,9.3-22-16S210.3,83,217,75c6.7-8,5.3-18-5.3-17.3
		c-10.7,0.7-11.3-12.7-6.7-24c4.7-11.3,21.3-35.3,11.3-27.3c-10,8-28.7,50-37.3,52.7c-5.1,1.6-8.8,0.1-13.1-2.5
		c-2.9-1.8-1.7-3.8-5-3.8C150.5,53,144.6,73,143.6,80.4c-2.7,20.7-5.3,47.3-14,45.3c-8.7-2-24-6-32-30S81.6,60.4,78.3,67
		c-3.3,6.7-12.7,14.7-22,8.7S25,42.4,22.3,51S31,81,37,93s10,14,6.7,19.3S28.3,111,29,117s56,38.7,54.7,51.3
		c-1.3,12.7-68.7,50-66,56S46.3,231,47,243c0.7,12-24,42.7-13.3,50.7s24-18,29.3-24s9.3-7.3,14.7-3.3S83.6,289,89,291
		c7.9,3,19.9-6.9,23.6-12.7c12-18.7,14.9-42.6,34.4-56c12.7-8.7,24.7-10,31.3,2c6.7,12-12.7,52-0.7,46s22-37.3,26.7-40
		c4.7-2.7,17.3,4,27.3,12S277.6,288.4,282.3,283.7z"/>
	<path class="st1" d="M207.6,219c-2.2-3.4-40-26.7-42-34.7s-4-39.3-2-59.3s0-30-2.7-23.3c-2.7,6.7,0.7,63.3-5.3,67.3
		S121,155.7,113,147c-8-8.7-48-38.7-44-30s32.7,28.7,43.3,36c10.7,7.3,37.3,19.3,32.7,24c-4.7,4.7-23.3,13.3-35.3,18.7
		S64.3,223,73,226.4c8.7,3.3,35.3-26,52.7-32.7s29.3-7.3,34.7-6c5.3,1.3,36,32,42,34.7C208.3,225,211.6,225,207.6,219z"/>
	<path class="st2" d="M205.6,211c-2.2-3.4-40-26.7-42-34.7s-4-39.3-2-59.3s0-30-2.7-23.3c-2.7,6.7,0.7,63.3-5.3,67.3
		S119,147.7,111,139c-8-8.7-48-38.7-44-30s32.7,28.7,43.3,36c10.7,7.3,37.3,19.3,32.7,24c-4.7,4.7-23.3,13.3-35.3,18.7
		S62.3,215,71,218.4c8.7,3.3,35.3-26,52.7-32.7s29.3-7.3,34.7-6c5.3,1.3,36,32,42,34.7C206.3,217,209.6,217,205.6,211z"/>
	<path class="st3" d="M207.6,216c-2.2-3.4-40-26.7-42-34.7s-4-39.3-2-59.3s0-30-2.7-23.3c-2.7,6.7,0.7,63.3-5.3,67.3
		S121,152.7,113,144c-8-8.7-48-38.7-44-30s32.7,28.7,43.3,36c10.7,7.3,37.3,19.3,32.7,24c-4.7,4.7-23.3,13.3-35.3,18.7
		S64.3,220,73,223.4c8.7,3.3,35.3-26,52.7-32.7s29.3-7.3,34.7-6c5.3,1.3,36,32,42,34.7C208.3,222,211.6,222,207.6,216z"/>
</g>
</svg>
