<?xml version="1.0" encoding="utf-8"?>
<!-- Generator: Adobe Illustrator 20.0.0, SVG Export Plug-In . SVG Version: 6.00 Build 0)  -->
<svg version="1.1" id="Layer_1" xmlns="http://www.w3.org/2000/svg" xmlns:xlink="http://www.w3.org/1999/xlink" x="0px" y="0px"
	 viewBox="0 0 290 290" style="enable-background:new 0 0 290 290;" xml:space="preserve">
<style type="text/css">
	.st0{fill:#FBB03B;stroke:#54465B;stroke-width:2;stroke-miterlimit:10;}
	.st1{fill:#54465B;stroke:#54465B;stroke-miterlimit:10;}
	.st2{fill:#FFE780;}
	.st3{fill:#F7931E;}
</style>
<g>
	<path class="st0" d="M6.2,258c1.1,5,15.3,8,26-1.3c10.7-9.3,22-11.3,33.3-6.7c58.8,24.2,139.3,26.1,181.9-28.9
		c17.4-22.5,25.9-50.8,28.8-79.1c2-19.5,1.5-39.1,0.3-58.6c-0.6-9.8-4.6-27.3,0.1-36.1c2.1-3.8,5.1-7.2,6.6-11.3s0.6-9.6-3.3-11.5
		c-2.3-1.1-4.9-0.7-7.4-0.3c-33.3,5.5-66.5,11-99.8,16.5c-30.1,5-61.4,10.4-85.9,28.6c-23.2,17.3-37.6,44.4-44.9,72.4
		c-4.4,16.8-6.4,34-7.5,51.3c-1,15.8,0.1,30.2-6.2,44.9C26.2,242.6,4.9,252,6.2,258z"/>
	<path class="st1" d="M50.2,225.6c1.6,3.7,11.3-1.3,17.3-6c6-4.7,20-9.3,28.7-8c19,2.9,38.5,2.3,57.3-1.7c9.1-2,45.5-9.6,45.3-21.8
		c-1.1-0.4-2.1-0.2-3.2,0.2c-7.3,2.7-37.3,14-57.3,14.7c-20,0.7-55.3,2-47.3-12s21.3-31.3,30-32c19.9-1.5,39.9-0.6,59.8-2.3
		c12.9-1.1,49.1-3.6,53.9-19.4c-5.3-1.7-15,3.3-20.5,5c-16.9,5.2-32.1,8.7-49.8,9.7c-3.6,0.2-29,2.7-28-5
		c1.3-9.9,13.5-20.1,19.9-26.9c14.4-15.5,31.2-26,48.8-37.2c7-4.5,14.1-8.9,20.9-13.9c1.7-1.3,3.1-2.1,3.4-4.2
		c2.4-6.5-20.8,6.3-29.5,10.8c-12.4,6.4-24.9,13.5-35.4,22.7c-20.7,18-38,40-42,38c-10.2-5.1-8.3-19.6-6.7-28.7
		c1-5.5,3.8-12.4,3.2-18.4c-7.9,0.6-10.6,16.1-11.4,22.4c-1.5,11.5,6.5,22.9,4.2,33.4c-1.3,6-28,40.7-33.3,43.3
		c-5.3,2.6-11.3-4.7-12.5-9c-3-10.9,5.6-22.9,1.3-33.5c-0.8,0.4-1.1,1-1.4,1.8c-4,9.3-8,30.7-2.7,40c5.3,9.3,2.7,17.3,0,23.3
		S48.2,221,50.2,225.6z"/>
	<path class="st2" d="M46.2,218.6c1.6,3.7,11.3-1.3,17.3-6c6-4.7,20-9.3,28.7-8c19,2.9,38.5,2.3,57.3-1.7c9.1-2,45.5-9.6,45.3-21.8
		c-1.1-0.4-2.1-0.2-3.2,0.2c-7.3,2.7-37.3,14-57.3,14.7c-20,0.7-55.3,2-47.3-12s21.3-31.3,30-32c19.9-1.5,39.9-0.6,59.8-2.3
		c12.9-1.1,49.1-3.6,53.9-19.4c-5.3-1.7-15,3.3-20.5,5c-16.9,5.2-32.1,8.7-49.8,9.7c-3.6,0.2-29,2.7-28-5
		c1.3-9.9,13.5-20.1,19.9-26.9c14.4-15.5,31.2-26,48.8-37.2c7-4.5,14.1-8.9,20.9-13.9c1.7-1.3,3.1-2.1,3.4-4.2
		c2.4-6.5-20.8,6.3-29.5,10.8c-12.4,6.4-24.9,13.5-35.4,22.7c-20.7,18-38,40-42,38c-10.2-5.1-8.3-19.6-6.7-28.7
		c1-5.5,3.8-12.4,3.2-18.4c-7.9,0.6-10.6,16.1-11.4,22.4c-1.5,11.5,6.5,22.9,4.2,33.4c-1.3,6-28,40.7-33.3,43.3
		c-5.3,2.6-11.3-4.7-12.5-9c-3-10.9,5.6-22.9,1.3-33.5c-0.8,0.4-1.1,1-1.4,1.8c-4,9.3-8,30.7-2.7,40c5.3,9.3,2.7,17.3,0,23.3
		S44.2,214,46.2,218.6z"/>
	<path class="st3" d="M50.2,222.6c1.6,3.7,11.3-1.3,17.3-6c6-4.7,20-9.3,28.7-8c19,2.9,38.5,2.3,57.3-1.7c9.1-2,45.5-9.6,45.3-21.8
		c-1.1-0.4-2.1-0.2-3.2,0.2c-7.3,2.7-37.3,14-57.3,14.7c-20,0.7-55.3,2-47.3-12s21.3-31.3,30-32c19.9-1.5,39.9-0.6,59.8-2.3
		c12.9-1.1,49.1-3.6,53.9-19.4c-5.3-1.7-15,3.3-20.5,5c-16.9,5.2-32.1,8.7-49.8,9.7c-3.6,0.2-29,2.7-28-5
		c1.3-9.9,13.5-20.1,19.9-26.9c14.4-15.5,31.2-26,48.8-37.2c7-4.5,14.1-8.9,20.9-13.9c1.7-1.3,3.1-2.1,3.4-4.2
		c2.4-6.5-20.8,6.3-29.5,10.8c-12.4,6.4-24.9,13.5-35.4,22.7c-20.7,18-38,40-42,38c-10.2-5.1-8.3-19.6-6.7-28.7
		c1-5.5,3.8-12.4,3.2-18.4c-7.9,0.6-10.6,16.1-11.4,22.4c-1.5,11.5,6.5,22.9,4.2,33.4c-1.3,6-28,40.7-33.3,43.3
		c-5.3,2.6-11.3-4.7-12.5-9c-3-10.9,5.6-22.9,1.3-33.5c-0.8,0.4-1.1,1-1.4,1.8c-4,9.3-8,30.7-2.7,40c5.3,9.3,2.7,17.3,0,23.3
		S48.2,218,50.2,222.6z"/>
</g>
</svg>
