<?xml version="1.0" encoding="utf-8"?>
<!-- Generator: Adobe Illustrator 20.0.0, SVG Export Plug-In . SVG Version: 6.00 Build 0)  -->
<svg version="1.1" id="Layer_1" xmlns="http://www.w3.org/2000/svg" xmlns:xlink="http://www.w3.org/1999/xlink" x="0px" y="0px"
	 viewBox="0 0 500 501" style="enable-background:new 0 0 500 501;" xml:space="preserve">
<style type="text/css">
	.st0{fill:#7E678C;}
	.st1{fill:#54465B;}
	.st2{fill:#A387B2;}
	.st3{fill:#F490CE;}
	.st4{fill:#FCD0F4;}
	.st5{fill:#EF65B4;}
	.st6{fill:none;stroke:#54465B;stroke-miterlimit:10;}
	.st7{fill:#FCD0F4;stroke:#54465B;stroke-miterlimit:10;}
</style>
<g>
	<g>
		<path class="st0" d="M407,352.8c-13.6-3.9-39.9-1.9-51.6,4.9c-11.3,6.6-16.5,25.3-9.7,34c6.8,8.8,35,13.6,48.6,5.8
			C407.9,389.8,420.6,356.7,407,352.8z"/>
		<path class="st0" d="M262.5,167.7c-7.9-0.6-16.2,1.2-23.9,6c-7.9,4.9-15.1,11.1-23.9,14.2c-9.6,3.4-18,1.7-27.4-1.1
			c-9.3-2.8-19.7-3.6-29.5-3.3c-25.7,0.8-52.9,6.6-63.7,32.5c-8.6,20.5-7,44.1-6.8,65.8c0.2,34.9,1.8,72.9,14.1,106
			c5.5,14.7,17.2,25.5,30.6,33.1c21.3,12.1,46.7,17.2,70.9,19.1c19.9,1.5,38.3,4.3,53.3-11.8c25-26.8,24.6-75.6,21.4-109.4
			c-2.3-23.8-12.4-47,1.4-68.2c6.9-10.6,19.3-20.2,21.9-32.7C306.5,191.7,286,169.4,262.5,167.7z M206.2,350.5
			c-14.4,5.1-31,3.6-44.3-3.9c-11.7-6.7-31.5-27.9-26.3-43.4c4-11.7,50.6-0.5,74,11.6c7,3.6,11.9,7.3,13,10.6
			C226.7,337.6,216.6,346.7,206.2,350.5z"/>
	</g>
	<path class="st1" d="M87.4,281.9c0.7,29.1,3,58.8,9.1,87.3c4.3,20.1,9.8,34.7,27.1,46.7c23.3,16.1,50.9,26,79.1,28.2
		c15.1,1.2,31.1,0,44-8c12.1-7.5,20.2-20.2,24.9-33.6c4.6-13.4,6.2-27.7,7.7-41.9c-2.3,21.7-14.5,59.7-38.6,66.1
		c-30,8-75.5,1.5-103.1-11.8C97.5,395.5,95.2,321.1,87.4,281.9z"/>
	<path class="st2" d="M113.2,205c-3.1,3.1-17.5,15.6-10.4,19.8c3.1,1.8,7.2-1.5,9.3-3.5c3.1-2.9,16.4-15.7,13.6-20.7
		C123.7,196.9,115.3,202.9,113.2,205z"/>
	<path class="st2" d="M357.7,362c-2.4,2.1-8,5.9-8.5,9.2c-0.7,4.8,11.9-1.9,13.1-2.7C370,362.5,366.1,354.5,357.7,362z"/>
	<circle class="st2" cx="132.6" cy="198.6" r="1.9"/>
	<g>
		<polygon class="st3" points="274,174 295,195.1 295,225.1 274,246.2 244.4,246.2 223.4,225.1 223.4,195.1 244.4,174 		"/>
		<polygon class="st4" points="241.4,233.9 264.5,181.2 252.8,180.8 233.6,202.9 230.1,222.3 		"/>
		<polygon class="st5" points="274,174 247.1,180.8 230.1,197.3 223.4,195.1 244.4,174 		"/>
		<polygon class="st4" points="252.5,239.3 277.1,186.6 284.5,194.2 260.2,239.3 		"/>
		<polygon class="st5" points="223.4,225.1 230.1,222.3 244.4,246.2 		"/>
		<polygon class="st5" points="223.4,195.1 230.1,222.3 223.4,225.1 		"/>
		<g>
			<polygon class="st6" points="274,174 295,195.1 295,225.1 274,246.2 244.4,246.2 223.4,225.1 223.4,195.1 244.4,174 			"/>
			<polygon class="st6" points="271.2,180.8 288.3,197.9 288.3,222.3 271.2,239.5 247.1,239.5 230.1,222.3 230.1,197.9 247.1,180.8 
							"/>
			<line class="st6" x1="244.4" y1="174" x2="247.1" y2="180.8"/>
			<line class="st6" x1="271.2" y1="180.8" x2="274" y2="174"/>
			<line class="st6" x1="288.3" y1="197.9" x2="295" y2="195.1"/>
			<line class="st6" x1="288.3" y1="222.3" x2="295" y2="225.1"/>
			<path class="st6" d="M274,246.2c0,0-2.8-6.6-2.8-6.8"/>
			<line class="st6" x1="247.1" y1="239.5" x2="244.4" y2="246.2"/>
			<line class="st7" x1="230.1" y1="222.3" x2="223.4" y2="225.1"/>
			<line class="st6" x1="230.1" y1="197.9" x2="223.4" y2="195.1"/>
		</g>
	</g>
	<path class="st2" d="M125.3,297.1c2.4-12.4,14.5-19.3,26.6-16.7c3,0.6,13.6,2.3,14.2,6.2c0.6,4.4-7.8,4.8-10.6,5
		c-11.2,0.5-18.1,0.4-25.9,9c-0.7,0.8-2,1.3-2.9,0.8C125.2,300.5,124.9,299,125.3,297.1z"/>
	<path class="st1" d="M345.7,391.7c0,0,6.8,11.2,42.3,10.2c18.1-0.5,24.2-32.4,24.2-32.4c-8.3,15.1-22.1,25-36.9,26.7
		C365.7,397.3,354.4,396.3,345.7,391.7z"/>
	<path class="st2" d="M263.3,320.8c-8.7,12.8-13.8,28.8-18.6,43.3c-3.2,9.5-7.6,18.9-8.5,29c-1,11.5,8.4,24.4,20.8,14.9
		c13.5-10.4,16.1-39,15.7-54.5c-0.2-6.7,2.2-31.9-4.4-36.4C267.2,316.2,265.4,317.7,263.3,320.8z"/>
</g>
</svg>
