<?xml version="1.0" encoding="utf-8"?>
<!-- Generator: Adobe Illustrator 20.0.0, SVG Export Plug-In . SVG Version: 6.00 Build 0)  -->
<svg version="1.1" xmlns="http://www.w3.org/2000/svg" xmlns:xlink="http://www.w3.org/1999/xlink" x="0px" y="0px"
	 viewBox="0 0 500 501" style="enable-background:new 0 0 500 501;" xml:space="preserve">
<style type="text/css">
	.st0{display:none;}
	.st1{display:inline;fill:#7E678C;}
	.st2{display:inline;fill:#A387B2;}
	.st3{display:inline;fill:#54465B;}
	.st4{display:inline;}
	.st5{fill:#1DB7AF;}
	.st6{fill:#4AEDE1;}
	.st7{fill:#0B605A;}
	.st8{fill:none;stroke:#54465B;stroke-linecap:round;stroke-linejoin:round;stroke-miterlimit:10;}
	.st9{fill:#7E678C;}
	.st10{fill:#A387B2;}
	.st11{fill:#54465B;}
	.st12{fill:#4BD178;}
	.st13{fill:#8BEFAA;}
	.st14{fill:#3B9B58;}
	.st15{fill:#F490CE;}
	.st16{fill:#FCD0F4;}
	.st17{fill:#EF65B4;}
	.st18{fill:none;stroke:#54465B;stroke-miterlimit:10;}
	.st19{fill:#FCD0F4;stroke:#54465B;stroke-miterlimit:10;}
</style>
<g id="Layer_2" class="st0">
	
		<image style="display:inline;overflow:visible;" width="512" height="512" xlink:href="../../../../../../Desktop/AR/AR presentation/face-guide.png"  transform="matrix(1 0 0 1 -2 72)">
	</image>
</g>
<g id="Layer_3" class="st0">
	<path class="st1" d="M78.3,255.1c1.2,9.7,6.3,19.1,15.1,25.9c15.2,11.7,35.5,15.4,54.1,16.8c19.1,1.5,34.3-2.2,53.5-0.7
		c26.5,2,44.8,24.3,25.5,47.7c-9.8,11.9-19.3,25.3-20.9,40.6c-6.5,60.9,119.6,49.1,152.2,43.3c11.8-2.1,23.7-5.1,34-11.3
		c14.5-8.8,26.9-27.8,22.9-45.4c-3.8-16.6-32.2-19.1-46.5-18.7c-23.4,0.7-92.1,21.8-93.9-22.1c-0.4-9.2,5.6-12.8,12.7-17.9
		c11.6-8.5,32.6-14.1,35.8-30.3c4.8-24-19.9-38.4-38.2-46.1C237.5,216.9,186,207.7,135,210c-11.1,0.5-22.4,1.6-32.5,6
		C87.1,222.6,76.2,238,78.3,255.1z"/>
	<path class="st2" d="M87.8,244.7c2.2,7,11.5,4.1,15.9,1.1c10.5-7.2,20-13.9,32.3-18.1c2.9-1,14.6-3.8,13.7-7.9
		c-0.6-2.8-4.2-3.5-7-3.6c-18.6-0.4-42.4,4.7-53.5,21.2C87.5,239.9,87.2,242.5,87.8,244.7z"/>
	<circle class="st2" cx="156.2" cy="219.2" r="2.2"/>
	<path class="st2" d="M235.7,350.2c-9.2,3.3-20.5,21.1-21.6,29.1c-3.3,23.6,18.3,42.1,41,40.3c1.8-0.1,3.6-0.4,5.2-1.4
		c1.5-0.9,2.7-2.7,2.5-4.5c-0.2-1.3-1-2.4-1.9-3.5c-5.3-6.7-10.6-12.7-14-20.6c-4.1-10.2-4.4-21.2-0.7-31.6
		C248.9,350.5,240.2,348.6,235.7,350.2z"/>
	<polygon class="st3" points="271.1,246.7 289.4,264.4 289.4,289.5 271.1,307.2 245.2,307.2 226.9,289.5 226.9,264.4 245.2,246.7 	
		"/>
	<path class="st2" d="M271.5,409.5c-9.6,4.3-3.1,17.3,5.4,18.2C290.6,429.1,276.3,407.4,271.5,409.5z"/>
	<g class="st4">
		<g>
			<g>
				<polygon class="st5" points="267.6,244.1 285.4,261.8 285.4,286.8 267.6,304.5 242.5,304.5 224.7,286.8 224.7,261.8 
					242.5,244.1 				"/>
				<polygon class="st6" points="240,294.2 259.6,250.1 249.6,249.7 233.3,268.2 230.4,284.5 				"/>
				<polygon class="st7" points="267.6,244.1 244.8,249.7 230.4,263.6 224.7,261.8 242.5,244.1 				"/>
				<polygon class="st6" points="249.4,298.7 270.3,254.6 276.6,260.9 255.9,298.7 				"/>
				<polygon class="st7" points="224.7,286.8 230.4,284.5 242.5,304.5 				"/>
				<polygon class="st7" points="224.7,261.8 230.4,284.5 224.7,286.8 				"/>
				<g>
					<polygon class="st8" points="267.6,244.1 285.4,261.8 285.4,286.8 267.6,304.5 242.5,304.5 224.7,286.8 224.7,261.8 
						242.5,244.1 					"/>
					<polygon class="st8" points="265.3,249.7 279.8,264.1 279.8,284.5 265.3,298.8 244.8,298.8 230.4,284.5 230.4,264.1 
						244.8,249.7 					"/>
					<line class="st8" x1="242.5" y1="244.1" x2="244.8" y2="249.7"/>
					<line class="st8" x1="265.3" y1="249.7" x2="267.6" y2="244.1"/>
					<line class="st8" x1="279.8" y1="264.1" x2="285.4" y2="261.8"/>
					<line class="st8" x1="279.8" y1="284.5" x2="285.4" y2="286.8"/>
					<path class="st8" d="M267.6,304.5c0,0-2.4-5.5-2.4-5.7"/>
					<line class="st8" x1="244.8" y1="298.8" x2="242.5" y2="304.5"/>
					<line class="st6" x1="230.4" y1="284.5" x2="224.7" y2="286.8"/>
					<line class="st8" x1="230.4" y1="264.1" x2="224.7" y2="261.8"/>
				</g>
			</g>
		</g>
	</g>
	<path class="st3" d="M268.1,353.4c-2,0.7-2.3,2.9,1,7.9c2.6,3.9,6.3,7,10.4,9.1c5.4,2.8,16.4,5.9,21.9,1.8
		c5.5-4.1-13-12.7-15.1-13.7C282.7,356.9,272,352.1,268.1,353.4z"/>
	<ellipse class="st3" cx="271.5" cy="348.2" rx="2.5" ry="2.8"/>
</g>
<g id="Layer_4">
	<path class="st9" d="M114.7,345.3c-5.2,4.4-7.5,13.4-8.5,19.2c-9.5,56.1,62,69.9,101.5,53.7c15.1-6.2,21-17.5,24.3-32.6
		c1.4-6.6,3.2-15.3,0.4-21.7c-3-7-11.2-7.8-18.3-7c-6.2,0.7-12.2,2.7-18.4,4c-13.3,2.8-27.4,1.8-40.3-2.4
		C144.7,354.9,126.3,335.7,114.7,345.3z"/>
	<path class="st9" d="M400.6,262.5c-8.1-21.9-38.2-27.5-58.7-28.3c-12.6-0.4-25.2,1.2-37.2,5.2c-9.9,3.3-18.8,8.9-27.2,14.9
		c-9.1,6.5-18.1,9.6-29.4,7.4c-14.7-2.7-23.8-13.8-36.8-19.4c-14.1-6.1-29.6-8.7-44.9-8.1c-20.5,0.7-50.6,6.3-58.7,28.3
		c-2.1,5.7-2.1,12.3,1,19.6c5.6,13.1,20.3,20.2,34.4,21.8c16.6,2,33.1-1.9,49.7-1.3c7.4,0.3,15.7,1.2,22.6,4.4
		c10.5,4.8,21.3,6,29-4.9c1.8-2.5,3-5.2,3.8-8.2c4.1,0.6,8.9,1.3,12.7,1.8c0.8,2.3,1.8,4.4,3.2,6.4c7.8,10.9,18.6,9.8,29,4.9
		c6.8-3.2,15.1-4.1,22.6-4.4c16.6-0.6,33.1,3.3,49.7,1.3c14.1-1.7,28.8-8.8,34.4-21.8C402.7,274.8,402.7,268.2,400.6,262.5z"/>
	<path class="st9" d="M393.5,345.3c5.2,4.4,7.5,13.4,8.5,19.2c9.5,56.1-62,69.9-101.5,53.7c-15.1-6.2-21-17.5-24.3-32.6
		c-1.4-6.6-3.2-15.3-0.4-21.7c3-7,11.2-7.8,18.3-7c6.2,0.7,12.2,2.7,18.4,4c13.3,2.8,27.4,1.8,40.3-2.4
		C363.5,354.9,381.9,335.7,393.5,345.3z"/>
	<path class="st10" d="M124.3,249.7c-9.1,5.3-15,16.7-13,20.7s13-7,16-11.3C130.3,254.7,130.7,246,124.3,249.7z"/>
	<circle class="st10" cx="133.2" cy="248.2" r="1.5"/>
	<path class="st10" d="M139.5,354.9c-1.1-2.2-5.2-4.9-6.3-5.6c-3.2-2.1-7.1-3.3-10.9-2.7c-4.7,0.8-7.3,5.3-9.6,9
		c-1,1.6-5.7,10.3,0.1,8.3c1.4-0.5,2.3-1.8,3.2-2.9c2.9-3.9,7.9-4.9,12.5-4.8c2,0,9.8,2.6,11.2,0.7
		C139.9,356.2,139.8,355.6,139.5,354.9z"/>
	<path class="st10" d="M281,362.8c-0.1,0.3-0.1,0.6-0.1,1c0.2,3.2,6.1,5.6,8.7,5.9c6.7,0.6,13.5,0.7,20.3,0.7
		c3.3,0,7.1,0.3,10.3-0.4c7.9-1.6-8.6-7.1-10.5-7.6c-7.7-2.2-16.2-3.5-24.3-2.4C283.6,360.2,281.4,360.8,281,362.8z"/>
	<ellipse class="st10" cx="326.5" cy="366.5" rx="2.2" ry="1.5"/>
	<path class="st11" d="M230.7,260.3c4.5,0,9.9,3.7,14,5.3c7.4,2.8,12.7,1.3,19.7-1.5c2.9-1.1,8.8-5.1,11.9-4.4
		c5.5,1.3,2.4,8.7,0.7,11.8c-3.3,5.9-8.2,12-14.7,14.5c-9.7,3.7-21.3,1.7-30.7-11.3C225.6,266.3,227,260.3,230.7,260.3z"/>
	<path class="st11" d="M202.7,294c-0.3,3.5,10.3,8,12.5,9.1c17,8,36.5,9.8,54.9,6.9c9.2-1.4,18.3-4,26.8-7.8
		c2.7-1.2,10.1-4.4,4.9-7.7c-2.5-1.6-7.1-0.1-9.7,0.4c-6.3,1.2-12.2,3.6-18.3,5.4c-8.3,2.4-16.9,4.8-25.7,4.6
		c-8.5-0.2-15.6-2.8-23.3-6.2C222.6,297.7,203.2,288.4,202.7,294z"/>
	<g>
		<g>
			<g>
				<polygon class="st12" points="266.5,275.2 284.3,293 284.3,318 266.5,335.7 241.3,335.7 223.5,318 223.5,293 241.3,275.2 				
					"/>
				<polygon class="st13" points="238.8,325.4 258.4,281.2 248.5,280.9 232.2,299.4 229.2,315.6 				"/>
				<polygon class="st14" points="266.5,275.2 243.7,280.9 229.2,294.8 223.5,293 241.3,275.2 				"/>
				<polygon class="st13" points="248.2,329.9 269.1,285.8 275.4,292.1 254.8,329.9 				"/>
				<polygon class="st14" points="223.5,318 229.2,315.6 241.3,335.7 				"/>
				<polygon class="st14" points="223.5,293 229.2,315.6 223.5,318 				"/>
				<g>
					<polygon class="st8" points="266.5,275.2 284.3,293 284.3,318 266.5,335.7 241.3,335.7 223.5,318 223.5,293 241.3,275.2 					
						"/>
					<polygon class="st8" points="264.1,280.9 278.6,295.3 278.6,315.6 264.1,330 243.7,330 229.2,315.6 229.2,295.3 243.7,280.9 
											"/>
					<line class="st8" x1="241.3" y1="275.2" x2="243.7" y2="280.9"/>
					<line class="st8" x1="264.1" y1="280.9" x2="266.5" y2="275.2"/>
					<line class="st8" x1="278.6" y1="295.3" x2="284.3" y2="293"/>
					<line class="st8" x1="278.6" y1="315.6" x2="284.3" y2="318"/>
					<path class="st8" d="M266.5,335.7c0,0-2.4-5.5-2.4-5.7"/>
					<line class="st8" x1="243.7" y1="330" x2="241.3" y2="335.7"/>
					<line class="st13" x1="229.2" y1="315.6" x2="223.5" y2="318"/>
					<line class="st8" x1="229.2" y1="295.3" x2="223.5" y2="293"/>
				</g>
			</g>
		</g>
	</g>
	<path class="st10" d="M281.5,256.8c-0.2,0.8-0.1,1.4,0.7,2c1.8,1.2,6.8-1.7,8.3-2.5c1.8-0.9,17.9-9,16.4-11.7
		c-2-3.6-11.4,2.2-13.6,3.2C291.7,248.6,282.5,253.5,281.5,256.8z"/>
	<ellipse class="st10" cx="310.2" cy="242.7" rx="1.2" ry="1.3"/>
	<path class="st11" d="M358.6,296.4c0,0.4,0,0.8,0.2,1.3c1.6,3.7,12.3,2.8,15.3,2.1c7.6-1.7,20.6-9.8,22.7-18
		c2.1-8.4-14.4,4.1-16.2,5.3c-3.3,2.2-7.5,3.7-11.4,4.8C366.5,292.7,359,292.8,358.6,296.4z"/>
	<path class="st11" d="M228.1,389.1c0.1,0.2,0.1,0.5,0.2,0.8c0.5,3.7-4.7,10.3-6.9,12.9c-6.6,7.9-16.4,12.9-26.3,15.2
		c-2.2,0.5-16.7,3.4-16.4-0.2c0.2-3.6,6.1-4.5,8.7-5.3c4.5-1.4,8.8-3.3,12.9-5.5c5.7-3.1,11-6.9,15.7-11.3
		C217.2,394.2,226.4,383.2,228.1,389.1z"/>
	<path class="st11" d="M282,392c0,4.6,5,11.5,7.9,14.8c3.9,4.4,8.9,7.9,14.5,9.7c5,1.6,7.4-0.8,4-5c-3.7-4.6-8.2-8.4-12.7-12
		c-2.1-1.6-10.4-10.2-13.2-8.6C282.2,391.1,282,391.5,282,392z"/>
</g>
<g id="Layer_1" class="st0">
	<g class="st4">
		<g>
			<path class="st9" d="M407,352.8c-13.6-3.9-39.9-1.9-51.6,4.9c-11.3,6.6-16.5,25.3-9.7,34c6.8,8.8,35,13.6,48.6,5.8
				C407.9,389.8,420.6,356.7,407,352.8z"/>
			<path class="st9" d="M262.5,167.7c-7.9-0.6-16.2,1.2-23.9,6c-7.9,4.9-15.1,11.1-23.9,14.2c-9.6,3.4-18,1.7-27.4-1.1
				c-9.3-2.8-19.7-3.6-29.5-3.3c-25.7,0.8-52.9,6.6-63.7,32.5c-8.6,20.5-7,44.1-6.8,65.8c0.2,34.9,1.8,72.9,14.1,106
				c5.5,14.7,17.2,25.5,30.6,33.1c21.3,12.1,46.7,17.2,70.9,19.1c19.9,1.5,38.3,4.3,53.3-11.8c25-26.8,24.6-75.6,21.4-109.4
				c-2.3-23.8-12.4-47,1.4-68.2c6.9-10.6,19.3-20.2,21.9-32.7C306.5,191.7,286,169.4,262.5,167.7z M206.2,350.5
				c-14.4,5.1-31,3.6-44.3-3.9c-11.7-6.7-31.5-27.9-26.3-43.4c4-11.7,50.6-0.5,74,11.6c7,3.6,11.9,7.3,13,10.6
				C226.7,337.6,216.6,346.7,206.2,350.5z"/>
		</g>
		<path class="st11" d="M87.4,281.9c0.7,29.1,1.2,56.3,7.3,84.8c4.3,20.1,11.5,37.2,28.9,49.1c23.3,16.1,50.9,26,79.1,28.2
			c15.1,1.2,31.1,0,44-8c12.1-7.5,20.2-20.2,24.9-33.6c4.6-13.4,6.2-27.7,7.7-41.9c-2.3,21.7-14.5,59.7-38.6,66.1
			c-30,8-75.5,1.5-103.1-11.8C97.5,395.5,95.2,321.1,87.4,281.9z"/>
		<path class="st10" d="M113.2,205c-3.1,3.1-17.5,15.6-10.4,19.8c3.1,1.8,7.2-1.5,9.3-3.5c3.1-2.9,16.4-15.7,13.6-20.7
			C123.7,196.9,115.3,202.9,113.2,205z"/>
		<path class="st10" d="M357.7,362c-2.4,2.1-8,5.9-8.5,9.2c-0.7,4.8,11.9-1.9,13.1-2.7C370,362.5,366.1,354.5,357.7,362z"/>
		<circle class="st10" cx="132.6" cy="198.6" r="1.9"/>
		<g>
			<polygon class="st15" points="274,174 295,195.1 295,225.1 274,246.2 244.4,246.2 223.4,225.1 223.4,195.1 244.4,174 			"/>
			<polygon class="st16" points="241.4,233.9 264.5,181.2 252.8,180.8 233.6,202.9 230.1,222.3 			"/>
			<polygon class="st17" points="274,174 247.1,180.8 230.1,197.3 223.4,195.1 244.4,174 			"/>
			<polygon class="st16" points="252.5,239.3 277.1,186.6 284.5,194.2 260.2,239.3 			"/>
			<polygon class="st17" points="223.4,225.1 230.1,222.3 244.4,246.2 			"/>
			<polygon class="st17" points="223.4,195.1 230.1,222.3 223.4,225.1 			"/>
			<g>
				<polygon class="st18" points="274,174 295,195.1 295,225.1 274,246.2 244.4,246.2 223.4,225.1 223.4,195.1 244.4,174 				"/>
				<polygon class="st18" points="271.2,180.8 288.3,197.9 288.3,222.3 271.2,239.5 247.1,239.5 230.1,222.3 230.1,197.9 
					247.1,180.8 				"/>
				<line class="st18" x1="244.4" y1="174" x2="247.1" y2="180.8"/>
				<line class="st18" x1="271.2" y1="180.8" x2="274" y2="174"/>
				<line class="st18" x1="288.3" y1="197.9" x2="295" y2="195.1"/>
				<line class="st18" x1="288.3" y1="222.3" x2="295" y2="225.1"/>
				<path class="st18" d="M274,246.2c0,0-2.8-6.6-2.8-6.8"/>
				<line class="st18" x1="247.1" y1="239.5" x2="244.4" y2="246.2"/>
				<line class="st19" x1="230.1" y1="222.3" x2="223.4" y2="225.1"/>
				<line class="st18" x1="230.1" y1="197.9" x2="223.4" y2="195.1"/>
			</g>
		</g>
		<path class="st10" d="M125.3,297.1c2.4-12.4,14.5-19.3,26.6-16.7c3,0.6,13.6,2.3,14.2,6.2c0.6,4.4-7.8,4.8-10.6,5
			c-11.2,0.5-18.1,0.4-25.9,9c-0.7,0.8-2,1.3-2.9,0.8C125.2,300.5,124.9,299,125.3,297.1z"/>
		<path class="st11" d="M345.7,391.7c0,0,6.8,11.2,42.3,10.2c18.1-0.5,24.2-32.4,24.2-32.4c-8.3,15.1-22.1,25-36.9,26.7
			C365.7,397.3,354.4,396.3,345.7,391.7z"/>
		<path class="st10" d="M263.3,320.8c-8.7,12.8-13.8,28.8-18.6,43.3c-3.2,9.5-7.6,18.9-8.5,29c-1,11.5,8.4,24.4,20.8,14.9
			c13.5-10.4,16.1-39,15.7-54.5c-0.2-6.7,2.2-31.9-4.4-36.4C267.2,316.2,265.4,317.7,263.3,320.8z"/>
	</g>
</g>
</svg>
