<?xml version="1.0" encoding="utf-8"?>
<!-- Generator: Adobe Illustrator 20.0.0, SVG Export Plug-In . SVG Version: 6.00 Build 0)  -->
<svg version="1.1" id="Layer_1" xmlns="http://www.w3.org/2000/svg" xmlns:xlink="http://www.w3.org/1999/xlink" x="0px" y="0px"
	 viewBox="0 0 181.5 153.6" style="enable-background:new 0 0 181.5 153.6;" xml:space="preserve">
<style type="text/css">
	.st0{fill:#FCD0F4;stroke:#7E678C;stroke-miterlimit:10;}
	.st1{opacity:0.4;fill:#FFFEE9;}
	.st2{opacity:0.4;fill:#CC5C7E;}
	.st3{fill:none;stroke:#7E678C;stroke-miterlimit:10;}
	.st4{fill:none;stroke:#A7CFE2;stroke-miterlimit:10;}
</style>
<g>
	<g>
		<path class="st0" d="M24.5,8.1c0,0,11.3-10,26.3,0.2s28.5,10.5,47.9,13.8s31.8,14.4,40.7,30.5s15.8,47.6,5.9,65.1
			s-23.1,15.1-25.8,19c-2.8,3.8-4.2,13.7-5.3,8.6c-1.1-5.1,0.6-15.5-1.7-21.3c-4.5-11.3-17.1-21.6-27.9-26.6c-2-0.9-4.1-1.7-6.1-2.4
			C59.9,88.2,36.1,82,27.4,61.8C16.8,37.3,18.2,25.9,24.5,8.1z"/>
		<path class="st1" d="M28.6,14.3c0.7-3.2,3.3-5.4,8.7-5.6C50.9,8.3,53,13.2,58.6,19.9s20.2,6.1,25,5.6s10.7,3.4,9.9,13.9
			C92.7,50,78.8,69.3,66.9,61.8C56.2,55.1,45,47.2,37.2,36.9C33.1,31.4,27.1,20.8,28.6,14.3z"/>
		<path class="st2" d="M145.4,117.7c9.9-17.5,3.1-49.1-5.9-65.1c-5.2-9.3-11.6-16.9-19.8-22.4c7.6,6.9,17.1,18.7,21.6,37.3
			c5,20.8,2.4,32.2-4.4,41.5s-9.6,9.7-16.2,3.6s-17.9-10.5-32-19.1s-34-20.1-51.8-37.4C23.2,42.8,22.6,22.1,24.5,8.1c0,0,0,0,0,0
			c-6.3,17.8-7.8,29.2,2.8,53.7C36.1,82,59.9,88.2,78.7,94.9c2.1,0.7,4.1,1.5,6.1,2.4c10.8,5,23.4,15.3,27.9,26.6
			c2.3,5.7,0.6,16.2,1.7,21.3c1.1,5.1,2.5-4.7,5.3-8.6C122.4,132.8,135.5,135.2,145.4,117.7z"/>
		<path class="st3" d="M28.6,46.1c0,0,7.8,13.9,31.3,29.7c24,16.1,49,28.4,55.8,32.7c6.9,4.4-4,22.8,2,25.6"/>
		<path class="st3" d="M55.8,15.1c0,0,1.4,3.8,5.6,6.7s10.1,3.8,10.1,3.8"/>
	</g>
	<path class="st4" d="M10.1,36c-1.7,16.3,3.3,33.1,13.5,45.9"/>
	<path class="st4" d="M5.8,60.9c2,6,4,12,6,18"/>
	<path class="st4" d="M163.3,87.1c4.8,13.5,2.3,29.3-6.3,40.7"/>
	<path class="st4" d="M171.8,108.9c-0.3,4.7-0.7,9.3-1,14"/>
</g>
</svg>
