<?xml version="1.0" encoding="utf-8"?>
<!-- Generator: Adobe Illustrator 20.0.0, SVG Export Plug-In . SVG Version: 6.00 Build 0)  -->
<svg version="1.1" id="Layer_1" xmlns="http://www.w3.org/2000/svg" xmlns:xlink="http://www.w3.org/1999/xlink" x="0px" y="0px"
	 viewBox="0 0 181.5 153.6" style="enable-background:new 0 0 181.5 153.6;" xml:space="preserve">
<style type="text/css">
	.st0{fill:#FCD0F4;stroke:#7E678C;stroke-miterlimit:10;}
	.st1{fill:none;stroke:#7E678C;stroke-miterlimit:10;}
	.st2{opacity:0.4;fill:#CC5C7E;}
	.st3{opacity:0.4;fill:#FFFEE9;}
	.st4{fill:none;stroke:#A7CFE2;stroke-miterlimit:10;}
</style>
<g>
	<g>
		<path class="st0" d="M36.6,80.6c-0.1,11.5,6.2,23.8,13.3,31.9c11.6,13,22.8,17.7,38.2,12.1c15.4-5.6,30.3-20.8,36.6-31
			s11.5-24.9,11.5-24.9s5-1.9,9.9-3.9s5.9-2.7,6.5-11.5c0.6-8.8,1.6-13.7-2.1-15.9s-4.8,0.2-7,5.2c-2.2,4.9-5.5,15.2-16.8,17.6
			c-11.3,2.4-18.2,0.5-29.1-1.3c-11.6-2-23-7.1-35-6.1c-10.7,0.9-21,9.3-24.6,19.3C37.1,74.7,36.6,77.6,36.6,80.6z"/>
		<path class="st1" d="M137.1,63.4c1.4-3.2,8.6-24.7,11.7-24.6"/>
		<path class="st2" d="M148.2,36.4c-3.4,5.1-6.5,13.6-7.9,16.6c-0.8,1.9-2.6,8.7-4.3,15.8c0.1-0.2,0.1-0.2,0.1-0.2s5-1.9,9.9-3.9
			c5-1.9,5.9-2.7,6.5-11.5c0.6-8.8,1.6-13.7-2.1-15.9C149.7,36.7,148.9,36.5,148.2,36.4z"/>
		<path class="st3" d="M70.6,123.5c-4.6-1.3-8.7-4.5-11.5-9.7c-4.9-8.9,4.6-13.1,11.8-14.9c10-2.5,20.3-3.4,30.3-6
			c9.6-2.5,14.7,0,12.1,5.9c-4.6,10.6-16.1,19-26.5,23.3C81.1,124.4,75.5,125,70.6,123.5z"/>
		<path class="st1" d="M63.5,114.1c2.4,2.4,6.2,6.4,10.1,5.1c3.3-1.1,3.1-5.2,7-5.5c6.5-0.5-1.8,12.8,19.8-0.8"/>
	</g>
	<path class="st4" d="M115.3,123.2c8.7-4.8,19.5-13.6,23.8-22.9c5.1-11,5.1-10.2,5.1-10.2"/>
	<path class="st4" d="M131.5,119c4.5-2.8,9.7-6.9,11.9-11.9"/>
	<path class="st4" d="M27.8,62.9C33.9,53,42.9,45,53.3,39.9"/>
	<path class="st4" d="M21.6,63.6c4.2-9.5,11.1-17.9,19.8-23.6"/>
</g>
</svg>
