<?xml version="1.0" encoding="utf-8"?>
<!-- Generator: Adobe Illustrator 20.0.0, SVG Export Plug-In . SVG Version: 6.00 Build 0)  -->
<svg version="1.1" id="Layer_1" xmlns="http://www.w3.org/2000/svg" xmlns:xlink="http://www.w3.org/1999/xlink" x="0px" y="0px"
	 viewBox="0 0 690.4 690.4" style="enable-background:new 0 0 690.4 690.4;" xml:space="preserve">
<style type="text/css">
	.st0{opacity:0.5;}
	.st1{fill:#EF65B4;}
	.st2{fill:#71C8D1;}
	.st3{fill:#9EE5D1;}
	.st4{fill:#F9F8D4;}
	.st5{fill:#FAC5BF;}
	.st6{fill:#7E678C;}
	.st7{fill:#FFEBFF;}
	.st8{fill:#54465B;}
	.st9{opacity:0.3;}
	.st10{fill:#FCF5FC;}
	.st11{fill:#FFFFFF;}
	.st12{fill:#A7CFE2;}
	.st13{opacity:0.6;}
</style>
<g>
	<g>
		<g>
			<g class="st0">
				<path class="st1" d="M573.6,197.6c18-12.4,35.3-25.7,52.3-39.3c21.7-17.3,50.5-45.3,54.5-65.5c2.2-11-4-16.6-15.4-12.6
					c-1.8,0.6-3.7,1.3-5.5,1.9c-40.4,14.3-80.6,29.1-120.1,45.6L573.6,197.6z"/>
			</g>
			<g class="st0">
				<path class="st2" d="M512.5,139.4l-1.1,93.3c10.6-4.2,20.8-9.4,31-15.3c22.6-13.2,43.9-28.4,64.6-44.3
					c-14.9-17.1-33.2-37.6-47.5-53.6c-14.3,5.7-28.5,11.7-42.6,17.9C515.5,138,514,138.7,512.5,139.4z"/>
			</g>
			<g class="st0">
				<path class="st3" d="M426.3,186.7l11.1,59.8c10.4-0.9,20.8-1.5,30.5-2.6c20.9-2.5,39.8-8.7,58.1-17.7l-2.3-91.8
					c-2.3,1-4.6,2-6.8,3C485.6,151.2,454.2,166.5,426.3,186.7z"/>
			</g>
			<g class="st0">
				<path class="st4" d="M446.7,173.1c-15.5,9.5-30.2,20.2-43.7,32.5c-14.2,13-26.6,27.9-37.9,43.4l18.7,10.1c5-2.6,10-4.7,14.5-6.1
					c21.5-6.7,47.4-6.5,69.7-9.2c6.9-0.8,13.6-2,20.1-3.6L446.7,173.1z"/>
			</g>
			<g class="st0">
				<path class="st5" d="M382.8,226.5c-7.3,8.5-14.1,17.4-20.6,26.5c-5.8,8.1-11.3,16.5-17.1,24.7c-2.4,3.4-4.8,6.6-7.5,9.7
					c-2.2,2.6-5.4,5.8-5.3,9.5c0.3,15.1,15.4-8.6,22.3-17c6.9-8.3,28.5-22.2,43.8-27c1.4-0.4,2.8-0.8,4.3-1.2L382.8,226.5z"/>
			</g>
		</g>
		<g>
			<path class="st6" d="M333.7,302.4c-0.2,0-0.5,0-0.7-0.1c-1.4-0.5-2.2-2.2-2.2-5.4l0,0c-0.1-3.6,2.7-6.8,4.9-9.3l0.6-0.6
				c2.4-2.7,4.8-5.8,7.5-9.6c2.8-4,5.6-8.1,8.3-12c2.8-4.2,5.8-8.5,8.8-12.7c14.2-19.9,27.2-35,40.9-47.5
				c33.6-30.7,74.7-51,114.1-68.3c49.2-21.7,99.7-40.1,142.6-55.3l5.5-1.9c5.7-2,10.5-1.7,13.4,0.8s3.9,6.9,2.8,12.5
				c-1.8,9.3-8.8,20.7-20.8,34.2c-12.4,14-26.6,25.9-34,31.7c-25.4,20.3-53.2,41.5-83.5,59.1c-26,15.1-49.8,23.6-74.7,26.5
				c-6.7,0.8-13.5,1.3-20.8,1.9c-16.6,1.3-33.8,2.6-48.8,7.3c-15.6,4.8-36.9,18.8-43.5,26.7c-1.3,1.5-2.9,3.7-4.5,5.9
				C342.8,295.4,337.2,302.4,333.7,302.4z M332.1,296.9c0.1,2.5,0.5,4,1.4,4.2c2.8,0.9,10.6-9.4,15.2-15.6c1.7-2.2,3.3-4.4,4.6-5.9
				c6.7-8.1,28.3-22.3,44.1-27.2c15.1-4.7,32.4-6,49.1-7.3c7.2-0.6,14.1-1.1,20.7-1.9c24.8-2.9,48.3-11.3,74.2-26.3
				c30.3-17.6,58-38.8,83.4-59c23.8-19,50.5-46,54.3-65.1c1-5.1,0.2-9.1-2.4-11.3c-2.6-2.2-6.9-2.5-12.2-0.6l-5.5,1.9
				C616.1,98,565.6,116.4,516.5,138c-39.3,17.3-80.3,37.6-113.8,68.1c-13.7,12.4-26.6,27.4-40.8,47.3c-3,4.2-5.9,8.5-8.8,12.6
				c-2.7,4-5.5,8.1-8.3,12s-5.2,7-7.6,9.7l-0.6,0.6C334.6,290.8,332,293.8,332.1,296.9L332.1,296.9z"/>
		</g>
		<g>
			<path class="st6" d="M344.3,287.3h-0.1c-0.6-0.1-1.1-0.4-1.3-0.9c-1.1-2.6,4.3-10.3,10.2-18.4c0.6-0.9,1.1-1.5,1.3-1.8l0,0
				c1.8-2.8,3.8-5.6,6-8.7c7-9.7,13.1-17.8,19.9-25.9c8.8-10.5,19.4-21,30.7-30.4c17.8-14.7,38.1-28.4,57.1-38.6
				c14.6-7.8,28.9-13.9,44.1-20.4c6-2.6,12.2-5.2,18.3-7.9c9.5-4.2,130-53.8,141.5-53.8c0.2,0,0.3,0,0.4,0c1.4,0.3,2.1,0.9,2.2,1.8
				c0.2,1.5-1.1,4.5-15,13.1c-7.6,4.7-18.1,10.5-28.1,15.5c-13.2,6.6-55.6,22.8-89.7,35.8c-23.9,9.1-44.5,17-50.2,19.6
				c-41.2,19.4-74.3,41.4-101.1,67.1c-3.3,3.2-6.4,6.8-9.5,10.2c-1.6,1.8-3.2,3.7-4.9,5.5c-3.3,3.6-16.6,19.4-19.7,23.8
				c-0.3,0.4-0.7,1-1.3,1.8C348.6,284,345.8,287.3,344.3,287.3z M671.8,81.7c-10.2,0-127.8,48-140.8,53.7
				c-6.2,2.7-12.4,5.4-18.4,7.9c-15.1,6.5-29.4,12.6-44,20.3c-19,10.1-39.2,23.8-56.9,38.5c-11.2,9.3-21.8,19.8-30.6,30.2
				c-6.8,8.1-12.8,16.2-19.9,25.9c-2.2,3-4.1,5.8-5.9,8.6c-0.2,0.3-0.6,0.9-1.3,1.8c-7.3,9.9-10.7,15.6-10,17.1
				c0,0.1,0.1,0.1,0.3,0.2c1-0.1,4.3-4.2,9.8-12.1c0.6-0.8,1-1.4,1.3-1.8c3.2-4.3,16.5-20.3,19.8-23.9c1.6-1.8,3.3-3.7,4.9-5.5
				c3-3.5,6.2-7.1,9.5-10.3c26.9-25.9,60.1-47.9,101.5-67.4c5.7-2.7,26.4-10.6,50.3-19.7c34.1-13,76.5-29.2,89.6-35.7
				c21.2-10.6,42.9-23.7,42.4-27.2c-0.1-0.4-0.8-0.6-1.2-0.7C672.1,81.7,672,81.7,671.8,81.7z"/>
		</g>
		<g>
			<path class="st6" d="M371.1,260.8c-0.7,0-1.3-0.1-1.6-0.4l0,0c-0.4-0.3-1-0.8,2.7-5.3c11-13.2,24-24.8,39.8-35.4
				c29.6-19.9,63.6-33.7,113.4-46.3c35.5-9,52.6-3.3,59.6,0.9c3.2,1.9,4.9,3.9,5.2,5c0.8,3.2-3.7,5.9-7.3,8.1
				c-0.6,0.4-1.2,0.7-1.8,1.1c-5,3.2-10.1,6.4-15.1,9.5l-1.5,0.9c-1.3,0.8-2.7,1.7-4,2.5c-15.1,9.4-29.3,18.4-45.9,24.8
				c-16.7,6.5-35.3,11.1-55.2,13.7c-5.6,0.7-11.4,1.3-17,1.8c-7.2,0.7-14.6,1.4-21.8,2.5c-14.3,2.2-31.2,8.4-39.4,13.2
				C380.8,257.7,374.5,260.8,371.1,260.8z M370.6,259.5c1.6,0.4,7.9-1.9,10.3-3.2c8.2-4.8,25.3-11,39.8-13.3
				c7.2-1.1,14.7-1.9,21.8-2.5c5.6-0.5,11.3-1.1,16.9-1.8c19.8-2.6,38.3-7.2,54.9-13.6c16.4-6.3,30.6-15.2,45.6-24.6
				c1.3-0.8,2.7-1.7,4-2.5l1.5-0.9c5-3.1,10.1-6.3,15.1-9.5c0.5-0.3,1.1-0.7,1.8-1.1c2.9-1.7,7.3-4.4,6.7-6.7
				c-0.2-0.7-1.6-2.5-4.6-4.3c-16.5-9.9-46.5-3.8-58.6-0.7c-49.7,12.6-83.5,26.4-113,46.1c-15.7,10.5-28.6,22-39.5,35.2
				C372,257.3,370.9,258.8,370.6,259.5z M370.3,259.4L370.3,259.4L370.3,259.4L370.3,259.4z"/>
		</g>
		<g>
			<path class="st6" d="M551.8,156.6c-4.6,0-9.1-0.1-13.6-0.1c-1,0-3.8-0.1-4.2-1.8c-0.4-1.8,2.5-3.8,4.5-4.7c2.4-1,7-2.9,9.6-3.7
				c6.4-2.5,12.8-4.9,18.9-7.2c20.5-7.8,39.9-15.1,60.1-24.7c1.5-0.7,2.9-1.4,4.4-2.1c13.2-6.2,26.9-12.6,37.9-22
				c0.1-0.1,0.3-0.3,0.6-0.5c2.5-2.3,5.1-4.4,6.9-4.1c0.6,0.1,1.1,0.5,1.4,1.1c1.5,2.9-2.6,12.2-6.6,19.2
				c-5.3,9.3-16.9,21.9-26.4,28.7C618.3,153.5,584.9,156.6,551.8,156.6z M676.4,86.9c-1.5,0-4.6,2.8-5.6,3.8
				c-0.3,0.2-0.5,0.4-0.6,0.6c-11.1,9.5-24.9,15.9-38.2,22.2c-1.5,0.7-2.9,1.4-4.4,2.1c-20.3,9.6-39.7,17-60.2,24.7
				c-6.2,2.3-12.5,4.8-18.9,7.2h-0.1c-2.5,0.7-7.1,2.6-9.4,3.6c-2.2,1-3.9,2.6-3.8,3.3c0.1,0.4,0.9,0.8,3,0.8
				c37.1,0.7,75.9-0.4,106.2-21.7c9.4-6.6,20.9-19,26.1-28.2c5.3-9.5,7.4-16.4,6.5-18c-0.1-0.3-0.3-0.4-0.4-0.4
				C676.6,86.9,676.5,86.9,676.4,86.9z"/>
		</g>
		<g>
			<path class="st6" d="M529.2,159c-2.5,0-4.3-1.1-4.3-2.6s1.9-2.6,4.3-2.6c2.5,0,4.3,1.1,4.3,2.6S531.7,159,529.2,159z
				 M529.2,155.2c-1.9,0-3.1,0.8-3.1,1.3s1.2,1.3,3.1,1.3s3.1-0.8,3.1-1.3S531.1,155.2,529.2,155.2z"/>
		</g>
		<g>
			<path class="st6" d="M594,176.4c-1.7,0-3.3-0.4-4.8-1.4c-1.5-0.9-5.1-3.7-4.1-6.2l0,0c0.3-0.7,0.8-1.2,1.7-1.6
				c1.3-0.6,3.6-0.3,5.5,0c0.5,0.1,1,0.1,1.3,0.2c5.6,0.5,8.7,1.5,9.2,3.1c0.2,0.5,0.2,1.3-0.8,2.3
				C599.6,175.2,596.8,176.4,594,176.4z M586.3,169.3c-0.5,1.3,1.8,3.5,3.6,4.6c3.6,2.1,7.8,1.4,11.3-2.1c0.3-0.3,0.6-0.6,0.5-0.9
				c-0.3-0.7-2.6-1.7-8.1-2.2c-0.4,0-0.9-0.1-1.4-0.2c-1.5-0.2-3.8-0.5-4.8-0.1C586.7,168.7,586.4,169,586.3,169.3L586.3,169.3z"/>
		</g>
		<g>
			<path class="st6" d="M606.1,169.1c-2.4,0-4.3-1.4-4.3-3.1s1.9-3.1,4.3-3.1s4.3,1.4,4.3,3.1S608.5,169.1,606.1,169.1z
				 M606.1,164.2c-1.7,0-3.1,0.8-3.1,1.8s1.4,1.8,3.1,1.8c1.7,0,3.1-0.8,3.1-1.8S607.8,164.2,606.1,164.2z"/>
		</g>
		<g>
			<path class="st6" d="M674.5,93.1c-1.2,0-2.1-1-2.1-2.1c0-1.2,1-2.1,2.1-2.1c1.2,0,2.1,1,2.1,2.1S675.7,93.1,674.5,93.1z
				 M674.5,90.1c-0.5,0-0.9,0.4-0.9,0.9s0.4,0.9,0.9,0.9s0.9-0.4,0.9-0.9C675.4,90.4,675,90.1,674.5,90.1z"/>
		</g>
		<g>
			<path class="st6" d="M668.3,87.1c-1.3,0-2.3-1-2.3-2.1c0-1.2,1-2.1,2.3-2.1s2.3,1,2.3,2.1S669.6,87.1,668.3,87.1z M668.3,84
				c-0.6,0-1,0.4-1,0.9s0.4,0.9,1,0.9s1-0.4,1-0.9S668.9,84,668.3,84z"/>
		</g>
		<g>
			<path class="st6" d="M335.1,298.5c-0.1,0-0.2,0-0.3,0c-0.9-0.2-1.5-1-1.6-2.5c-0.2-2.2,3.4-7.7,6.2-8.8l0,0
				c1.1-0.4,2.1-0.2,2.7,0.7c0.7,0.9,0.8,2.3,0.2,3.6C341.9,292.4,337.7,298.5,335.1,298.5z M339.8,288.4c-2.3,0.9-5.5,6-5.4,7.5
				c0.1,0.8,0.3,1.3,0.5,1.4c1.4,0.3,5.3-4.6,6.1-6.3c0.3-0.7,0.4-1.6-0.1-2.3C340.9,288.4,340.6,288.1,339.8,288.4L339.8,288.4z"/>
		</g>
		<g>
			<path class="st6" d="M486.5,224.7c-2.1,0-4.2-0.1-6.2-0.2c-6.5-0.4-50.1-4-52.6-8.1c-0.2-0.2-0.3-0.6-0.1-1.2
				c0.3-0.9,1.2-3.7,26.8-14.7c13.5-5.8,27.6-11.2,30.3-12.1c1.9-0.7,3.8-1.3,5.7-2c19.6-6.9,35.1-12.3,58.1-14.5
				c17.4-1.6,31.3,2,35.7,5c1.4,0.9,2,2,1.9,3c-0.1,1.9-2.7,3.2-4.6,4.1l-0.3,0.1c-9.3,4.7-18.4,10.7-27.1,16.5
				c-4,2.7-8.1,5.4-12.1,7.9C525.3,219.1,505.9,224.7,486.5,224.7z M454.5,201.1l0.3,0.6c-22.6,9.7-25.7,13-26,13.9v0.1
				c1.6,2.6,34.5,6.4,51.6,7.5c21.1,1.3,42.7-4.2,60.8-15.6c4-2.5,8.1-5.3,12.1-7.9c8.8-5.9,17.9-11.9,27.3-16.6l0.3-0.1
				c1.4-0.7,3.8-1.9,3.9-3.1c0.1-0.7-0.7-1.4-1.4-1.8c-4.2-3-17.8-6.4-34.9-4.8c-22.8,2.1-38.3,7.5-57.8,14.4
				c-1.9,0.7-3.8,1.3-5.7,2c-2.6,0.9-16.7,6.3-30.2,12.1L454.5,201.1z"/>
		</g>
		<g>
			<path class="st6" d="M472,170.4c-0.2,0-0.4,0-0.5-0.1c-1.4-0.4-2.3-1.2-2.5-2.2c-0.2-1.1,0.5-2.2,1.7-2.9l0,0
				c6.4-3.8,13.7-7.1,21.2-10.5c7.3-3.3,14.9-6.5,22.1-9.4c16.6-6.8,100.2-40.8,112.4-45.9c2-0.8,4.1-1.8,6.4-2.7
				c16.3-7,29-12.2,31.9-10.8c0.6,0.3,0.7,0.8,0.7,1.1c0,1.8-4.7,4.6-14.7,9.9c-3.2,1.7-6.2,3.3-8.2,4.5c-0.1,0-0.2,0.1-0.2,0.1
				h-0.1c-31.7,17-71.9,31.6-104.2,43.3c-12.6,4.6-24.4,8.9-34.3,12.8c-3.9,1.6-8.7,3.7-13.3,5.7C480.8,167.6,474.4,170.4,472,170.4
				z M471.4,166.3c-0.7,0.4-1.1,1-1.1,1.6c0.1,0.5,0.6,0.9,1.5,1.2c1.6,0.4,10.5-3.5,18.3-7c4.6-2,9.3-4.1,13.3-5.7
				c9.9-3.9,21.7-8.2,34.3-12.8c32.3-11.7,72.4-26.3,104-43.3h0.1c0.1,0,0.1-0.1,0.2-0.1c2-1.2,5-2.9,8.3-4.6
				c5.1-2.7,13.5-7.2,14-8.7l0,0c-2.5-1.3-20.2,6.3-30.8,10.8c-2.3,1-4.5,1.9-6.4,2.7c-12.2,5.1-95.8,39.2-112.4,46
				c-7.2,2.9-14.9,6.1-22.1,9.4C485,159.3,477.8,162.6,471.4,166.3L471.4,166.3z M664.3,87L664.3,87L664.3,87z"/>
		</g>
		<g>
			<path class="st6" d="M410,231.2c-0.9,0-1.6-0.1-2.2-0.5c-0.4-0.3-0.7-0.7-0.8-1.2c-0.7-3.5,7.9-8.6,12.5-10.4
				c5.3-2.1,19.2,1,22.4,3.7l0,0c1.1,1,0.7,1.9,0.5,2.2c-0.8,1.3-4.1,1.7-5.4,1.8c-1.5,0.1-2.7,0.1-3.9,0.1c-2.7,0-4.9,0-10.2,1.4
				c-1,0.3-2.1,0.6-3.2,0.9C416,230.3,412.4,231.2,410,231.2z M424.3,219.7c-1.7,0-3.2,0.2-4.3,0.6c-6.6,2.6-12.1,7.2-11.7,9
				c0,0.2,0.1,0.3,0.3,0.4c1.4,0.9,6.6-0.5,10.7-1.6c1.1-0.3,2.2-0.6,3.3-0.9c5.4-1.4,7.9-1.4,10.5-1.4c1.1,0,2.3,0,3.8-0.1
				c2.2-0.2,4.1-0.7,4.4-1.2c0.1-0.1,0.1-0.2-0.3-0.6l0,0C438.9,222,430.2,219.7,424.3,219.7z"/>
		</g>
		<g>
			<path class="st6" d="M399.4,238c-0.8,0-1.3-0.3-1.6-0.5c-0.6-0.5-0.8-1.3-0.6-2.2l0,0c0.3-1.9,2-3.8,3.5-4.8c0.8-0.5,2-1.1,3-0.9
				c1.4,0.3,2.7,0.7,3.2,1.7c0.3,0.5,0.2,1.2-0.1,1.8c-0.9,1.9-3.7,4-6.1,4.6C400.2,237.9,399.8,238,399.4,238z M403.2,230.8
				c-0.5,0-1.1,0.3-1.8,0.7c-1.5,1-2.7,2.7-3,3.9l0,0c0,0.2-0.1,0.8,0.2,1.1c0.3,0.3,0.9,0.3,1.6,0.1c2-0.6,4.6-2.4,5.3-4
				c0.2-0.5,0.1-0.6,0.1-0.7c-0.3-0.6-1.8-0.9-2.3-1C403.4,230.8,403.3,230.8,403.2,230.8z"/>
		</g>
		<g>
			<path class="st6" d="M394.6,241.5c-0.2,0-0.3,0-0.5,0c-1.4-0.3-2.3-1.6-2.1-3c0.1-0.7,0.5-1.3,1.1-1.7s1.3-0.5,1.9-0.4
				c0.7,0.1,1.3,0.5,1.7,1.1c0.4,0.6,0.5,1.3,0.4,1.9C397,240.6,395.9,241.5,394.6,241.5z M394.6,237.6c-0.3,0-0.5,0.1-0.7,0.2
				c-0.3,0.2-0.5,0.5-0.5,0.8c-0.1,0.7,0.3,1.4,1.1,1.5c0.7,0.1,1.4-0.3,1.5-1.1c0.1-0.3,0-0.7-0.2-1s-0.5-0.5-0.8-0.5
				C394.8,237.6,394.7,237.6,394.6,237.6z"/>
		</g>
		<g>
			<path class="st6" d="M464.6,173.8c-1.2,0-2.1-0.5-2.4-1.3c-0.2-0.6,0-1.4,0.5-2s1.2-1,2-1.3s1.7-0.4,2.4-0.2
				c0.8,0.2,1.4,0.6,1.7,1.2l0,0c0.4,1.2-0.7,2.7-2.6,3.3C465.7,173.7,465.1,173.8,464.6,173.8z M466.5,170.2
				c-0.4,0-0.8,0.1-1.3,0.2c-0.6,0.2-1.2,0.5-1.5,0.9c-0.2,0.3-0.4,0.6-0.3,0.7c0.1,0.4,1.1,0.7,2.4,0.2c1.3-0.4,1.9-1.3,1.8-1.7
				l0,0c-0.1-0.2-0.3-0.3-0.7-0.4C466.8,170.2,466.6,170.2,466.5,170.2z"/>
		</g>
		<g>
			<path class="st6" d="M613,164.8c-1.5,0-2.7-0.9-2.7-2.1s1.2-2.1,2.7-2.1s2.7,0.9,2.7,2.1S614.5,164.8,613,164.8z M613,161.9
				c-0.8,0-1.4,0.4-1.4,0.8s0.6,0.8,1.4,0.8c0.8,0,1.4-0.4,1.4-0.8S613.8,161.9,613,161.9z"/>
		</g>
		<g>
			<path class="st6" d="M447.5,225.9c-1.9,0-3.9-0.6-3.9-2s2-2,3.9-2s3.9,0.6,3.9,2C451.4,225.3,449.4,225.9,447.5,225.9z
				 M447.5,223.3c-1.7,0-2.6,0.5-2.6,0.7c0.1,0.2,1,0.7,2.6,0.7s2.5-0.5,2.6-0.7C450,223.7,449.1,223.3,447.5,223.3z"/>
		</g>
		<g>
			<path class="st6" d="M611.6,141.8c-5.5,0-11.1-0.5-16.8-1.6c-0.1,0-7.5-1.7-7.9-4.3c-0.1-0.8,0.4-1.6,1.6-2.2
				c3.2-1.7,5.6-2.7,8.5-3.9c1.9-0.7,3.8-1.5,5.7-2.2c3.1-1.2,6.2-2.4,9.3-3.7c5.7-2.4,11.8-5,17.8-7.8l0,0
				c7.5-3.4,13.9-6.7,19.7-10.1c1.6-0.9,3.6-2.1,5.7-3.4c9.3-5.7,12.6-7.5,13.7-6.8c0.7,0.4,1.2,1.1,1.4,2c0.6,2.5-1.3,6.8-5.6,13.1
				l-0.2,0.3c-3.8,5.6-8.7,10.9-14.6,15.8c-11.3,9.4-24.1,14.5-36.8,14.7C612.6,141.8,612.1,141.8,611.6,141.8z M668.3,97.1
				c-1.4,0-8,4-12.4,6.7c-2.1,1.3-4.1,2.5-5.7,3.4c-5.8,3.4-12.3,6.7-19.8,10.1l0,0c-6,2.8-12.2,5.4-17.9,7.8
				c-3.1,1.3-6.3,2.5-9.3,3.7c-1.9,0.7-3.8,1.4-5.7,2.2c-2.9,1.1-5.3,2.2-8.4,3.8c-0.6,0.3-0.9,0.6-0.9,0.8c0.2,1.1,4.7,2.8,6.9,3.2
				c6.1,1.1,12.1,1.7,18,1.6c12.4-0.2,24.9-5.2,36-14.4c5.8-4.8,10.6-10,14.4-15.5l0.2-0.3c5.1-7.3,5.7-10.6,5.4-12.1
				C668.9,97.7,668.7,97.4,668.3,97.1L668.3,97.1z"/>
		</g>
		<g>
			<path class="st6" d="M523.4,211.7c-5.7,0-11.3-1.7-16.7-3.3c-1.4-0.4-2.9-0.9-4.4-1.3c-7.7-2.1-15.8-4.5-23.9-7.7
				c-0.5-0.2-2.2-0.9-2.2-2.2c0-1.7,2.6-3.1,5.1-4.2l0.3-0.1c4.4-2,9.2-3.6,13.4-5c7.7-2.5,17.9-5.6,24.6-7.6c9-2.6,16.4-4.4,25-5.5
				c7.2-0.9,15.9-1.4,24.8,1c1.8,0.5,5.9,1.9,6.4,4.4c0.3,1.2-0.3,2.5-1.8,3.6c-3.7,3.1-8.1,5.5-12.2,7.8c-3.8,2.1-7.7,4.2-11.1,6.9
				l-1.9,1.5c-6.4,5-13.1,10.3-21.4,11.5C526.1,211.6,524.8,211.7,523.4,211.7z M555.6,175.2c-3.7,0-7.3,0.3-10.8,0.8
				c-8.5,1-15.8,2.9-24.8,5.4c-6.7,1.9-16.9,5-24.5,7.6c-4.2,1.4-8.9,3-13.3,5l-0.3,0.1c-2.9,1.3-4.4,2.4-4.4,3
				c0,0.3,0.5,0.7,1.4,1.1c8,3.2,16.1,5.6,23.7,7.7c1.5,0.4,3,0.9,4.4,1.3c6.5,2,13.3,4,20.2,3c8-1.2,14.5-6.3,20.8-11.2l1.9-1.5
				c3.5-2.7,7.5-4.9,11.3-7c4.1-2.3,8.4-4.6,12-7.7c1-0.9,1.5-1.7,1.3-2.4c-0.3-1.2-2.4-2.6-5.5-3.4
				C564.4,175.6,559.9,175.2,555.6,175.2z"/>
		</g>
		<g>
			<path class="st6" d="M511.7,190.5c-2,0-3.7-0.2-4.4-1.2c-0.2-0.3-0.3-0.7-0.2-1c1-2.8,18.7-7.3,18.8-7.3h0.1
				c7.8-2,15.8-3.3,23.9-3.9c5.8-0.4,12.2-0.5,19.3,1.6c2,0.6,2.6,1.6,2.7,2.2c0.1,0.7-0.2,1.7-1.9,2.7c-3.6,2.2-9,3.1-13.3,3.9
				c-0.8,0.1-1.5,0.3-2.3,0.4c-7.7,1.4-15.6,1.8-23.2,2.1l-3,0.1c-4.7,0.2-9.3,0.4-13.9,0.4c-0.2,0-0.6,0-1,0
				C512.7,190.5,512.2,190.5,511.7,190.5z M508.4,188.7c0.7,0.7,3.6,0.6,4.9,0.5c0.4,0,0.8,0,1,0c4.6,0.1,9.2-0.1,13.8-0.4l3-0.1
				c7.6-0.4,15.4-0.8,23-2.1c0.7-0.1,1.5-0.3,2.3-0.4c4.2-0.7,9.5-1.6,12.9-3.7c0.9-0.5,1.3-1.1,1.3-1.5c0-0.3-0.5-0.8-1.8-1.2
				c-6.9-2.1-13.1-2-18.8-1.5c-8,0.6-16,1.9-23.7,3.9h-0.1C515.9,184.9,509,187.6,508.4,188.7z"/>
		</g>
		<g>
			<path class="st6" d="M512.3,171.9c-2.5,0-5.9-0.2-9-0.5c-7.9-0.8-8.6-2-8.9-2.3c-0.2-0.3-0.3-0.8-0.1-1.1c1.9-3.8,12.1-7,20.8-8
				l0,0c2.2-0.2,15.3,0,17.2,4.2c0.6,1.4,0,3-1.8,4.7c-3.1,2.9-8.7,2.9-13.2,2.9c-1.2,0-2.4,0-3.3,0.1
				C513.6,171.9,513,171.9,512.3,171.9z M495.5,168.4c1.2,1.3,13.5,2.5,18.5,2.2c1-0.1,2.2-0.1,3.4-0.1c4.3,0,9.6,0,12.3-2.6
				c1.4-1.3,1.9-2.4,1.5-3.2c-1.4-3.1-13.1-3.8-15.9-3.5l0,0C506.1,162.2,497.1,165.5,495.5,168.4z"/>
		</g>
		<g>
			<path class="st6" d="M537.3,168.8c-1,0-2.5-0.2-3.3-1.1c-0.5-0.5-0.7-1.1-0.6-1.8c0-0.4,0.1-0.7,0.3-1l0,0c0.8-1.4,2.8-1,4.3-0.8
				c0.3,0.1,0.6,0.1,0.8,0.1c1.6,0.2,2.7,1.1,2.7,2.2c0,0.5-0.3,2.1-3.8,2.3C537.5,168.8,537.4,168.8,537.3,168.8z M534.7,165.6
				c-0.1,0.1-0.1,0.3-0.1,0.5c0,0.3,0.1,0.6,0.3,0.8c0.5,0.5,1.8,0.8,2.7,0.7c1.9-0.1,2.6-0.7,2.6-1.1c0-0.3-0.5-0.8-1.6-0.9
				c-0.3,0-0.6-0.1-0.9-0.1C536.7,165.2,535.1,165,534.7,165.6L534.7,165.6z"/>
		</g>
		<g>
			<path class="st6" d="M424.8,200.1c-0.1,0-0.3,0-0.4,0c-0.6-0.1-1.1-0.6-1.5-1.4c-0.9-1.9,2.2-4.4,3.9-5.7
				c0.2-0.1,0.3-0.3,0.4-0.3c2.1-1.7,4.5-3.4,6.8-5c1-0.7,2.1-1.4,3.1-2.1c2.6-1.9,5.5-3.8,8.3-5.6c1.4-0.9,2.7-1.8,4-2.6
				c1.6-1.1,3.9-2.6,6.1-3.4c2.7-1.1,4.6-1,5.5,0.3c0.5,0.7,0.6,1.4,0.5,2.1c-0.4,1.7-2.6,3-6.2,5.1c-9.1,5.3-21.7,12.8-26.2,16.4
				C427.4,199,426,200.1,424.8,200.1z M458.6,174.3c-0.8,0-1.8,0.3-2.7,0.7c-2,0.8-4.3,2.3-5.8,3.3c-1.3,0.9-2.6,1.7-4,2.6
				c-2.8,1.8-5.7,3.7-8.3,5.6l0,0c-1,0.7-2,1.4-3.1,2.1c-2.3,1.6-4.7,3.2-6.7,4.9c-0.1,0.1-0.3,0.2-0.5,0.4
				c-2.7,2.1-3.8,3.5-3.5,4.2c0.3,0.6,0.5,0.6,0.6,0.7c0.7,0.2,2.3-1,3.6-2.1c4.6-3.6,17.2-11.1,26.3-16.5c3.1-1.8,5.3-3.2,5.6-4.3
				c0-0.2,0.1-0.5-0.3-1.1C459.7,174.4,459.2,174.3,458.6,174.3z"/>
		</g>
		<g>
			<path class="st6" d="M460.1,209.3c-0.3,0-0.7,0-1,0h-0.2c-1.7,0-5.1-0.1-5.5-2.1c-0.4-2.2,3.5-3.9,6.5-4.9h0.1
				c6.8-2.4,14.5-4.6,20.1-0.2c0.1,0.1,0.3,0.2,0.4,0.3c0.2,0.1,0.3,0.2,0.5,0.3c0.5,0.4,0.8,0.8,1.1,1.2c0.6,1,0.7,1.8,0.3,2.5
				c-1.1,2-5.5,2.2-10,2.3c-1.9,0-3.9,0.2-5.7,0.4C464.5,209.1,462.3,209.3,460.1,209.3z M472.2,200.7c-3.8,0-7.9,1.3-11.8,2.6
				l-0.1,0.1c-5.5,1.9-5.7,3.2-5.7,3.5c0.1,0.4,0.7,1,4.3,1.1h0.2c2.4,0.1,4.9-0.1,7.4-0.3c1.9-0.2,3.9-0.3,5.8-0.4
				c2.6,0,8.1-0.1,8.9-1.6c0.1-0.1,0.3-0.5-0.2-1.3c-0.2-0.3-0.4-0.6-0.8-0.8l0,0c-0.1-0.1-0.3-0.2-0.4-0.3
				c-0.2-0.1-0.3-0.2-0.5-0.3C477.3,201.3,474.8,200.7,472.2,200.7z"/>
		</g>
	</g>
	<g>
		<g>
			<g class="st0">
				<path class="st1" d="M539.2,140.5c14.4-16.4,27.8-33.6,41-51c16.7-22.1,37.8-56.4,36.6-77c-0.6-11.2-8-15.1-18-8.4
					c-1.6,1.1-3.2,2.2-4.8,3.2c-35.6,23.9-70.9,48.2-105.1,74L539.2,140.5z"/>
			</g>
			<g class="st0">
				<path class="st2" d="M465.7,99.2l22,90.7c9.2-6.7,17.9-14.2,26.3-22.5c18.7-18.3,35.5-38.3,51.7-58.9
					c-18.6-12.9-41.4-28.2-59.3-40.2c-12.4,9.1-24.7,18.3-36.8,27.8C468.2,97.1,467,98.2,465.7,99.2z"/>
			</g>
			<g class="st0">
				<path class="st3" d="M393.9,166.3l25.6,55.2c9.9-3.4,19.8-6.6,28.9-10.1c19.6-7.5,36.4-18.3,51.9-31.5l-24.9-88.4
					c-2,1.5-3.9,3-5.9,4.6C442.5,117.3,415.9,139.9,393.9,166.3z"/>
			</g>
			<g class="st0">
				<path class="st4" d="M410.2,148.1c-12.7,13.1-24.3,27-34.3,42.3c-10.6,16.1-18.9,33.6-26,51.4l20.7,5.2
					c4.2-3.7,8.5-7.1,12.5-9.5c19.2-11.8,44.3-18,65.3-26.1c6.5-2.5,12.7-5.3,18.6-8.5L410.2,148.1z"/>
			</g>
			<g class="st0">
				<path class="st5" d="M361.5,215.7c-5,10-9.4,20.3-13.4,30.7c-3.6,9.3-6.9,18.8-10.5,28.2c-1.5,3.8-3.1,7.6-4.9,11.3
					c-1.5,3.1-3.8,7-2.8,10.5c4.1,14.5,12.8-12.1,17.4-21.9s22.1-28.5,35.8-36.9c1.3-0.8,2.5-1.5,3.8-2.2L361.5,215.7z"/>
			</g>
		</g>
		<g>
			<path class="st6" d="M332.1,301.4H332c-1.5-0.1-2.7-1.6-3.5-4.7l0,0c-1-3.5,0.9-7.2,2.4-10.2l0.4-0.8c1.6-3.2,3.2-6.8,4.9-11.2
				c1.8-4.5,3.5-9.2,5.1-13.7c1.7-4.7,3.5-9.6,5.4-14.4c8.9-22.8,17.8-40.7,27.9-56.2c25-38,59.8-67.8,93.7-94.4
				C510.6,62.7,555,32.3,592.9,7l4.8-3.2c5-3.4,9.7-4.3,13.2-2.5c3.4,1.7,5.5,5.8,5.8,11.4c1.1,19.8-18.3,52.9-36.8,77.4
				c-19.6,25.9-41.3,53.3-66.3,77.9c-21.5,21.1-42.4,35.1-65.8,44.1c-6.3,2.4-12.8,4.6-19.7,6.9c-15.8,5.3-32.1,10.9-45.5,19.1
				c-13.9,8.5-31.2,27.3-35.5,36.7c-0.8,1.8-1.9,4.2-2.9,6.8C339.5,292.9,335.7,301.4,332.1,301.4z M329.7,296.4
				c0.7,2.4,1.5,3.7,2.4,3.8c0,0,0,0,0.1,0c3,0,7.9-11.8,10.8-18.9c1.1-2.6,2.1-5,3-6.9c4.5-9.5,22-28.6,36-37.2
				c13.5-8.3,29.9-13.8,45.8-19.2c6.9-2.3,13.4-4.5,19.6-6.9c23.3-8.9,44.1-22.9,65.4-43.8c25-24.5,46.6-51.9,66.2-77.8
				c18.4-24.2,37.6-57.1,36.5-76.5c-0.3-5.2-2.1-8.9-5.1-10.4c-3.1-1.5-7.3-0.7-11.9,2.4l-4.8,3.2c-37.8,25.3-82.2,55.6-124.5,88.7
				c-33.8,26.5-68.6,56.2-93.5,94.1c-10.1,15.4-18.9,33.2-27.8,55.9c-1.9,4.8-3.6,9.7-5.4,14.4c-1.6,4.5-3.4,9.2-5.1,13.7
				c-1.7,4.4-3.3,8-4.9,11.3l-0.4,0.8C330.6,289.9,328.9,293.3,329.7,296.4L329.7,296.4z"/>
		</g>
		<g>
			<path class="st6" d="M338.8,284.1c-0.5,0-0.9-0.2-1.2-0.6c-1.7-2.2,1.6-11.1,5.3-20.3c0.4-1,0.7-1.8,0.8-2l0,0
				c1.1-3.2,2.3-6.4,3.6-9.9c4.4-11.1,8.3-20.5,12.9-30.1c5.9-12.4,13.6-25.2,22.3-37c13.6-18.7,29.9-37,45.8-51.5
				c12.2-11.2,24.6-20.6,37.7-30.6c5.2-4,10.5-8,15.8-12.2C490.1,83.3,597.7,3.3,606,2.7c1.4-0.1,2.3,0.3,2.6,1.2
				c0.6,1.4,0,4.6-11.3,16.4c-6.2,6.4-15,14.6-23.4,21.9C562.8,51.8,525.6,78,495.8,99c-20.9,14.7-39,27.4-43.8,31.4
				c-35.2,29-61.8,58.4-81.4,90c-2.4,3.9-4.6,8.2-6.6,12.3c-1.1,2.2-2.2,4.4-3.4,6.6c-2.3,4.2-11.2,22.9-13.2,27.9
				c-0.2,0.4-0.4,1.2-0.8,2.1c-4.2,11-6.1,14.8-7.6,14.9C338.9,284.1,338.9,284.1,338.8,284.1z M344.9,261.5c-0.1,0.3-0.4,1-0.8,2.1
				c-4.6,11.4-6.5,17.8-5.5,19c0,0,0.1,0.1,0.3,0.1c0.9-0.3,3.1-5.1,6.5-14.1c0.3-0.9,0.6-1.6,0.8-2.1c2-5,11-23.8,13.3-28
				c1.2-2.1,2.3-4.4,3.4-6.5c2.1-4.1,4.2-8.4,6.7-12.3c19.7-31.7,46.4-61.3,81.7-90.3c4.9-4,22.9-16.7,43.9-31.5
				c29.8-21,66.9-47.1,78-56.7c20.5-17.7,35.6-33.9,34.4-36.9c-0.2-0.4-0.9-0.4-1.3-0.4c-7.4,0.5-112.2,78-123.5,86.9
				c-5.3,4.2-10.6,8.3-15.8,12.2c-13.1,10-25.4,19.4-37.6,30.6c-15.9,14.5-32.1,32.7-45.6,51.3c-8.6,11.8-16.3,24.5-22.2,36.8
				c-4.6,9.5-8.4,18.9-12.9,30C347.2,255.2,346,258.4,344.9,261.5L344.9,261.5z"/>
		</g>
		<g>
			<path class="st6" d="M357.7,251.9c-0.3,0-0.6-0.1-0.8-0.2l0,0c-0.5-0.2-1.2-0.6,1.3-5.8c7.4-15.5,17.1-30,29.8-44.1
				c23.8-26.6,53.3-48.4,98.5-72.9c32.2-17.5,50.2-16.2,58-13.9c3.6,1.1,5.7,2.6,6.3,3.6c1.6,2.9-2.1,6.6-5.1,9.6
				c-0.5,0.5-1,1-1.4,1.5c-4,4.4-8.2,8.8-12.3,13l-1.2,1.2c-1.1,1.1-2.2,2.3-3.3,3.4c-12.3,12.9-23.9,25.1-38.3,35.3
				c-14.6,10.4-31.5,19.4-50.1,26.9c-5.3,2.1-10.7,4.1-16,6c-6.8,2.4-13.8,5-20.5,7.8c-13.3,5.7-28.2,15.9-34.9,22.5
				C367.2,246.4,360.7,251.9,357.7,251.9z M357.8,250.6L357.8,250.6c1.7,0,7.2-3.7,9.1-5.6c6.8-6.6,21.8-17,35.3-22.7
				c6.7-2.9,13.7-5.4,20.5-7.9c5.3-1.9,10.7-3.9,15.9-6c18.5-7.4,35.3-16.4,49.8-26.8c14.3-10.2,25.9-22.3,38.1-35.2
				c1.1-1.1,2.2-2.3,3.3-3.4l1.2-1.2c4-4.2,8.2-8.6,12.3-13c0.4-0.5,0.9-1,1.5-1.5c2.4-2.4,6-6,4.8-8.1c-0.3-0.6-2.1-2-5.5-3
				c-18.4-5.5-46,7.8-57,13.8c-45.1,24.5-74.4,46.2-98.1,72.6c-12.6,14.1-22.3,28.4-29.6,43.8C358.6,248.1,357.9,249.9,357.8,250.6z
				"/>
		</g>
		<g>
			<path class="st6" d="M492.5,109.7c-0.9,0-1.9-0.2-2.3-1.1c-0.8-1.7,1.5-4.3,3.2-5.7c2-1.6,6.1-4.6,8.4-5.9
				c5.6-4,11.2-7.9,16.6-11.7c17.9-12.6,34.9-24.5,52.1-38.8c1.2-1,2.5-2.1,3.7-3.1c11.3-9.3,23-18.9,31.3-30.7
				c0.1-0.1,0.2-0.4,0.4-0.6c1.9-2.9,3.8-5.6,5.7-5.7c0.6,0,1.2,0.2,1.6,0.7c2.1,2.5,0.5,12.4-1.6,20.2
				c-2.8,10.3-10.9,25.4-18.6,34.3c-24.4,28.4-61.9,39.1-98.3,47.7C494.3,109.5,493.4,109.7,492.5,109.7z M611.8,7.8
				C611.8,7.8,611.7,7.8,611.8,7.8c-1.5,0.1-3.9,3.9-4.7,5.1c-0.2,0.3-0.4,0.5-0.5,0.7c-8.5,11.9-20.2,21.6-31.5,30.9
				c-1.3,1-2.5,2.1-3.7,3.1c-17.3,14.3-34.2,26.2-52.2,38.8c-5.4,3.8-11,7.7-16.6,11.7h-0.1c-2.2,1.3-6.2,4.2-8.2,5.8
				c-1.9,1.5-3.1,3.5-2.8,4.1c0.2,0.3,1.1,0.5,3.1,0.1c36.2-8.5,73.5-19.1,97.6-47.3c7.5-8.8,15.5-23.6,18.3-33.8
				c2.8-10.5,3.1-17.7,1.9-19.1C612.1,7.8,611.9,7.8,611.8,7.8z"/>
		</g>
		<g>
			<path class="st6" d="M484.9,114.3c-1.6,0-2.8-0.6-3-1.6c-0.4-1.4,1.2-2.9,3.6-3.5c1.1-0.3,2.1-0.3,3-0.1c1,0.2,1.7,0.8,1.9,1.5
				c0.4,1.4-1.2,2.9-3.6,3.5C486.1,114.2,485.5,114.3,484.9,114.3z M487.3,110.1c-0.5,0-1,0.1-1.5,0.2c-1.8,0.5-2.8,1.5-2.6,2
				c0.1,0.5,1.5,0.9,3.3,0.5c1.8-0.5,2.8-1.5,2.6-2c-0.1-0.2-0.4-0.5-0.9-0.6C487.9,110.2,487.6,110.1,487.3,110.1z"/>
		</g>
		<g>
			<path class="st6" d="M551.5,115.2c-0.9,0-1.8-0.1-2.7-0.4c-1.7-0.5-5.9-2.3-5.5-5c0.1-0.7,0.5-1.4,1.2-1.9
				c1.1-0.9,3.4-1.2,5.3-1.4c0.5-0.1,1-0.1,1.3-0.2c5.5-0.9,8.8-0.7,9.7,0.7c0.3,0.4,0.5,1.2-0.2,2.4
				C558.5,113.1,555.1,115.2,551.5,115.2z M556.7,107.1c-1.3,0-3.1,0.2-5.4,0.5c-0.4,0.1-0.9,0.1-1.4,0.2c-1.5,0.2-3.8,0.4-4.6,1.1
				c-0.5,0.4-0.7,0.8-0.8,1.1l0,0c-0.2,1.4,2.6,3,4.6,3.6c4,1.2,7.9-0.6,10.4-4.8c0.2-0.3,0.4-0.8,0.2-1
				C559.5,107.4,558.6,107.1,556.7,107.1z"/>
		</g>
		<g>
			<path class="st6" d="M562.2,105.1c-0.6,0-1.1-0.1-1.6-0.3c-1-0.4-1.7-1-1.9-1.9s0.1-1.8,0.8-2.5c0.6-0.7,1.6-1.3,2.7-1.5
				c2.4-0.6,4.5,0.3,5,1.9c0.2,0.9-0.1,1.8-0.8,2.5c-0.6,0.7-1.6,1.3-2.7,1.5C563.2,105,562.7,105.1,562.2,105.1z M563.7,100
				c-0.4,0-0.8,0-1.2,0.1c-0.8,0.2-1.6,0.6-2,1.2c-0.2,0.3-0.6,0.8-0.5,1.4s0.7,0.9,1.1,1c0.7,0.2,1.5,0.2,2.3,0s1.6-0.6,2-1.2
				c0.2-0.3,0.6-0.8,0.5-1.4C565.7,100.4,564.8,100,563.7,100z"/>
		</g>
		<g>
			<path class="st6" d="M610.7,14.4c-0.4,0-0.8-0.1-1.1-0.3c-0.5-0.3-0.8-0.8-1-1.3c-0.1-0.6-0.1-1.1,0.2-1.6s0.8-0.8,1.3-1
				c1.1-0.3,2.3,0.4,2.6,1.5c0.1,0.6,0.1,1.1-0.2,1.6s-0.8,0.8-1.3,1C611,14.4,610.8,14.4,610.7,14.4z M610.7,11.4
				c-0.1,0-0.1,0-0.2,0c-0.2,0.1-0.4,0.2-0.5,0.4c-0.1,0.2-0.2,0.4-0.1,0.7c0.1,0.2,0.2,0.4,0.4,0.5s0.4,0.2,0.7,0.1
				c0.2-0.1,0.4-0.2,0.5-0.4c0.1-0.2,0.2-0.4,0.1-0.7C611.4,11.6,611.1,11.4,610.7,11.4z"/>
		</g>
		<g>
			<path class="st6" d="M603.2,10.1c-0.4,0-0.8-0.1-1.1-0.3c-0.5-0.3-0.9-0.8-1-1.3c-0.3-1.1,0.5-2.3,1.7-2.6
				c1.2-0.3,2.4,0.4,2.7,1.5c0.1,0.6,0,1.2-0.3,1.7s-0.8,0.8-1.4,1C603.6,10,603.4,10.1,603.2,10.1z M603.3,7c-0.1,0-0.2,0-0.3,0
				c-0.5,0.1-0.9,0.6-0.8,1.1c0.1,0.2,0.2,0.4,0.4,0.5s0.5,0.2,0.8,0.1s0.5-0.2,0.6-0.4c0.1-0.2,0.2-0.4,0.1-0.6
				C604.1,7.3,603.7,7,603.3,7z"/>
		</g>
		<g>
			<path class="st6" d="M332.6,297.3c-0.9,0-1.6-0.7-2.1-2.1c-0.7-2,1.4-8.3,3.8-10l0,0c1-0.7,2-0.7,2.8,0c0.9,0.7,1.4,2.1,1.1,3.4
				C338,289.6,335.3,297.1,332.6,297.3C332.7,297.3,332.7,297.3,332.6,297.3z M335.1,286.2c-2,1.5-3.9,7.1-3.4,8.6
				c0.3,0.8,0.6,1.2,0.9,1.2c1.4-0.1,4-5.8,4.4-7.7c0.1-0.7,0-1.7-0.6-2.2C336.1,285.9,335.8,285.8,335.1,286.2L335.1,286.2z"/>
		</g>
		<g>
			<path class="st6" d="M407.9,195.6c-2.8,0-4.8-0.3-5.4-0.9c-0.2-0.2-0.4-0.5-0.4-1.1c0.1-1,0.2-3.9,22.3-20.9l0,0
				c11.6-8.9,24-17.6,26.3-19.2c1.7-1.1,3.4-2.2,5-3.3c17.3-11.5,31-20.6,52.7-28.4c16.4-5.9,30.8-5.8,35.8-3.9
				c1.5,0.6,2.4,1.4,2.6,2.4c0.3,1.9-1.8,3.8-3.4,5.1l-0.2,0.2c-7.9,6.8-15.2,14.9-22.2,22.7c-3.2,3.6-6.5,7.2-9.8,10.7
				c-14.9,15.7-34.7,26.5-55.8,30.5C450.2,190.6,420.5,195.6,407.9,195.6z M535.4,118.1c-6.7,0-16.2,1.3-26.6,5
				c-21.6,7.7-35.2,16.8-52.5,28.2c-1.6,1.1-3.3,2.2-5,3.3c-2.3,1.5-14.7,10.2-26.3,19.1c-19.5,15-21.7,18.9-21.8,19.9v0.1
				c2.2,2.1,35-2.3,51.9-5.5c20.8-3.9,40.4-14.6,55.1-30.1c3.3-3.5,6.6-7.1,9.8-10.7c7.1-7.9,14.4-16,22.3-22.8l0.2-0.2
				c1.2-1,3.2-2.8,3-3.9c-0.1-0.7-1-1.2-1.8-1.4C542.1,118.5,539.2,118.1,535.4,118.1z"/>
		</g>
		<g>
			<path class="st6" d="M433.6,139.3c-1.4,0-2.5-0.6-2.9-1.6s-0.1-2.2,0.9-3.2c5.3-5.2,11.5-10.3,18-15.4c6.2-5,12.9-9.9,19.1-14.6
				C489,89.5,556,40,566.3,32.2c1.7-1.3,3.6-2.7,5.5-4.2C585.9,17.2,596.9,9,600,9.7c0.7,0.1,0.9,0.6,1,0.9
				c0.5,1.8-3.4,5.6-11.8,13.2c-2.7,2.4-5.2,4.8-6.8,6.4c-0.1,0.1-0.1,0.1-0.2,0.2h-0.1c-26.5,24.3-61.9,48.4-90.3,67.7
				c-11.1,7.5-21.5,14.6-30.1,20.8c-3.4,2.5-7.5,5.7-11.5,8.8C441.3,134.9,435.6,139.3,433.6,139.3L433.6,139.3z M599.5,10.9
				c-3.3,0-18,11.3-26.9,18.1c-2,1.5-3.9,3-5.6,4.2c-10.3,7.8-77.3,57.3-97.6,72.3c-6.2,4.6-12.9,9.6-19.1,14.5
				c-6.4,5.1-12.6,10.2-17.9,15.3l0,0c-0.6,0.6-0.8,1.3-0.6,1.8c0.2,0.5,0.8,0.8,1.8,0.8c1.6,0,9.3-6,16-11.3
				c3.9-3.1,8-6.3,11.5-8.8c8.6-6.2,19-13.3,30.1-20.8c28.4-19.3,63.7-43.3,90.1-67.6l0.1-0.1l0.1-0.1c1.6-1.7,4.2-4,6.9-6.5
				c4.3-3.9,11.3-10.3,11.4-11.8l0,0C599.7,10.9,599.6,10.9,599.5,10.9z"/>
		</g>
		<g>
			<path class="st6" d="M387.7,213.7c-0.3,0-0.6,0-0.8-0.1c-0.5-0.2-0.9-0.5-1.1-0.9c-1.5-3.2,5.6-10.3,9.5-13.2
				c4.6-3.4,18.9-3.8,22.6-1.9l0,0c1.3,0.7,1.2,1.7,1,2c-0.5,1.5-3.5,2.7-4.8,3.1c-1.5,0.5-2.6,0.8-3.7,1.1
				c-2.6,0.7-4.8,1.3-9.6,3.8c-0.9,0.5-1.9,1.1-2.9,1.6C393.8,211.5,390,213.7,387.7,213.7z M410.1,197.7c-5.2,0-11.5,0.9-14.1,2.8
				c-5.8,4.2-9.9,10-9.1,11.6c0.1,0.1,0.2,0.2,0.3,0.3c1.6,0.5,6.3-2.1,10-4.2c1-0.6,2-1.1,2.9-1.6c4.9-2.6,7.3-3.3,9.8-4
				c1.1-0.3,2.2-0.6,3.7-1.1c2.1-0.7,3.8-1.7,4-2.3c0-0.1,0.1-0.3-0.4-0.5l0,0C416,198,413.3,197.7,410.1,197.7z"/>
		</g>
		<g>
			<path class="st6" d="M379.7,222.8c-0.4,0-0.7-0.1-1-0.2c-0.7-0.3-1.1-1.1-1.2-2l0,0c-0.2-1.9,1-4.2,2.2-5.5
				c0.6-0.7,1.6-1.6,2.7-1.6c1.4,0,2.8,0,3.5,0.9c0.4,0.5,0.5,1.1,0.3,1.8c-0.4,2-2.6,4.8-4.8,6
				C380.8,222.6,380.2,222.8,379.7,222.8z M383.1,214.7c-0.2,0-0.4,0-0.5,0c-0.5,0-1.1,0.5-1.8,1.2c-1.2,1.4-2,3.3-1.9,4.5l0,0
				c0,0.2,0.1,0.8,0.5,1c0.3,0.2,0.9,0.1,1.6-0.3c1.8-1,3.8-3.5,4.2-5.2c0.1-0.5,0-0.7-0.1-0.7C384.8,214.8,383.8,214.7,383.1,214.7
				z"/>
		</g>
		<g>
			<path class="st6" d="M376,227.3c-1.3,0-2.5-1-2.6-2.4c0-0.7,0.2-1.4,0.6-1.9c0.5-0.5,1.1-0.8,1.8-0.9c0.7,0,1.4,0.2,1.9,0.6
				c0.5,0.5,0.8,1.1,0.9,1.8c0,0.7-0.2,1.4-0.6,1.9c-0.5,0.5-1.1,0.8-1.8,0.9l0,0C376.2,227.3,376.1,227.3,376,227.3z M376,223.4
				L376,223.4c-0.4,0-0.8,0.2-1,0.4c-0.2,0.3-0.3,0.6-0.3,0.9c0.1,0.7,0.7,1.3,1.4,1.2l0,0c0.3,0,0.7-0.2,0.9-0.4
				c0.2-0.3,0.3-0.6,0.3-0.9c0-0.3-0.2-0.7-0.4-0.9C376.7,223.6,376.4,223.4,376,223.4z"/>
		</g>
		<g>
			<path class="st6" d="M426.8,144.5c-0.8,0-1.4-0.3-1.7-0.8c-0.7-1.1,0-2.8,1.7-3.8c1.6-1.1,3.5-1.1,4.2,0l0,0
				c0.7,1.1,0,2.8-1.7,3.8c-0.7,0.5-1.5,0.8-2.3,0.8C426.9,144.5,426.9,144.5,426.8,144.5z M429.3,140.3c-0.5,0-1.1,0.2-1.8,0.6
				c-1.1,0.7-1.5,1.7-1.3,2.1c0.1,0.2,0.4,0.2,0.8,0.2c0.5,0,1.1-0.3,1.7-0.6c1.1-0.7,1.5-1.7,1.3-2.1l0,0
				C429.8,140.4,429.6,140.3,429.3,140.3z"/>
		</g>
		<g>
			<path class="st6" d="M568.5,99.1c-1.1,0-2-0.6-2.3-1.5c-0.1-0.6,0-1.2,0.5-1.7c0.4-0.5,1-0.8,1.6-1c0.7-0.2,1.3-0.1,1.9,0.1
				c0.6,0.2,1.1,0.7,1.2,1.3c0.1,0.6,0,1.2-0.5,1.7c-0.4,0.5-1,0.8-1.6,1C569.1,99.1,568.8,99.1,568.5,99.1z M569.2,96.1
				c-0.2,0-0.4,0-0.5,0.1c-0.4,0.1-0.8,0.3-1,0.6c-0.1,0.1-0.3,0.3-0.2,0.6c0.1,0.4,0.8,0.6,1.6,0.4c0.4-0.1,0.8-0.3,1-0.6
				c0.1-0.1,0.3-0.3,0.2-0.6c-0.1-0.2-0.3-0.3-0.4-0.4C569.6,96.2,569.4,96.1,569.2,96.1z"/>
		</g>
		<g>
			<path class="st6" d="M422.1,199.4c-1.2,0-2.2-0.3-2.4-1.2c-0.1-0.4-0.1-1.1,0.9-1.8c0.6-0.4,1.4-0.8,2.4-1.1
				c0.9-0.2,1.8-0.3,2.6-0.2c1.3,0.2,1.6,0.8,1.7,1.2s0.1,1.1-0.9,1.8c-0.6,0.4-1.4,0.8-2.4,1.1
				C423.4,199.3,422.7,199.4,422.1,199.4z M424.9,196.3c-0.4,0-1,0.1-1.6,0.2c-1.6,0.4-2.4,1.1-2.4,1.3c0.1,0.1,1.1,0.4,2.7,0
				s2.3-1.1,2.4-1.3C426,196.4,425.6,196.3,424.9,196.3z"/>
		</g>
		<g>
			<path class="st6" d="M544.8,79.7c-2,0-7.1-0.2-7.9-2.2c-0.3-0.8,0-1.6,1-2.5c2.7-2.4,4.8-4,7.3-5.9c1.6-1.2,3.3-2.4,5-3.5
				c2.7-1.9,5.4-3.8,8.1-5.9c4.9-3.7,10.2-7.8,15.4-12c6.4-5.2,11.9-10,16.6-14.6c1.3-1.3,2.9-3,4.7-4.7c7.6-7.8,10.3-10.3,11.6-9.9
				c0.8,0.2,1.4,0.8,1.8,1.6c1.2,2.3,0.4,6.9-2.2,14.1l-0.2,0.3c-2.3,6.4-5.8,12.7-10.3,18.9c-8.7,11.9-19.8,20-32,23.3
				c-5.7,1.6-11.8,2.6-18.1,3C545.6,79.7,545.3,79.7,544.8,79.7z M606.2,19.7c-1.2,0.2-6.7,5.9-10.4,9.6c-1.7,1.8-3.4,3.5-4.7,4.7
				c-4.8,4.7-10.3,9.5-16.7,14.7l0,0c-5.2,4.2-10.5,8.2-15.4,12c-2.7,2-5.4,4-8.1,5.9c-1.7,1.2-3.3,2.3-4.9,3.5
				c-2.5,1.8-4.6,3.4-7.2,5.8c-0.5,0.4-0.7,0.8-0.6,1c0.4,1.1,5.2,1.5,7.5,1.4c6.2-0.4,12.2-1.4,17.8-2.9
				c12-3.3,22.8-11.2,31.4-22.8c4.4-6.1,7.8-12.3,10.1-18.6l0.1-0.3c3.1-8.4,2.9-11.7,2.3-13.1C607,20.2,606.7,19.9,606.2,19.7z"/>
		</g>
		<g>
			<path class="st6" d="M483.6,167.7c-2.2,0-4.4-0.1-6.5-0.2c-1.5-0.1-3.1-0.1-4.6-0.2c-7.9-0.2-16.5-0.5-25-1.6
				c-0.6-0.1-2.4-0.3-2.7-1.6c-0.5-1.7,1.8-3.6,3.9-5.4l0.3-0.2c3.8-3.1,8-5.8,11.7-8.2c6.8-4.4,15.9-9.9,21.9-13.4
				c8.1-4.8,14.8-8.4,22.9-11.5c6.8-2.6,15-5.3,24.3-5.2c1.8,0,6.2,0.4,7.3,2.7c0.6,1.1,0.3,2.5-0.8,4c-2.8,3.9-6.5,7.3-9.9,10.6
				c-3.1,2.9-6.4,6-9.1,9.4l-1.5,1.9c-5,6.5-10.1,13.2-17.9,16.4C493.3,167.2,488.5,167.7,483.6,167.7z M529,121.6
				c-8.7,0-16.2,2.4-23,5.1c-8,3.1-14.6,6.7-22.7,11.4c-6,3.5-15.1,9-21.9,13.4c-3.7,2.4-7.9,5.1-11.6,8.1l-0.3,0.2
				c-2.5,2-3.7,3.4-3.5,4c0.1,0.3,0.7,0.6,1.7,0.7c8.5,1.1,17,1.4,24.9,1.6c1.5,0,3.1,0.1,4.6,0.2c6.8,0.3,13.9,0.6,20.3-2.1
				c7.5-3.1,12.5-9.7,17.4-16l1.5-1.9c2.7-3.5,6-6.6,9.2-9.6c3.4-3.2,7-6.6,9.8-10.4c0.8-1.1,1-2,0.7-2.6c-0.6-1.1-3-1.9-6.2-2
				C529.5,121.6,529.2,121.6,529,121.6z"/>
		</g>
		<g>
			<path class="st6" d="M474.7,149.4c-0.7,0-1.3-0.1-1.7-0.5c-0.3-0.2-0.4-0.6-0.4-1c0.3-2.9,15.7-11.4,16.4-11.7h0.1
				c7-3.8,14.5-7.1,22.2-9.7c5.6-1.9,11.7-3.5,19.1-3.2c2.1,0.1,2.9,0.9,3.1,1.5c0.2,0.6,0.2,1.6-1.2,3.1c-3,3.1-8,5.3-12,7
				c-0.7,0.3-1.4,0.6-2.1,0.9c-7.1,3.2-14.6,5.5-21.9,7.8l-2.8,0.9c-4.5,1.4-8.9,2.7-13.4,3.8c-0.2,0.1-0.6,0.2-0.9,0.3
				C477.4,149,475.9,149.4,474.7,149.4z M473.8,148c0.9,0.5,3.7-0.3,4.9-0.7c0.4-0.1,0.8-0.2,1-0.3c4.5-1,8.9-2.4,13.3-3.8l2.8-0.9
				c7.3-2.2,14.8-4.5,21.8-7.7c0.7-0.3,1.4-0.6,2.1-0.9c3.9-1.7,8.8-3.9,11.6-6.8c0.7-0.7,1-1.4,0.9-1.7s-0.7-0.6-2-0.7
				c-7.2-0.3-13.2,1.3-18.6,3.1c-7.6,2.6-15,5.8-22,9.6h-0.1C482.2,141.3,474.3,146.5,473.8,148z"/>
		</g>
		<g>
			<path class="st6" d="M458.5,133c-2.3,0-2.8-0.4-3-0.6c-0.3-0.3-0.4-0.7-0.3-1.1c0.9-4.1,10-9.8,18.2-12.9
				c2-0.8,14.8-3.7,17.7-0.1c1,1.2,0.8,2.9-0.6,5c-2.3,3.6-7.7,5-12.1,6.1c-1.2,0.3-2.3,0.6-3.2,0.9c-2.2,0.7-6.7,1.6-10.6,2.2
				C461.8,132.9,459.9,133,458.5,133z M456.4,131.5c1.5,1,13.7-0.9,18.5-2.5c1-0.3,2.1-0.6,3.3-0.9c4.1-1.1,9.3-2.4,11.3-5.5
				c1-1.6,1.2-2.8,0.6-3.5c-2.2-2.7-13.6-0.5-16.3,0.5l0,0C465.1,122.9,457.2,128.3,456.4,131.5z"/>
		</g>
		<g>
			<path class="st6" d="M495.3,121.8c-0.7,0-1.3-0.1-1.9-0.4c-0.6-0.3-0.9-0.9-1.1-1.5c-0.1-0.4-0.1-0.8,0-1.1l0,0
				c0.5-1.6,2.5-1.7,4-1.8c0.3,0,0.6,0,0.8-0.1c1.6-0.2,2.9,0.4,3.2,1.5c0.1,0.5,0.2,2.1-3.1,3.2
				C496.8,121.7,496.1,121.8,495.3,121.8z M497.9,118.1c-0.2,0-0.3,0-0.5,0c-0.3,0-0.6,0.1-0.9,0.1c-1,0.1-2.6,0.2-2.8,0.9l0,0
				c0,0.1,0,0.3,0,0.5c0.1,0.3,0.2,0.5,0.5,0.7c0.6,0.4,1.9,0.3,2.8,0c1.8-0.6,2.3-1.3,2.3-1.7C499.1,118.4,498.7,118.1,497.9,118.1
				z"/>
		</g>
		<g>
			<path class="st6" d="M395.2,179.7c-0.6,0-1.2-0.3-1.7-1c-1.4-1.6,1-4.8,2.3-6.5c0.1-0.2,0.2-0.3,0.3-0.4c1.6-2.2,3.5-4.4,5.4-6.5
				c0.8-1,1.7-1.9,2.4-2.8l0,0c2.1-2.5,4.4-5,6.7-7.5c1.1-1.2,2.2-2.4,3.2-3.5c1.3-1.4,3.2-3.4,5-4.8c2.4-1.8,4.2-2.1,5.4-1
				c0.6,0.6,1,1.2,1,1.9c0,1.7-1.8,3.6-4.7,6.5c-7.5,7.4-17.9,17.7-21.3,22.3C397.8,178.2,396.6,179.7,395.2,179.7
				C395.3,179.7,395.2,179.7,395.2,179.7z M422.7,146.2c-0.9,0-2,0.7-3,1.4c-1.8,1.3-3.6,3.3-4.8,4.7c-1,1.1-2.1,2.3-3.2,3.5
				c-2.3,2.5-4.6,5-6.7,7.4l0,0c-0.8,0.9-1.6,1.9-2.5,2.8c-1.8,2.1-3.8,4.3-5.3,6.4c-0.1,0.1-0.2,0.3-0.3,0.5
				c-2,2.7-2.8,4.4-2.4,4.9s0.7,0.5,0.8,0.5c0.7,0,1.9-1.5,3-2.9c3.5-4.7,13.9-15,21.5-22.5c2.5-2.5,4.3-4.4,4.3-5.5
				c0-0.2-0.1-0.5-0.6-1C423.2,146.3,423,146.2,422.7,146.2z"/>
		</g>
		<g>
			<path class="st6" d="M427.7,180.6c-1.1,0-2.2-0.3-2.6-1.2c-1-2.1,2.4-4.6,5.1-6.4l0.1-0.1c6-4,13-8,19.4-5.2
				c0.1,0.1,0.3,0.1,0.4,0.2c0.2,0.1,0.4,0.1,0.5,0.2l0,0c0.6,0.3,1,0.5,1.4,0.9c0.8,0.8,1.1,1.6,0.9,2.4c-0.6,2.2-4.8,3.5-9.1,4.7
				c-1.9,0.5-3.7,1.1-5.5,1.8c-2.3,0.8-4.7,1.6-7.2,2.2l-0.2,0.1C430.1,180.3,428.8,180.6,427.7,180.6z M445.1,168.1
				c-4.7,0-9.7,3-14.1,5.9l-0.1,0.1c-4.9,3.2-4.8,4.5-4.6,4.8c0.2,0.3,0.9,0.8,4.4,0l0.2-0.1c2.4-0.5,4.8-1.4,7-2.2
				c1.8-0.6,3.7-1.3,5.5-1.8c2.5-0.7,7.8-2.1,8.2-3.8c0-0.1,0.1-0.5-0.5-1.2c-0.2-0.2-0.5-0.4-1-0.6c-0.1-0.1-0.3-0.1-0.4-0.2
				c-0.2-0.1-0.4-0.1-0.5-0.2C447.9,168.4,446.5,168.1,445.1,168.1z"/>
		</g>
	</g>
	<g>
		<g>
			<g class="st0">
				<path class="st1" d="M103.3,188.1c-14.3-9.9-28.1-20.5-41.7-31.3c-17.3-13.8-40.3-36.1-43.5-52.2c-1.7-8.8,3.2-13.3,12.3-10.1
					c1.5,0.5,2.9,1,4.4,1.6c32.2,11.4,64.2,23.2,95.7,36.4L103.3,188.1z"/>
			</g>
			<g class="st0">
				<path class="st2" d="M152,141.6l0.9,74.4c-8.4-3.4-16.6-7.5-24.8-12.2c-18-10.5-35-22.6-51.5-35.3c11.9-13.6,26.5-30,37.9-42.7
					c11.4,4.6,22.7,9.3,33.9,14.3C149.6,140.6,150.8,141.1,152,141.6z"/>
			</g>
			<g class="st0">
				<path class="st3" d="M220.7,179.3l-8.9,47.7c-8.3-0.7-16.6-1.2-24.3-2.1c-16.6-2-31.7-6.9-46.3-14.1l1.8-73.2
					c1.8,0.8,3.6,1.6,5.4,2.4C173.5,151.1,198.5,163.3,220.7,179.3z"/>
			</g>
			<g class="st0">
				<path class="st4" d="M204.4,168.5c12.4,7.6,24.1,16.1,34.8,25.9c11.4,10.4,21.2,22.2,30.2,34.6l-14.9,8.1c-4-2.1-8-3.8-11.5-4.9
					c-17.1-5.3-37.8-5.2-55.6-7.3c-5.5-0.6-10.8-1.6-16-2.9L204.4,168.5z"/>
			</g>
			<g class="st0">
				<path class="st5" d="M255.4,211.1c5.8,6.8,11.3,13.9,16.4,21.1c4.6,6.5,9,13.2,13.6,19.7c1.9,2.7,3.8,5.2,6,7.7
					c1.8,2.1,4.3,4.6,4.2,7.6c-0.3,12-12.3-6.9-17.7-13.5c-5.5-6.7-22.7-17.7-34.9-21.5c-1.1-0.3-2.3-0.7-3.4-1L255.4,211.1z"/>
			</g>
		</g>
		<g>
			<path class="st6" d="M294.5,271.7c-2.8,0-7.1-5.4-12.8-13c-1.3-1.8-2.6-3.5-3.6-4.7c-5.2-6.4-22.2-17.4-34.6-21.3
				c-11.9-3.7-25.6-4.8-38.9-5.8c-5.8-0.4-11.2-0.9-16.6-1.5c-19.9-2.3-38.8-9.1-59.6-21.1c-24.2-14.1-46.3-31-66.6-47.2
				c-5.9-4.7-17.2-14.2-27.1-25.3c-9.6-10.7-15.1-19.9-16.6-27.3c-0.9-4.5-0.1-8.1,2.3-10.1c2.4-2.1,6.3-2.3,10.8-0.7l4.4,1.6
				c34.2,12.1,74.5,26.8,113.7,44.1c31.4,13.8,64.2,30,91,54.5c10.9,10,21.3,22,32.6,37.9c2.4,3.3,4.7,6.8,7,10.1
				c2.2,3.2,4.4,6.4,6.6,9.6c2.2,3.1,4.1,5.5,6,7.7l0.4,0.5c1.8,2,4,4.5,3.9,7.5l0,0c-0.1,2.6-0.7,4.1-1.9,4.4
				C294.9,271.7,294.7,271.7,294.5,271.7z M25.7,94c-1.8,0-3.3,0.5-4.5,1.4c-2,1.7-2.6,4.9-1.8,8.9c3,15.2,24.3,36.8,43.2,51.9
				c20.2,16.1,42.3,33,66.4,47.1c20.6,12,39.4,18.7,59.1,21c5.3,0.6,10.8,1,16.5,1.5c13.3,1,27.1,2.1,39.2,5.8
				c12.6,3.9,29.9,15.2,35.2,21.7c1,1.3,2.3,2.9,3.6,4.7c3.7,4.9,9.8,13.1,12,12.4c0.6-0.2,0.9-1.4,1-3.2l0,0c0.1-2.5-2-4.8-3.6-6.6
				l-0.4-0.5c-1.9-2.2-3.8-4.7-6-7.8c-2.3-3.2-4.5-6.5-6.7-9.6c-2.3-3.3-4.6-6.7-7-10.1c-11.3-15.8-21.6-27.8-32.5-37.7
				c-26.7-24.3-59.3-40.5-90.7-54.3c-39.2-17.2-79.4-31.9-113.6-44L30.7,95C29,94.4,27.2,94,25.7,94z M296.3,267.2L296.3,267.2
				L296.3,267.2z"/>
		</g>
		<g>
			<path class="st6" d="M286.1,259.6c-1.3,0-3.5-2.5-8.8-10.1c-0.4-0.6-0.8-1.1-1-1.4c-2.5-3.4-13.1-16.1-15.7-18.9
				c-1.3-1.4-2.6-3-3.9-4.4c-2.4-2.8-4.9-5.6-7.5-8.1c-21.4-20.5-47.7-38-80.6-53.5c-4.5-2.1-21-8.4-40-15.7
				c-27.2-10.4-61-23.3-71.5-28.5c-3.6-1.8-35.2-17.7-34.4-22.9c0.1-0.5,0.5-1.2,1.9-1.5c6.6-1.2,105.5,39.5,113.2,42.9
				c4.9,2.2,9.8,4.3,14.6,6.3c12.1,5.2,23.5,10,35.1,16.3c15.2,8.1,31.4,19.1,45.6,30.8c9,7.5,17.5,15.9,24.5,24.2
				c5.4,6.5,10.3,12.9,15.9,20.7c1.7,2.4,3.3,4.7,4.8,6.9l0,0c0.1,0.2,0.5,0.7,1,1.4c5.5,7.4,9,12.8,8.1,14.8
				c-0.2,0.5-0.6,0.7-1.1,0.8C286.2,259.6,286.1,259.6,286.1,259.6z M25,95.8c-0.1,0-0.2,0-0.3,0c-0.5,0.1-0.8,0.3-0.9,0.4
				c-0.3,2.4,14.8,12.1,33.7,21.6c10.4,5.2,44.2,18.1,71.4,28.5c19.1,7.3,35.5,13.5,40.1,15.7c33,15.5,59.5,33.1,80.9,53.7
				c2.7,2.6,5.2,5.5,7.6,8.2c1.3,1.5,2.6,3,3.9,4.4c2.6,2.8,13.3,15.6,15.8,19c0.2,0.3,0.6,0.8,1,1.5c4.3,6.1,6.9,9.3,7.7,9.6
				c0.1,0,0.1,0,0.1,0c0.3-0.8-0.8-3.8-8-13.5c-0.6-0.7-0.9-1.2-1.1-1.5c-1.4-2.2-3-4.5-4.7-6.9c-5.6-7.7-10.4-14.2-15.8-20.6
				c-7-8.3-15.4-16.7-24.4-24.1c-14.1-11.7-30.2-22.6-45.3-30.7c-11.6-6.2-23-11.1-35-16.2c-4.8-2-9.7-4.1-14.6-6.3
				C126.8,134,33.2,95.8,25,95.8z"/>
		</g>
		<g>
			<path class="st6" d="M264.7,238.5c-2.9,0-8.3-2.7-8.3-2.7c-6.5-3.7-19.9-8.7-31.3-10.5c-5.7-0.9-11.6-1.5-17.3-2
				c-4.4-0.4-9-0.9-13.5-1.5c-15.9-2.1-30.7-5.8-44-10.9c-13.2-5.1-24.5-12.2-36.6-19.7l-4.3-2.7c-4-2.5-8.1-5-12.1-7.6
				c-0.4-0.3-0.9-0.6-1.4-0.9c-2.9-1.8-6.5-3.9-5.9-6.6c0.2-0.9,1.4-2.5,4.2-4.1c5.6-3.4,19.2-7.9,47.6-0.7
				c39.8,10.1,66.8,21.1,90.5,36.9c12.6,8.4,23,17.7,31.8,28.3c3,3.6,2.5,4.1,2.1,4.4l0,0C265.8,238.4,265.3,238.5,264.7,238.5z
				 M114.6,166.1c-7.3,0-14.4,1.1-19.8,4.3c-2.7,1.6-3.5,3-3.6,3.3c-0.4,1.7,3,3.8,5.3,5.2c0.5,0.3,1,0.6,1.4,0.9
				c4,2.6,8.1,5.1,12,7.6l4.3,2.7c12,7.5,23.3,14.6,36.4,19.6c13.2,5.1,28,8.8,43.7,10.9c4.5,0.6,9.1,1,13.5,1.5
				c5.7,0.6,11.7,1.1,17.4,2c11.5,1.8,25.2,6.8,31.8,10.6c1.8,1,6.5,2.8,7.9,2.6c-0.3-0.6-1.1-1.7-2-2.7c-8.7-10.5-19-19.6-31.5-28
				c-23.5-15.7-50.5-26.7-90.1-36.8C135.7,168.3,125,166.1,114.6,166.1z"/>
		</g>
		<g>
			<path class="st6" d="M120.6,155.5c-26.4,0-53-2.5-74.5-17.6c-7.6-5.4-16.9-15.4-21.1-22.9c-3.2-5.6-6.4-13-5.2-15.4
				c0.3-0.5,0.7-0.8,1.2-0.9c1.5-0.3,3.6,1.4,5.6,3.3c0.2,0.2,0.3,0.3,0.5,0.4c8.8,7.5,19.7,12.6,30.2,17.5c1.2,0.6,2.3,1.1,3.5,1.6
				c16.1,7.6,31.6,13.5,47.9,19.7c4.9,1.9,10,3.8,15.1,5.8c2,0.6,5.8,2.1,7.6,2.9c1.6,0.7,4,2.4,3.7,3.9s-2.7,1.6-3.5,1.6
				C127.9,155.4,124.3,155.5,120.6,155.5z M21.3,99.9h-0.1c-0.1,0-0.2,0-0.3,0.2c-0.6,1.3,1,6.7,5.2,14.2
				c3.6,6.4,12.4,16.6,20.7,22.5c24.1,17,55,17.8,84.6,17.3c1.8,0,2.2-0.4,2.2-0.5c0.1-0.4-1.1-1.7-2.9-2.5
				c-1.9-0.8-5.5-2.3-7.5-2.9h-0.1c-5.1-2-10.2-3.9-15.1-5.8c-16.4-6.2-31.8-12.1-48-19.7c-1.2-0.5-2.3-1.1-3.5-1.6
				c-10.6-5-21.6-10.1-30.5-17.7c-0.1-0.1-0.3-0.3-0.5-0.4C24.9,102.1,22.4,99.9,21.3,99.9z"/>
		</g>
		<g>
			<path class="st6" d="M138.6,157.4c-2,0-3.6-0.9-3.6-2.2c0-1.2,1.5-2.2,3.6-2.2c2,0,3.6,0.9,3.6,2.2
				C142.2,156.5,140.7,157.4,138.6,157.4z M138.6,154.3c-1.4,0-2.3,0.6-2.3,0.9s0.9,0.9,2.3,0.9c1.4,0,2.3-0.6,2.3-0.9
				S140.1,154.3,138.6,154.3z"/>
		</g>
		<g>
			<path class="st6" d="M87,171.3c-2.3,0-4.5-1-6.5-2.9c-0.8-0.8-0.8-1.5-0.6-1.9c0.2-0.5,0.7-2,7.5-2.5c0.3,0,0.7-0.1,1.1-0.1
				c1.5-0.2,3.4-0.5,4.5,0c0.7,0.3,1.2,0.8,1.4,1.3l0,0c0.8,2.1-2.1,4.4-3.3,5.1C89.7,170.9,88.3,171.3,87,171.3z M91.2,164.7
				c-0.8,0-1.8,0.1-2.6,0.2c-0.4,0.1-0.8,0.1-1.1,0.1c-4.7,0.4-6.2,1.3-6.4,1.7c-0.1,0.2,0.2,0.5,0.3,0.6c2.7,2.7,6,3.3,8.8,1.7
				c1.4-0.8,3.2-2.6,2.8-3.5c-0.1-0.2-0.3-0.5-0.7-0.6C92.1,164.8,91.6,164.7,91.2,164.7z"/>
		</g>
		<g>
			<path class="st6" d="M77.4,165.5c-2,0-3.6-1.1-3.6-2.6s1.6-2.6,3.6-2.6s3.6,1.1,3.6,2.6S79.4,165.5,77.4,165.5z M77.4,161.5
				c-1.4,0-2.3,0.7-2.3,1.3s0.9,1.3,2.3,1.3s2.3-0.7,2.3-1.3S78.7,161.5,77.4,161.5z"/>
		</g>
		<g>
			<path class="st6" d="M22.8,104.8c-1,0-1.8-0.8-1.8-1.8s0.8-1.8,1.8-1.8s1.8,0.8,1.8,1.8C24.7,104,23.9,104.8,22.8,104.8z
				 M22.8,102.4c-0.3,0-0.6,0.3-0.6,0.6s0.3,0.6,0.6,0.6c0.3,0,0.6-0.3,0.6-0.6S23.2,102.4,22.8,102.4z"/>
		</g>
		<g>
			<path class="st6" d="M27.8,100c-1.1,0-1.9-0.8-1.9-1.8s0.9-1.8,1.9-1.8c1.1,0,1.9,0.8,1.9,1.8C29.7,99.2,28.8,100,27.8,100z
				 M27.8,97.6c-0.4,0-0.7,0.3-0.7,0.6c0,0.3,0.3,0.6,0.7,0.6c0.4,0,0.7-0.3,0.7-0.6C28.4,97.9,28.1,97.6,27.8,97.6z"/>
		</g>
		<g>
			<path class="st6" d="M293.4,268.6c-2.2,0-5.5-4.9-5.9-5.7c-0.5-1-0.4-2.2,0.2-3c0.6-0.7,1.4-0.9,2.3-0.6l0,0
				c2.2,0.9,5.2,5.4,5,7.1c-0.1,1.6-0.8,2-1.4,2.1C293.6,268.6,293.5,268.6,293.4,268.6z M289.2,260.4c-0.2,0-0.4,0.1-0.4,0.2
				c-0.4,0.5-0.3,1.2,0,1.7c0.7,1.5,3.8,5.2,4.8,5c0.1,0,0.3-0.3,0.3-1c0.1-1-2.3-5.1-4.2-5.8C289.4,260.5,289.3,260.4,289.2,260.4z
				"/>
		</g>
		<g>
			<path class="st6" d="M172.7,209.8c-15.5,0-31-4.5-44.2-12.8c-3.2-2-6.5-4.2-9.7-6.3c-7-4.7-14.2-9.5-21.6-13.2l-0.2-0.1
				c-1.5-0.8-3.6-1.8-3.7-3.4c-0.1-0.9,0.5-1.7,1.6-2.5c3.5-2.5,14.7-5.3,28.6-4c18.3,1.7,30.7,6,46.3,11.5c1.5,0.5,3,1.1,4.5,1.6
				c2.1,0.7,13.4,5,24.1,9.7c20.5,8.8,21.1,11,21.4,11.8c0.1,0.5,0,0.8-0.1,1c-2.3,3.6-41.6,6.5-42,6.5
				C176,209.7,174.4,209.8,172.7,209.8z M116.5,168.4c-10.3,0-18.1,2.2-20.9,4.1c-0.5,0.3-1.1,0.9-1,1.3c0.1,0.9,1.9,1.8,3,2.3
				l0.2,0.1c7.5,3.8,14.8,8.6,21.8,13.3c3.2,2.1,6.4,4.3,9.6,6.3c14.4,9.1,31.6,13.5,48.4,12.4c13.6-0.8,39.7-3.9,41-5.9
				c0-0.3-1.1-2.6-20.7-11c-10.7-4.6-21.9-8.9-24-9.6c-1.6-0.5-3.1-1.1-4.6-1.6c-15.6-5.5-27.9-9.8-46-11.5
				C120.9,168.5,118.7,168.4,116.5,168.4z"/>
		</g>
		<g>
			<path class="st6" d="M184.3,166.5c-2,0-7.1-2.2-14.9-5.7c-3.7-1.6-7.4-3.3-10.6-4.5c-7.8-3.1-17.3-6.5-27.3-10.2
				c-25.8-9.3-57.8-21-83.1-34.6c-0.1-0.1-0.2-0.1-0.3-0.1c-1.5-1-4-2.2-6.5-3.6c-8-4.3-11.8-6.4-11.8-8c0-0.4,0.2-0.8,0.7-1
				c2.3-1.1,12,2.8,25.5,8.6c1.8,0.8,3.6,1.5,5.1,2.2c9.5,4,71,29,89.6,36.6c5.7,2.3,11.9,4.9,17.7,7.5c6,2.7,11.8,5.4,16.9,8.4l0,0
				c1,0.6,1.5,1.5,1.4,2.4s-0.9,1.6-2.1,1.9C184.6,166.4,184.4,166.5,184.3,166.5z M31.2,99.9c0.8,1.3,7.1,4.7,11,6.7
				c2.6,1.4,5,2.7,6.6,3.7c0,0,0.1,0,0.1,0.1c25.2,13.6,57.2,25.2,83,34.5c10,3.6,19.5,7.1,27.4,10.2c3.2,1.3,7,2.9,10.6,4.5
				c5.9,2.6,13.3,5.9,14.5,5.6c0.7-0.2,1.1-0.5,1.1-0.8c0.1-0.4-0.3-0.8-0.8-1.1l0,0c-5.1-3-10.9-5.6-16.8-8.3
				c-5.8-2.6-11.9-5.1-17.6-7.5c-18.6-7.6-80.1-32.7-89.6-36.6c-1.6-0.7-3.3-1.4-5.1-2.2C47.3,105.1,33.5,99.2,31.2,99.9z"/>
		</g>
		<g>
			<path class="st6" d="M233.7,215c-1.8,0-4.3-0.7-7.7-1.6c-0.9-0.2-1.8-0.5-2.6-0.7c-4.2-1-6-1.1-8.1-1.1c-0.9,0-1.9,0-3.1-0.1
				c-1.4-0.1-3.8-0.5-4.4-1.5c-0.2-0.3-0.5-1.1,0.4-2l0,0c2.5-2.2,13.7-4.7,18-3c3.7,1.5,10.6,5.6,10,8.5c-0.1,0.4-0.3,0.8-0.7,1
				C235,214.9,234.4,215,233.7,215z M209,209.1c-0.2,0.1-0.2,0.2-0.2,0.3c0.2,0.4,1.6,0.8,3.5,1c1.2,0.1,2.1,0.1,3,0.1
				c2.1,0,4.1,0,8.4,1.1c0.8,0.2,1.7,0.4,2.6,0.7c3.1,0.8,7.4,2,8.5,1.3c0.1-0.1,0.1-0.1,0.1-0.2c0.3-1.5-4.6-5.1-9.3-7
				C221.9,204.8,211.2,207.1,209,209.1L209,209.1z"/>
		</g>
		<g>
			<path class="st6" d="M242.1,220.4c-0.3,0-0.6,0-1-0.2c-1.9-0.5-4.2-2.3-5-3.8c-0.3-0.6-0.3-1.1-0.1-1.6c0.4-0.9,1.5-1.2,2.7-1.5
				c0.9-0.2,1.9,0.3,2.5,0.7c1.2,0.8,2.6,2.4,2.8,3.9c0.1,0.8-0.1,1.5-0.5,1.9C243.2,220.1,242.8,220.4,242.1,220.4z M239.1,214.6
				c-0.1,0-0.1,0-0.1,0c-1.3,0.3-1.7,0.6-1.8,0.8c0,0.1,0,0.3,0.1,0.5c0.5,1.1,2.5,2.6,4.2,3.1c0.6,0.2,1,0.1,1.2,0
				c0.1-0.1,0.2-0.4,0.1-0.7l0,0c-0.2-1-1.1-2.3-2.3-3C239.9,214.8,239.4,214.6,239.1,214.6z"/>
		</g>
		<g>
			<path class="st6" d="M245.9,223.2c-0.4,0-0.9-0.1-1.2-0.4c-0.5-0.3-0.8-0.8-0.9-1.4c-0.1-0.6,0-1.2,0.4-1.6
				c0.3-0.5,0.8-0.8,1.4-0.9c0.6-0.1,1.2,0,1.6,0.4c0.5,0.3,0.8,0.8,0.9,1.4c0.2,1.2-0.6,2.3-1.8,2.6
				C246.2,223.2,246.1,223.2,245.9,223.2z M245.9,220.1c-0.1,0-0.1,0-0.2,0c-0.2,0-0.4,0.2-0.6,0.4c-0.1,0.2-0.2,0.4-0.1,0.7
				s0.2,0.4,0.4,0.6c0.2,0.1,0.4,0.2,0.7,0.1c0.5-0.1,0.8-0.6,0.7-1.1c0-0.2-0.2-0.4-0.4-0.6C246.3,220.1,246.1,220.1,245.9,220.1z"
				/>
		</g>
		<g>
			<path class="st6" d="M190.2,169.2c-0.4,0-0.9-0.1-1.4-0.2c-1.6-0.5-2.5-1.7-2.1-2.8c0.2-0.5,0.7-0.9,1.4-1.1c0.6-0.1,1.3,0,2,0.2
				s1.3,0.6,1.7,1.1c0.5,0.5,0.6,1.2,0.5,1.7c-0.2,0.5-0.7,0.9-1.4,1.1C190.6,169.2,190.4,169.2,190.2,169.2z M188.7,166.3
				c-0.1,0-0.3,0-0.4,0c-0.3,0.1-0.4,0.2-0.4,0.2c-0.1,0.2,0.4,0.8,1.3,1.2c0.5,0.2,1,0.2,1.3,0.1c0.3-0.1,0.4-0.2,0.4-0.2
				c0-0.1,0-0.3-0.2-0.5c-0.3-0.3-0.7-0.5-1.1-0.7C189.3,166.4,189,166.3,188.7,166.3z"/>
		</g>
		<g>
			<path class="st6" d="M71.9,162c-1.3,0-2.3-0.8-2.3-1.8s1-1.8,2.3-1.8s2.3,0.8,2.3,1.8C74.1,161.2,73.1,162,71.9,162z M71.9,159.7
				c-0.6,0-1,0.3-1,0.5s0.4,0.5,1,0.5s1-0.3,1-0.5C72.8,160,72.5,159.7,71.9,159.7z"/>
		</g>
		<g>
			<path class="st6" d="M203.8,210.7c-1.6,0-3.3-0.5-3.3-1.7s1.7-1.7,3.3-1.7s3.3,0.5,3.3,1.7S205.4,210.7,203.8,210.7z M201.9,209
				c0.2,0.2,0.9,0.4,1.9,0.4s1.7-0.3,1.9-0.4c-0.2-0.2-0.9-0.4-1.9-0.4S202.1,208.9,201.9,209z"/>
		</g>
		<g>
			<path class="st6" d="M72.9,143.7c-0.4,0-0.8,0-1.1,0c-10.2-0.2-20.4-4.2-29.4-11.7c-4.7-3.9-8.6-8.1-11.7-12.6l-0.2-0.2
				c-3.5-5-4.9-8.5-4.5-10.6c0.2-0.7,0.5-1.3,1.1-1.6c1-0.6,3.5,0.8,11.1,5.4c1.7,1,3.3,2,4.5,2.7c4.6,2.7,9.8,5.3,15.7,8l0,0
				c4.8,2.2,9.7,4.3,14.2,6.2c2.4,1,5,2,7.4,2.9c1.5,0.6,3,1.2,4.5,1.7c2.3,0.9,4.3,1.8,6.8,3.1c1.2,0.6,1.4,1.4,1.3,1.9
				c-0.3,2.2-6.4,3.5-6.4,3.5C81.8,143.3,77.3,143.7,72.9,143.7z M27.8,108.1c-0.3,0.2-0.4,0.4-0.5,0.8c-0.2,1.2,0.3,3.8,4.3,9.6
				l0.2,0.2c3,4.4,6.8,8.5,11.4,12.3c8.8,7.3,18.7,11.3,28.6,11.4c4.6,0.1,9.5-0.3,14.3-1.2c1.9-0.4,5.3-1.7,5.4-2.4
				c0-0.1-0.2-0.3-0.6-0.5c-2.5-1.3-4.4-2.1-6.7-3c-1.5-0.6-3-1.2-4.5-1.7c-2.5-0.9-5-1.9-7.4-2.9c-4.6-1.9-9.4-4-14.3-6.2l0,0
				c-6-2.8-11.2-5.4-15.8-8.1c-1.3-0.7-2.9-1.7-4.6-2.7C34.1,111.3,28.9,108.1,27.8,108.1z"/>
		</g>
		<g>
			<path class="st6" d="M143.3,199.4c-1.1,0-2.1-0.1-3.2-0.2c-6.7-1-12-5.2-17.1-9.2l-1.5-1.2c-2.7-2.1-5.8-3.8-8.9-5.5
				c-3.3-1.8-6.8-3.7-9.8-6.2c-1.2-1-1.7-2-1.5-3c0.5-2.1,3.8-3.2,5.2-3.6c7.2-2,14-1.5,19.8-0.8c6.9,0.8,12.7,2.3,19.9,4.4
				c5.3,1.5,13.5,4,19.6,6c3.4,1.1,7.2,2.4,10.7,4l0.2,0.1c2.1,1,4.2,2,4.2,3.5c0,1.2-1.4,1.7-1.9,1.9c-6.4,2.6-12.9,4.5-19,6.2
				c-1.2,0.3-2.3,0.7-3.5,1C152.3,198.1,147.8,199.4,143.3,199.4z M122.7,188.2l1,0.8c5,3.9,10.2,8,16.5,8.9
				c5.4,0.8,10.8-0.8,16-2.4c1.2-0.4,2.3-0.7,3.5-1c6.1-1.7,12.6-3.6,18.9-6.1c0.8-0.3,1.1-0.6,1.1-0.7c0-0.3-0.6-1-3.4-2.3
				l-0.2-0.1c-3.4-1.6-7.1-2.8-10.6-4c-6.1-2-14.2-4.5-19.5-6c-7.1-2.1-12.9-3.5-19.7-4.3c-5.9-0.7-12.4-1.1-19.3,0.8
				c-2.4,0.7-4.1,1.7-4.3,2.6c-0.1,0.5,0.2,1.1,1,1.8c2.9,2.4,6.3,4.3,9.6,6.1c3.1,1.7,6.2,3.4,9,5.6L122.7,188.2z"/>
		</g>
		<g>
			<path class="st6" d="M152.6,182.5c-0.4,0-0.8,0-1.3,0c-0.3,0-0.6,0-0.8,0c-3.7,0.1-7.4-0.1-11.1-0.3l-2.4-0.1
				c-6.1-0.3-12.4-0.6-18.5-1.7c-0.6-0.1-1.2-0.2-1.8-0.3c-3.5-0.6-7.8-1.3-10.7-3.1c-1.4-0.9-1.6-1.7-1.6-2.3
				c0.1-0.6,0.5-1.4,2.2-1.9c5.6-1.7,10.7-1.6,15.4-1.3c6.5,0.5,12.9,1.5,19.1,3.1h0.1c4.3,1.1,14.4,4,15.1,5.9
				c0.1,0.3,0.1,0.7-0.1,0.9C155.7,182.4,154.3,182.5,152.6,182.5z M150.7,181.2c0.2,0,0.4,0,0.7,0c0.9,0,3,0.1,3.7-0.3
				c-1-1.1-7.9-3.4-14.1-5l0,0l0.2-0.6l-0.2,0.6c-6.1-1.6-12.5-2.6-18.9-3.1c-4.5-0.3-9.5-0.4-14.9,1.2c-1,0.3-1.3,0.7-1.3,0.8
				s0.2,0.5,1,1c2.7,1.7,6.9,2.4,10.2,2.9c0.6,0.1,1.2,0.2,1.8,0.3c6,1.1,12.3,1.4,18.3,1.7l2.4,0.1c3.7,0.2,7.4,0.4,11,0.3
				C150.6,181.2,150.6,181.2,150.7,181.2z"/>
		</g>
		<g>
			<path class="st6" d="M151.8,167.7c-0.5,0-0.8,0-1.1,0c-0.8,0-1.7,0-2.7-0.1c-3.6,0-8.1,0-10.6-2.4c-1.5-1.4-2-2.7-1.4-3.9
				c1.6-3.4,12.1-3.6,13.9-3.5c7,0.8,15.2,3.4,16.7,6.4c0.2,0.3,0.1,0.7-0.1,1C165.3,167.1,155.5,167.7,151.8,167.7z M148.5,159.1
				c-3.3,0-10.4,0.7-11.4,2.8c-0.3,0.6,0.1,1.4,1.2,2.4c2.1,2,6.3,2,9.7,2c1,0,1.9,0,2.7,0.1c3.9,0.2,13.2-0.6,14.6-1.6
				c-1.4-2.3-8.4-4.8-15.6-5.6l0,0C149.4,159.1,149,159.1,148.5,159.1z"/>
		</g>
		<g>
			<path class="st6" d="M132.2,165.2c-0.1,0-0.2,0-0.3,0c-2.9-0.2-3.2-1.6-3.2-2c0-1,0.9-1.8,2.3-1.9c0.2,0,0.4-0.1,0.7-0.1
				c1.2-0.2,2.8-0.5,3.6,0.7c0.2,0.3,0.2,0.6,0.3,0.9c0,0.6-0.1,1.1-0.5,1.5C134.3,165,133.1,165.2,132.2,165.2z M133.3,162.3
				c-0.5,0-1,0.1-1.4,0.2c-0.3,0-0.5,0.1-0.7,0.1c-0.8,0.1-1.1,0.4-1.1,0.6c0,0.2,0.5,0.6,2,0.7c0.7,0,1.6-0.1,2-0.5
				c0.1-0.1,0.2-0.3,0.2-0.5c0-0.1,0-0.2-0.1-0.3l0,0C134,162.4,133.7,162.3,133.3,162.3z"/>
		</g>
		<g>
			<path class="st6" d="M221.9,190.1c-1,0-2.1-0.8-3.5-1.9c-3.6-2.9-13.6-8.8-20.9-13c-2.9-1.7-4.6-2.8-5-4.2
				c-0.1-0.6,0-1.2,0.4-1.8c1.6-2.3,5.8,0.1,9.4,2.4c1,0.7,2.1,1.4,3.2,2.1c2.2,1.5,4.6,3,6.6,4.5l0,0c0.8,0.6,1.6,1.1,2.4,1.7
				c1.9,1.3,3.8,2.6,5.4,4c0.1,0.1,0.2,0.2,0.3,0.3c1.9,1.5,3.8,3.2,3.1,4.7C223,189.5,222.6,189.9,221.9,190.1
				C222.1,190.1,222,190.1,221.9,190.1z M194.9,169.6c-0.5,0-0.8,0.2-0.9,0.4c-0.3,0.4-0.2,0.6-0.2,0.8c0.2,0.8,1.9,1.9,4.4,3.3
				c7.3,4.2,17.4,10.2,21,13.1c0.8,0.6,2.2,1.8,2.8,1.7c0.1,0,0.3-0.2,0.4-0.5c0.1-0.3-0.1-1-2.8-3.2c-0.1-0.1-0.3-0.2-0.4-0.3
				c-1.6-1.3-3.5-2.7-5.4-3.9c-0.8-0.6-1.7-1.1-2.5-1.7l0,0c-2.1-1.5-4.4-3-6.6-4.4c-1.1-0.7-2.2-1.4-3.2-2.1
				C197.9,170.3,195.9,169.6,194.9,169.6z"/>
		</g>
		<g>
			<path class="st6" d="M193.7,197.5c-1.7,0-3.5-0.1-5.2-0.3c-1.5-0.1-3-0.3-4.5-0.3c-3.8-0.1-7.2-0.3-8.1-1.9
				c-0.2-0.4-0.4-1.2,0.2-2.2c0.2-0.4,0.5-0.7,0.9-1l0,0c0.1-0.1,0.3-0.2,0.4-0.3c0.1-0.1,0.2-0.1,0.3-0.2
				c4.5-3.5,10.7-1.8,16.2,0.2h0.1c2.6,0.9,5.6,2.2,5.3,4.1c-0.3,1.7-3.2,1.8-4.5,1.8h-0.2C194.3,197.5,194,197.5,193.7,197.5z
				 M177.8,192.9c-0.3,0.2-0.5,0.4-0.6,0.6c-0.2,0.4-0.3,0.7-0.2,0.9c0.6,1.1,5.1,1.2,7,1.2c1.6,0,3.1,0.2,4.7,0.3
				c1.9,0.2,3.9,0.3,5.9,0.3h0.2c2.9-0.1,3.3-0.6,3.3-0.8c0-0.1,0.1-1.1-4.4-2.6h-0.1c-5.1-1.8-11-3.5-14.9-0.4
				c-0.1,0.1-0.3,0.2-0.4,0.3C178,192.7,177.9,192.8,177.8,192.9L177.8,192.9z"/>
		</g>
	</g>
	<g>
		<g>
			<g class="st0">
				<path class="st1" d="M148.8,119.1c-9.2-14.7-17.7-30-25.8-45.3c-10.4-19.5-22.6-49.2-19.1-65.2c1.9-8.7,8.2-10.9,15.2-4.3
					c1.1,1.1,2.3,2.1,3.4,3.2c25,23.3,49.7,46.8,73.4,71.5L148.8,119.1z"/>
			</g>
			<g class="st0">
				<path class="st2" d="M211.9,95.9l-28.8,68.6c-6.4-6.4-12.3-13.5-17.9-21c-12.4-16.8-23.1-34.7-33.2-52.9
					c16.3-7.8,36.2-17,51.8-24.1c8.6,8.7,17.1,17.6,25.5,26.6C210.1,94,211,94.9,211.9,95.9z"/>
			</g>
			<g class="st0">
				<path class="st3" d="M259.9,157.8L232.8,198c-7.3-3.9-14.7-7.7-21.5-11.6c-14.5-8.4-26.3-19-36.9-31.3l30.8-66.4
					c1.4,1.4,2.7,2.9,4.1,4.3C227.9,113.1,245.9,134.2,259.9,157.8z"/>
			</g>
			<g class="st0">
				<path class="st4" d="M249.3,141.4c8.3,11.9,15.7,24.4,21.7,37.6c6.3,14,10.6,28.8,14,43.8l-16.9,1.5c-2.9-3.5-5.8-6.6-8.7-9.1
					c-13.6-11.7-32.6-19.8-48.1-28.8c-4.8-2.8-9.3-5.8-13.5-9L249.3,141.4z"/>
			</g>
			<g class="st0">
				<path class="st5" d="M279.1,200.8c2.7,8.5,4.8,17.2,6.7,25.9c1.7,7.8,3,15.7,4.7,23.5c0.7,3.2,1.4,6.3,2.4,9.5
					c0.8,2.6,2.1,6,0.9,8.6c-5,10.9-8.5-11.2-10.9-19.5s-13.8-25.3-23.5-33.6c-0.9-0.8-1.8-1.5-2.7-2.2L279.1,200.8z"/>
			</g>
		</g>
		<g>
			<path class="st6" d="M291.7,272.1c-0.1,0-0.1,0-0.2,0c-2.9-0.3-4.8-7.3-7.2-17.1c-0.5-2.2-1-4.2-1.4-5.7
				c-2.3-7.9-13.5-24.8-23.3-33.3c-9.5-8.2-21.6-14.6-33.4-20.8c-5.1-2.7-10-5.3-14.6-8c-17.3-10.1-32-23.8-46.3-43.1
				c-16.6-22.5-30.2-46.9-42.3-69.8c-3.5-6.6-10.1-19.8-14.8-34c-4.5-13.6-6-24.3-4.4-31.6c1-4.5,3.1-7.4,6.1-8.4
				c3-0.9,6.7,0.4,10.2,3.7l3.4,3.2c26.6,24.7,57.7,54.2,86.8,85.7c23.3,25.2,47,53.1,61.8,86.2c6,13.5,10.8,28.6,14.9,47.8
				c0.9,4,1.6,8.1,2.4,12c0.7,3.8,1.5,7.6,2.3,11.4c0.8,3.7,1.5,6.7,2.4,9.4l0.2,0.6c0.8,2.6,1.9,5.8,0.6,8.4l0,0
				C293.9,271,292.8,272.1,291.7,272.1z M111.9,1.3c-0.6,0-1.1,0.1-1.6,0.2c-2.5,0.8-4.3,3.4-5.2,7.4c-3.3,15.1,7.7,43.4,19,64.8
				c12.1,22.9,25.7,47.1,42.2,69.6c14.1,19.2,28.7,32.8,45.9,42.8c4.6,2.7,9.5,5.2,14.6,7.9c11.8,6.2,24,12.7,33.6,20.9
				c10,8.6,21.4,25.8,23.7,33.9c0.4,1.6,0.9,3.6,1.5,5.8c1.4,6,3.8,15.9,6.1,16.2c0.6,0,1.4-0.9,2.2-2.6c1-2.2,0.1-5.2-0.7-7.5
				L293,260c-0.9-2.8-1.7-5.8-2.4-9.5c-0.8-3.8-1.6-7.7-2.3-11.5c-0.8-3.9-1.5-8-2.4-12c-4.1-19-8.8-34.1-14.8-47.5
				c-14.8-32.9-38.3-60.7-61.6-85.9C180.4,62.2,149.3,32.7,122.8,8l-3.4-3.2C116.7,2.5,114.2,1.3,111.9,1.3z M294.4,268.5
				L294.4,268.5L294.4,268.5z"/>
		</g>
		<g>
			<path class="st6" d="M288.5,257.6c-0.1,0-0.3,0-0.4-0.1c-1.2-0.3-2.2-3.5-4.2-12.8c-0.2-0.8-0.3-1.4-0.4-1.7
				c-0.9-4.2-5.6-20-6.9-23.6c-0.6-1.9-1.2-3.8-1.8-5.6c-1.1-3.5-2.3-7.1-3.7-10.5c-11.4-27.3-28.7-53.9-52.6-81.1
				c-3.3-3.7-15.9-16-30.5-30.3c-20.8-20.3-46.7-45.6-54.3-54.6c-2.6-3.1-25.2-30.3-22.5-34.7c0.3-0.5,0.9-1,2.3-0.6
				c6.5,1.5,81.1,78.2,86.8,84.4c3.6,4,7.3,7.9,10.9,11.6c9,9.5,17.6,18.6,25.8,28.9c10.7,13.5,21.2,30,29.5,46.4
				c5.3,10.4,9.7,21.5,12.9,32c2.4,8.1,4.3,16,6.3,25.3c0.6,2.9,1.2,5.6,1.6,8.2l0,0c0,0.2,0.2,0.9,0.4,1.7c2.1,9,3.1,15.3,1.6,16.8
				C289.2,257.5,288.9,257.6,288.5,257.6z M288.5,256.4L288.5,256.4L288.5,256.4z M288.5,256.3C288.6,256.3,288.6,256.3,288.5,256.3
				c0.7-0.6,0.9-3.8-1.9-15.6c-0.2-0.9-0.3-1.5-0.4-1.8l0,0c-0.4-2.6-1-5.3-1.6-8.2c-2.1-9.3-3.9-17.2-6.3-25.2
				c-3.1-10.4-7.5-21.4-12.8-31.8c-8.3-16.3-18.7-32.7-29.4-46.2c-8.2-10.3-16.7-19.3-25.7-28.8c-3.6-3.8-7.3-7.7-10.9-11.6
				c-7.8-8.5-80.4-82.7-86.1-84c-0.5-0.1-0.9-0.1-1,0.1c-1.3,2.1,8.8,17,22.4,33.2c7.5,8.9,33.4,34.2,54.2,54.5
				c14.6,14.3,27.2,26.6,30.5,30.4c24.1,27.4,41.4,54,52.9,81.5c1.4,3.4,2.6,7.1,3.7,10.6c0.6,1.8,1.2,3.7,1.8,5.6
				c1.3,3.6,6,19.6,6.9,23.8c0.1,0.4,0.2,1,0.4,1.8C286.7,251.8,287.8,255.8,288.5,256.3z"/>
		</g>
		<g>
			<path class="st6" d="M277.8,229.9c-2.5,0-7.5-6-7.6-6.1c-4.4-6-14.8-15.9-24.6-22.1c-4.9-3.1-10.1-6-15.1-8.8
				c-3.9-2.2-7.9-4.4-11.8-6.7c-13.7-8.2-25.9-17.5-36-27.5c-10.1-9.9-17.7-21-25.7-32.7l-2.9-4.2c-2.7-3.8-5.4-7.8-8-11.8
				c-0.3-0.4-0.6-0.9-0.9-1.3c-2-2.8-4.4-6.2-2.8-8.4c0.5-0.7,2.3-1.7,5.5-2.1c6.5-0.8,20.8,0.4,44,18.3
				c32.5,25,52.9,45.9,68.3,69.9c8.2,12.8,14.1,25.4,17.9,38.6c1.3,4.5,0.7,4.7,0.2,4.9C278.1,229.9,277.9,229.9,277.8,229.9z
				 M277.8,228.6L277.8,228.6L277.8,228.6L277.8,228.6z M151,99.3c-1,0-2,0.1-3,0.2c-3.1,0.4-4.4,1.3-4.6,1.6
				c-1.1,1.4,1.2,4.7,2.8,6.8c0.4,0.5,0.7,1,1,1.4c2.6,4,5.4,7.9,8,11.8l2.9,4.2c8,11.6,15.6,22.7,25.5,32.5
				c10.1,10,22.2,19.2,35.8,27.4c3.9,2.3,7.9,4.6,11.8,6.7c5,2.8,10.2,5.7,15.2,8.8c9.9,6.2,20.4,16.3,24.9,22.4
				c1.2,1.6,4.9,5.1,6.2,5.5c-0.1-0.6-0.4-2-0.7-3.3c-3.8-13.1-9.6-25.6-17.7-38.2c-15.3-23.8-35.6-44.6-68-69.6
				C183.6,111.8,165.7,99.3,151,99.3z"/>
		</g>
		<g>
			<path class="st6" d="M190,100.9c-0.9,0-1.9-0.4-2.4-0.6c-27.6-11.3-55.8-24.5-71.4-50c-4.9-8-9.4-20.9-10.3-29.4
				c-0.7-6.4-0.7-14.5,1.3-16.2c0.4-0.4,0.9-0.5,1.5-0.4c1.5,0.3,2.7,2.7,3.8,5.3c0.1,0.2,0.2,0.4,0.2,0.6
				c5.1,10.3,13,19.4,20.7,28.1c0.9,1,1.7,1.9,2.6,2.9c11.8,13.4,23.6,24.9,36.1,37.1c3.8,3.7,7.7,7.4,11.5,11.3
				c1.6,1.3,4.4,4.2,5.8,5.7c1.2,1.3,2.7,3.7,1.8,5C191.1,100.8,190.6,100.9,190,100.9z M108.4,5.5c-0.1,0-0.1,0-0.3,0.1
				c-1.1,0.9-1.8,6.5-0.9,15.1c0.8,7.3,4.7,20.1,10.1,28.9c15.4,25.2,43.4,38.3,70.7,49.5c1.6,0.7,2.2,0.5,2.3,0.4
				c0.3-0.4-0.3-2-1.7-3.4c-1.5-1.6-4.2-4.4-5.7-5.6l0,0c-3.9-3.9-7.8-7.6-11.6-11.3C158.8,67,146.9,55.5,135.1,42
				c-0.8-1-1.7-1.9-2.6-2.9c-7.8-8.8-15.8-17.9-20.9-28.4c-0.1-0.1-0.2-0.3-0.3-0.6C111,9,109.6,5.8,108.4,5.5
				C108.5,5.5,108.5,5.5,108.4,5.5z"/>
		</g>
		<g>
			<path class="st6" d="M195.5,105.5c-0.6,0-1.4-0.2-2.1-0.5c-1.9-0.8-2.9-2.3-2.4-3.4l0,0c0.3-0.6,0.9-1,1.8-1
				c0.7,0,1.6,0.1,2.4,0.5c0.8,0.4,1.5,0.9,2,1.4c0.6,0.7,0.7,1.4,0.5,2C197.2,105.1,196.5,105.5,195.5,105.5z M192.1,102.1
				c-0.1,0.3,0.4,1.2,1.8,1.7c1.3,0.6,2.3,0.4,2.5,0.1c0-0.1,0-0.4-0.3-0.7c-0.3-0.4-0.9-0.8-1.5-1.1c-0.6-0.3-1.3-0.4-1.8-0.4
				C192.4,101.9,192.2,102,192.1,102.1L192.1,102.1z"/>
		</g>
		<g>
			<path class="st6" d="M143.5,97.8c-3.4,0-6.3-2.2-7.8-5.9c-0.4-1.1-0.1-1.7,0.2-2c0.4-0.4,1.4-1.5,7.8,0.7c0.3,0.1,0.6,0.2,1,0.3
				c1.5,0.4,3.3,0.9,4.1,1.8c0.5,0.6,0.8,1.2,0.7,1.8l0,0c-0.1,2.2-3.7,3.2-5.1,3.3C144.2,97.8,143.8,97.8,143.5,97.8z M137.9,90.6
				c-0.6,0-0.9,0.1-1,0.2s0,0.6,0.1,0.7c1.4,3.6,4.2,5.5,7.5,5c1.6-0.2,3.9-1.1,4-2.1l0,0c0-0.3-0.1-0.6-0.4-0.9
				c-0.5-0.6-2.3-1.1-3.5-1.4c-0.4-0.1-0.8-0.2-1.1-0.3C140.6,90.8,138.9,90.6,137.9,90.6z"/>
		</g>
		<g>
			<path class="st6" d="M135.8,88.5c-0.6,0-1.2-0.1-1.9-0.4c-1.8-0.8-2.8-2.5-2.3-3.8l0,0c0.6-1.3,2.5-1.8,4.3-1s2.8,2.5,2.3,3.8
				C137.9,88,137,88.5,135.8,88.5z M132.9,84.7c-0.2,0.6,0.3,1.6,1.6,2.1c1.2,0.5,2.4,0.3,2.6-0.3c0.2-0.6-0.3-1.6-1.6-2.1
				C134.3,83.9,133.1,84.2,132.9,84.7L132.9,84.7z"/>
		</g>
		<g>
			<path class="st6" d="M108.8,10.9c-0.2,0-0.5,0-0.7-0.2c-0.9-0.4-1.4-1.5-1-2.4l0,0c0.2-0.5,0.6-0.8,1-1c0.5-0.2,1-0.2,1.4,0
				c0.5,0.2,0.8,0.6,1,1c0.2,0.5,0.2,1,0,1.4C110.2,10.5,109.5,10.9,108.8,10.9z M108.3,8.8c-0.1,0.3,0,0.6,0.3,0.7s0.6,0,0.7-0.3
				c0.1-0.1,0.1-0.3,0-0.4s-0.2-0.2-0.3-0.3c-0.1-0.1-0.3-0.1-0.4,0C108.5,8.6,108.4,8.7,108.3,8.8L108.3,8.8z"/>
		</g>
		<g>
			<path class="st6" d="M115.3,8.5c-0.3,0-0.6-0.1-0.8-0.2c-0.5-0.2-0.8-0.6-1-1c-0.2-0.5-0.2-1,0-1.4l0,0c0.2-0.5,0.6-0.8,1.1-1
				s1-0.1,1.5,0.1s0.8,0.6,1,1c0.2,0.5,0.2,1,0,1.4c-0.2,0.5-0.6,0.8-1.1,1C115.7,8.4,115.5,8.5,115.3,8.5z M115.1,6
				c-0.1,0-0.2,0-0.2,0c-0.1,0-0.2,0.1-0.3,0.3l0,0c-0.1,0.2,0,0.3,0,0.4c0.1,0.2,0.2,0.3,0.4,0.4c0.2,0.1,0.4,0.1,0.5,0
				c0.1,0,0.2-0.1,0.3-0.3c0.1-0.2,0-0.3,0-0.4c-0.1-0.2-0.2-0.3-0.4-0.4C115.3,6.1,115.2,6,115.1,6z"/>
		</g>
		<g>
			<path class="st6" d="M291.7,268.8c-0.1,0-0.2,0-0.3,0c-2.2-0.5-3.3-6.7-3.4-7.7c0-1.2,0.5-2.2,1.4-2.7c0.8-0.4,1.7-0.3,2.4,0.4
				l0,0c1.7,1.7,2.6,7,1.8,8.5C292.9,268.5,292.2,268.8,291.7,268.8z M290.3,259.4c-0.1,0-0.2,0-0.3,0.1c-0.5,0.3-0.7,1-0.7,1.5
				c0.1,1.6,1.4,6.2,2.4,6.5c0.1,0,0.4-0.2,0.7-0.8c0.5-0.9-0.1-5.6-1.5-7C290.6,259.5,290.4,259.4,290.3,259.4z"/>
		</g>
		<g>
			<path class="st6" d="M248,179.5c-8,0-39.2-10.9-39.6-11c-16.1-5.8-30.3-16.9-40.1-31.1c-2.2-3.1-4.3-6.5-6.4-9.7
				c-4.6-7-9.3-14.3-14.6-20.7l-0.2-0.2c-1.1-1.3-2.6-3.1-2.1-4.6c0.3-0.8,1.1-1.4,2.4-1.7c4.2-0.9,15.6,1,27.8,7.7
				c16.1,8.9,25.8,17.8,37.9,29c1.2,1.1,2.3,2.2,3.5,3.3c1.6,1.5,10.3,10,18.3,18.5c15.3,16.2,15,18.5,14.9,19.4
				c-0.1,0.5-0.3,0.8-0.5,0.9C249.3,179.4,248.8,179.5,248,179.5z M150.1,101.6c-0.9,0-1.6,0.1-2.2,0.2c-0.6,0.1-1.3,0.4-1.5,0.8
				c-0.3,0.8,1,2.4,1.8,3.4l0.2,0.2c5.4,6.4,10.1,13.7,14.7,20.8c2.1,3.2,4.2,6.5,6.3,9.6c9.6,14,23.6,24.9,39.5,30.6
				c12.8,4.6,37.9,12.2,40,10.9c0.1-0.3,0-2.8-14.6-18.3l0,0c-8-8.5-16.6-16.9-18.2-18.4c-1.2-1.1-2.4-2.2-3.5-3.3
				c-12.1-11.2-21.7-20.1-37.7-28.8C164.7,103.7,155.2,101.6,150.1,101.6z"/>
		</g>
		<g>
			<path class="st6" d="M232.7,131.7c-0.2,0-0.4,0-0.7-0.1c-1.6-0.3-5.5-4.5-11.8-11.3c-2.7-2.9-5.5-6-7.9-8.4
				c-6-6-13.3-12.9-21-20.2c-19.9-18.8-44.7-42.2-62.5-64.8c-0.1-0.1-0.1-0.2-0.2-0.2c-1-1.5-2.7-3.6-4.5-5.9
				c-5.6-7.1-8.2-10.6-7.6-12c0.2-0.4,0.5-0.6,1-0.6c2.6-0.1,9.9,7.4,20,18c1.4,1.4,2.7,2.8,3.8,4c7,7.3,53.5,54.8,67.5,69.1
				l0.1,0.1c4.3,4.4,8.9,9.2,13.2,13.9c4.4,4.9,8.7,9.6,12.2,14.4c0.7,0.9,0.8,2,0.3,2.8C234.3,131.4,233.6,131.7,232.7,131.7z
				 M117.7,9.6c0.2,1.5,4.7,7.1,7.4,10.5c1.8,2.3,3.5,4.4,4.6,6l0.1,0.1v0.1c17.7,22.4,42.5,45.8,62.3,64.6
				c7.8,7.3,15.1,14.2,21,20.2c2.4,2.4,5.2,5.5,7.9,8.4c4.4,4.8,9.9,10.7,11.1,10.9c0.7,0.1,1.2,0,1.3-0.3c0.2-0.3,0.1-0.9-0.3-1.3
				l0,0c-3.5-4.8-7.7-9.5-12.1-14.3c-4.3-4.7-8.9-9.4-13.2-13.9l-0.1-0.1c-14.1-14.4-60.5-61.8-67.5-69.2c-1.2-1.2-2.5-2.6-3.8-4
				C130.4,20.7,120.1,9.8,117.7,9.6z"/>
		</g>
		<g>
			<path class="st6" d="M259.2,196.1c-1.7,0-4.3-1.9-7.9-4.9c-0.7-0.6-1.4-1.1-2.1-1.6c-3.4-2.6-5.1-3.4-7-4.2
				c-0.8-0.4-1.7-0.8-2.8-1.3c-1.2-0.6-3.3-1.9-3.5-3.1c-0.1-0.4-0.1-1.2,1.2-1.6l0,0c3.2-1,14.4,1.1,17.7,4.4
				c2.8,2.8,7.5,9.3,5.8,11.8c-0.3,0.4-0.6,0.6-1.1,0.7C259.4,196,259.3,196.1,259.2,196.1z M239.3,180.2c-0.8,0-1.4,0.1-1.8,0.2
				l0,0c-0.2,0.1-0.3,0.1-0.3,0.2c0.1,0.4,1.1,1.4,2.8,2.3c1,0.6,1.9,0.9,2.7,1.3c1.9,0.9,3.7,1.7,7.3,4.4c0.7,0.5,1.4,1.1,2.1,1.7
				c2.5,2,6,4.8,7.2,4.6c0.1,0,0.2-0.1,0.2-0.1c0.9-1.2-2.1-6.5-5.7-10.1C251.4,182.1,243.4,180.2,239.3,180.2z"/>
		</g>
		<g>
			<path class="st6" d="M264.2,204.2c-0.5,0-1.1-0.2-1.8-0.7c-1.6-1.3-3-3.8-3.1-5.4c0-0.6,0.1-1.1,0.5-1.5c0.7-0.6,1.9-0.5,3-0.3
				c0.9,0.2,1.6,1,2,1.7c0.8,1.2,1.4,3.2,1.1,4.7l0,0c-0.2,0.8-0.6,1.3-1.2,1.5C264.6,204.1,264.4,204.2,264.2,204.2z M261.4,197.3
				c-0.4,0-0.6,0.1-0.6,0.1c-0.1,0.1-0.1,0.2-0.1,0.5c0.1,1.2,1.2,3.4,2.6,4.5c0.5,0.4,0.9,0.5,1.1,0.4s0.3-0.3,0.4-0.6l0,0
				c0.2-0.9-0.2-2.5-0.9-3.7c-0.5-0.7-0.9-1-1.2-1.1C262.1,197.4,261.7,197.3,261.4,197.3z"/>
		</g>
		<g>
			<path class="st6" d="M266.5,208.3c-0.2,0-0.3,0-0.5-0.1l0,0c-1.2-0.3-1.9-1.5-1.6-2.6c0.1-0.6,0.5-1.1,1-1.4
				c0.5-0.3,1.1-0.4,1.7-0.3c0.6,0.1,1.1,0.5,1.4,1s0.4,1.1,0.3,1.7C268.4,207.6,267.5,208.3,266.5,208.3z M266.3,207
				c0.5,0.1,1-0.2,1.1-0.7c0.1-0.2,0-0.5-0.1-0.7s-0.3-0.4-0.6-0.4c-0.2-0.1-0.5,0-0.7,0.1s-0.4,0.3-0.4,0.6
				C265.5,206.3,265.8,206.8,266.3,207L266.3,207z"/>
		</g>
		<g>
			<path class="st6" d="M237.1,136.6c-0.2,0-0.3,0-0.5-0.1c-0.6-0.1-1.2-0.5-1.7-1c-1.2-1.1-1.6-2.6-0.9-3.4c0.4-0.4,1-0.6,1.7-0.4
				c0.6,0.1,1.2,0.5,1.7,1s0.9,1.1,1.1,1.6c0.2,0.7,0.1,1.3-0.3,1.8C238,136.4,237.6,136.6,237.1,136.6z M235.2,133
				c-0.1,0-0.2,0-0.3,0.1c-0.2,0.2,0,0.9,0.8,1.6c0.4,0.3,0.8,0.6,1.2,0.7c0.3,0.1,0.4,0,0.5,0c0.1-0.1,0.1-0.2,0-0.5
				c-0.1-0.4-0.4-0.8-0.8-1.1c-0.4-0.3-0.8-0.6-1.2-0.7C235.3,133,235.2,133,235.2,133z"/>
		</g>
		<g>
			<path class="st6" d="M131.4,82.9c-0.4,0-0.7-0.1-1.1-0.2c-1.2-0.5-1.8-1.6-1.4-2.5l0,0c0.2-0.5,0.6-0.8,1.2-0.9
				c0.5-0.1,1.1,0,1.6,0.2s1,0.6,1.2,1c0.3,0.5,0.4,1.1,0.2,1.5c-0.2,0.5-0.6,0.8-1.2,0.9C131.7,82.9,131.6,82.9,131.4,82.9z
				 M130.1,80.7c-0.1,0.2,0.2,0.6,0.7,0.9c0.3,0.1,0.6,0.2,0.8,0.1c0.2,0,0.3-0.1,0.3-0.2s0-0.2-0.1-0.3c-0.1-0.2-0.4-0.4-0.6-0.5
				c-0.3-0.1-0.6-0.2-0.8-0.1C130.2,80.5,130.1,80.6,130.1,80.7L130.1,80.7z"/>
		</g>
		<g>
			<path class="st6" d="M234.1,180.4c-0.7,0-1.4-0.2-2.1-0.5c-0.7-0.3-1.3-0.7-1.8-1.2c-0.8-0.8-0.7-1.4-0.5-1.7
				c0.1-0.3,0.5-0.8,1.6-0.8c0.6,0,1.3,0.2,2.1,0.5c1.4,0.6,2.8,1.8,2.3,2.9C235.4,180.2,234.8,180.4,234.1,180.4z M230.9,177.6
				c0.1,0.2,0.7,0.7,1.6,1.1c0.9,0.4,1.6,0.4,1.9,0.4c-0.1-0.2-0.7-0.7-1.6-1.1C231.9,177.6,231.2,177.5,230.9,177.6z"/>
		</g>
		<g>
			<path class="st6" d="M155.3,70.9c-1.9,0-3.8-0.4-3.9-0.4c-4.9-1.1-9.6-2.7-13.9-4.6c-9.3-4.2-17-12-22.3-22.5
				c-2.8-5.4-4.7-10.9-5.7-16.2l-0.1-0.3c-1.2-6-1.2-9.8,0.1-11.5c0.4-0.6,1-1,1.7-1c1.1-0.1,2.9,2.1,8,9.4c1.1,1.6,2.2,3.1,3.1,4.3
				c3.2,4.3,6.9,8.7,11.2,13.6c3.5,3.9,7.2,7.8,10.6,11.4c1.8,1.9,3.8,3.8,5.6,5.6c1.2,1.1,2.3,2.3,3.5,3.4c1.8,1.8,3.2,3.3,5,5.5
				c0.9,1.1,0.7,1.8,0.5,2.2C158.2,70.7,156.7,70.9,155.3,70.9z M111.3,15.7c-0.3,0.1-0.5,0.2-0.8,0.5c-0.7,1-1.2,3.6,0.1,10.5
				l0.1,0.3c1,5.2,2.9,10.5,5.6,15.9c5.2,10.2,12.7,17.8,21.7,21.9c4.2,1.9,8.8,3.5,13.6,4.6c1.9,0.4,5.5,0.6,5.9-0.1
				c0-0.1,0-0.3-0.4-0.8c-1.8-2.2-3.2-3.7-4.9-5.4c-1.1-1.1-2.3-2.3-3.4-3.4c-1.9-1.8-3.8-3.7-5.7-5.7c-3.4-3.6-7.1-7.4-10.6-11.4
				l0,0c-4.4-4.9-8.1-9.4-11.3-13.7c-0.9-1.2-2-2.7-3.1-4.3C115.8,21.1,112.3,16.1,111.3,15.7z M111.3,15.7L111.3,15.7L111.3,15.7z"
				/>
		</g>
		<g>
			<path class="st6" d="M218,150.7c-0.1,0-0.2,0-0.3,0c-6.9-0.2-13.6-1-19.9-1.9c-1.2-0.2-2.4-0.3-3.6-0.5
				c-5.5-0.7-11.3-1.3-16.2-4.4c-5.7-3.6-8.9-9.5-12.1-15.3l-0.9-1.7c-1.7-3-3.8-5.8-5.9-8.6c-2.3-3-4.8-6.1-6.5-9.6
				c-0.7-1.4-0.7-2.5-0.1-3.4c1.2-1.7,4.8-1.4,6.2-1.2c7.3,1.1,13.5,4.2,18.5,7.1c6,3.5,10.8,7.2,16.6,12c4.3,3.5,10.8,9,15.6,13.3
				c2.6,2.4,5.6,5,8.2,7.9l0.2,0.2c1.6,1.7,3,3.5,2.4,4.9C219.8,150.6,218.6,150.7,218,150.7z M156.6,105.4c-1.5,0-2.6,0.3-3,0.9
				c-0.3,0.4-0.2,1.1,0.2,2c1.7,3.4,4.1,6.4,6.4,9.4c2.1,2.8,4.3,5.6,6,8.7l0.9,1.7c3,5.6,6.2,11.4,11.6,14.8
				c4.7,2.9,10.2,3.6,15.6,4.2c1.2,0.1,2.4,0.3,3.6,0.5c6.2,0.9,13,1.7,19.8,1.9c0.9,0,1.2-0.2,1.3-0.3c0.1-0.3-0.1-1.1-2.2-3.5
				l-0.2-0.2c-2.5-2.8-5.5-5.5-8.1-7.8c-4.8-4.3-11.2-9.8-15.5-13.3c-5.7-4.7-10.5-8.4-16.4-11.8c-5.2-3-10.9-6-18-7
				C157.9,105.4,157.2,105.4,156.6,105.4z"/>
		</g>
		<g>
			<path class="st6" d="M199,134.4c-1.1,0-2.5-0.6-3.9-1.3c-0.3-0.1-0.5-0.2-0.7-0.3c-3.4-1.4-6.7-3-10.1-4.7l-2.1-1.1
				c-5.5-2.7-11.1-5.5-16.3-8.9c-0.5-0.3-1-0.7-1.5-1c-2.9-1.9-6.6-4.3-8.6-7.1c-1-1.4-0.8-2.2-0.5-2.7s1-1,2.8-0.8
				c5.9,0.7,10.5,2.8,14.6,5c5.7,3,11.2,6.5,16.3,10.4l0,0c0.5,0.3,11.6,9,11.5,11.4c0,0.4-0.2,0.7-0.5,0.8
				C199.7,134.4,199.3,134.4,199,134.4z M157.3,107.7c-0.6,0-0.9,0.2-1,0.3c-0.1,0.1-0.1,0.6,0.5,1.3c1.8,2.6,5.4,4.9,8.2,6.7
				c0.5,0.3,1.1,0.7,1.5,1c5.1,3.4,10.7,6.2,16.2,8.8l2.1,1.1c3.3,1.7,6.6,3.3,10,4.6c0.2,0.1,0.5,0.2,0.8,0.3
				c0.8,0.4,2.7,1.3,3.5,1.2c-0.5-1.4-5.9-6.3-11-10.2l0,0l0.4-0.5l-0.4,0.5c-5-3.9-10.4-7.3-16.1-10.3c-4-2.1-8.5-4.2-14.2-4.8
				C157.6,107.8,157.5,107.7,157.3,107.7z"/>
		</g>
		<g>
			<path class="st6" d="M214.6,123.7c-3.6,0-12.5-3.5-14.2-4.4c-0.7-0.4-1.5-0.7-2.4-1.1c-3.3-1.4-7.4-3.2-8.8-6.4
				c-0.8-1.9-0.7-3.3,0.2-4.1c2.8-2.5,12.6,1.5,14.1,2.3l0,0c6.1,3.5,12.6,9.1,12.8,12.5c0,0.4-0.2,0.7-0.5,0.9
				C215.5,123.6,215.1,123.7,214.6,123.7z M192.2,108c-0.9,0-1.6,0.2-2,0.5c-0.5,0.5-0.5,1.4,0.1,2.7c1.2,2.7,5,4.4,8.1,5.7
				c0.9,0.4,1.8,0.8,2.5,1.1c3.5,1.8,12.4,4.7,14,4.3c-0.4-2.6-5.8-7.7-12.1-11.3l0,0C201.4,110.2,195.6,108,192.2,108z"/>
		</g>
		<g>
			<path class="st6" d="M186.3,110.1c-0.8,0-1.6-0.3-2.2-0.6c-2.6-1.3-2.3-2.7-2.1-3.1c0.4-0.9,1.6-1.2,2.8-0.8
				c0.2,0.1,0.4,0.1,0.6,0.2c1.2,0.3,2.8,0.7,3,2.1l0,0c0,0.3,0,0.6-0.1,0.9c-0.2,0.5-0.6,0.9-1.1,1.2
				C187,110.1,186.6,110.1,186.3,110.1z M183.8,106.7c-0.4,0-0.6,0.1-0.6,0.2c-0.1,0.2,0.2,0.8,1.5,1.5c0.6,0.3,1.6,0.5,2.1,0.3
				c0.2-0.1,0.3-0.2,0.4-0.4c0-0.1,0.1-0.2,0.1-0.3l0,0c-0.1-0.5-1.3-0.8-2-1c-0.3-0.1-0.5-0.1-0.7-0.2
				C184.2,106.8,184,106.7,183.8,106.7z"/>
		</g>
		<g>
			<path class="st6" d="M257.4,168.3c-0.1,0-0.2,0-0.3,0c-1.1-0.2-1.9-1.5-2.8-3.3c-2.1-4-9-13.5-13.9-20.3c-2-2.7-3.2-4.4-2.9-5.8
				c0.1-0.6,0.5-1.1,1.1-1.5c1.2-0.7,2.6-0.2,4.3,1.5c1.3,1.3,2.5,3.2,3.4,4.5c0.7,1,1.4,2.1,2.1,3.2c1.5,2.2,3,4.5,4.3,6.7
				c0.5,0.8,1,1.7,1.6,2.5c1.2,1.9,2.4,3.9,3.4,5.8c0.1,0.1,0.1,0.2,0.2,0.4c1.1,2.1,2.2,4.5,1,5.6
				C258.3,168.1,257.8,168.3,257.4,168.3z M239.6,138.5c-0.2,0-0.3,0-0.4,0.1c-0.4,0.3-0.5,0.5-0.5,0.6c-0.2,0.9,1,2.5,2.7,4.8
				c5,6.8,11.9,16.3,14,20.4c0.5,0.9,1.3,2.5,1.9,2.6c0.1,0,0.3-0.1,0.6-0.3c0.2-0.2,0.3-1-1.3-4c-0.1-0.2-0.2-0.3-0.2-0.4
				c-0.9-1.9-2.2-3.8-3.4-5.7c-0.5-0.9-1.1-1.7-1.6-2.5l0,0c-1.3-2.2-2.8-4.5-4.3-6.7c-0.7-1.1-1.4-2.2-2.1-3.2
				c-0.8-1.2-2-3-3.2-4.3C241.2,139.2,240.3,138.5,239.6,138.5z"/>
		</g>
		<g>
			<path class="st6" d="M232.2,165c-1.1,0-2.5-0.5-3.3-0.9l-0.2-0.1c-1.9-0.8-3.7-1.7-5.4-2.6c-1.3-0.7-2.7-1.4-4.1-2.1
				c-3.4-1.5-6.5-3.1-6.7-5c0-0.5,0.1-1.2,1-1.9c0.3-0.2,0.7-0.4,1.2-0.5l0,0c0.1,0,0.3-0.1,0.5-0.1c0.1,0,0.2,0,0.4-0.1
				c5.5-1.4,10.5,2.6,14.8,6.6l0.1,0.1c1.9,1.7,4.3,4.3,3.2,5.8C233.4,164.8,232.8,165,232.2,165z M218,152.8c-0.6,0-1.3,0.1-2,0.3
				c-0.2,0-0.3,0.1-0.5,0.1c-0.1,0-0.2,0-0.4,0.1l0,0c-0.3,0.1-0.6,0.2-0.8,0.3c-0.4,0.3-0.5,0.5-0.5,0.7c0.1,1.3,4.2,3.1,5.9,3.9
				c1.4,0.6,2.8,1.4,4.2,2.1c1.7,0.9,3.5,1.9,5.3,2.6l0.2,0.1c2.7,1.1,3.2,0.8,3.3,0.6c0.1-0.1,0.5-0.9-3-4.2l-0.1-0.1
				C226.1,156.1,222.2,152.8,218,152.8z"/>
		</g>
	</g>
	<g>
		<path class="st7" d="M265,163.6c17.5-3.1,40.2-3.2,56.1,4.1c21.4,9.9,32,26.8,42.2,47.9c4.9,10,32.6,72.1,38.8,107
			s4.3,60.6-5.3,82.6c-9.6,22-33.9,38.7-49.2,45.4c-29.2,12.8-62.7,19.2-94.2,11.4c-24.2-5.9-51.1-21.3-59.3-46.2
			c-5.1-15.3-3.1-32.2-0.5-47.8c2.3-13.5,5-19.8,9.9-32.5c4.6-12,13-31.4,10.4-44.7c-3-15.3-10.1-29.7-11.8-45.2
			c-1.8-16.8,1.9-33.4,10.1-48.2c5.6-10,16.4-17.8,26.1-23.8C246.4,168.6,255.5,165.3,265,163.6z"/>
		<path class="st8" d="M282.1,466c-9.4,0-19-1-28.8-3.4c-23.3-5.7-51.3-21-59.8-46.7c-5.2-15.9-3-33.1-0.5-48.1
			c2.1-12.3,4.5-18.7,8.7-29.4c0.4-1,0.8-2.1,1.3-3.3c0.4-1.1,0.9-2.2,1.3-3.4c4.8-12.2,11.3-29,9-40.9c-1.3-6.6-3.4-13.1-5.4-19.4
			c-2.7-8.4-5.5-17-6.4-25.9c-1.8-16.6,1.7-33.3,10.1-48.6c5.9-10.7,17.8-18.8,26.3-24c8-4.9,17.1-8.4,26.9-10.1l0,0
			c8-1.4,35.8-5.4,56.4,4.2c22.7,10.6,33.5,29.6,42.5,48.2c4.8,9.9,32.6,71.9,38.8,107.1c6.1,34.3,4.4,60.6-5.3,83
			C387,428.7,361.3,445,347.7,451C330.9,458.6,307.5,466,282.1,466z M287.6,162.2c-8,0-15.8,0.8-22.5,2c-9.7,1.7-18.6,5.1-26.5,9.9
			c-8.3,5.1-20.1,13.2-25.9,23.6c-8.3,15-11.8,31.5-10,47.8c1,8.8,3.7,17.3,6.4,25.6c2,6.3,4.1,12.9,5.4,19.5
			c2.4,12.3-4.2,29.3-9.1,41.6c-0.5,1.2-0.9,2.4-1.3,3.4c-0.4,1.1-0.9,2.2-1.3,3.3c-4.1,10.6-6.6,16.9-8.6,29.1
			c-2.5,14.8-4.7,31.9,0.5,47.4c8.3,25.2,35.8,40.2,58.9,45.8c35.8,8.8,70.8-1.3,93.8-11.4c13.4-5.9,38.8-22,48.9-45
			c9.6-22.1,11.3-48.2,5.2-82.2c-3.3-18.4-12.6-44.2-19.9-62.7c-8.2-20.9-16.4-39-18.9-44.1c-11.2-23-21.7-38.2-41.9-47.6
			C311.2,163.9,299.2,162.2,287.6,162.2z M265,163.6L265,163.6L265,163.6z"/>
	</g>
	<g class="st9">
		<path class="st6" d="M221.7,268c-1,0.3,2.7,5.7,6.8,7.5c6.9,3.1,17.4,1.3,21.4-8.6c1.7-4.2,1.1-8.8,1.1-8.8L221.7,268z"/>
	</g>
	<g>
		
			<ellipse transform="matrix(0.9916 -0.129 0.129 0.9916 -30.6952 32.2246)" class="st10" cx="233.4" cy="253.1" rx="17.9" ry="21"/>
		<path class="st8" d="M234.1,274.7c-9.3,0-17.7-8.2-19.1-19.2c-0.7-5.7,0.5-11.3,3.4-15.8c2.9-4.5,7.3-7.4,12.2-8
			c10.1-1.3,19.6,7.2,21.2,19c0.7,5.7-0.5,11.3-3.4,15.8s-7.3,7.4-12.2,8C235.5,274.6,234.8,274.7,234.1,274.7z M232.7,232.8
			c-0.6,0-1.3,0-1.9,0.1c-4.6,0.6-8.6,3.2-11.3,7.4c-2.8,4.2-3.9,9.5-3.2,15c1.4,11.1,10.3,19.2,19.7,17.9c4.6-0.6,8.6-3.2,11.3-7.4
			c2.8-4.2,3.9-9.5,3.2-15C249.2,240.5,241.4,232.8,232.7,232.8z"/>
	</g>
	<g class="st9">
		<path class="st6" d="M288.1,249.7c0,0-0.7,7.2,1.6,12c1.6,3.4,5.2,8.1,9.4,9.3c4.2,1.2,9,0.6,12.7-2.2L288.1,249.7z"/>
	</g>
	<g>
		
			<ellipse transform="matrix(0.9728 -0.2316 0.2316 0.9728 -49.4643 77.5613)" class="st10" cx="305.6" cy="249.5" rx="17.4" ry="20.4"/>
		<path class="st8" d="M306.8,270.4c-3.5,0-7.1-1.2-10.2-3.5c-4.2-3.1-7.3-7.8-8.5-13.2c-2.7-11.3,3-22.3,12.7-24.7
			c9.7-2.3,19.8,5,22.4,16.3l0,0c2.7,11.3-3,22.3-12.7,24.7C309.2,270.3,308,270.4,306.8,270.4z M304.3,229.9
			c-1.1,0-2.2,0.1-3.3,0.4c-9,2.1-14.3,12.5-11.7,23.1c1.2,5.2,4.1,9.6,8.1,12.5c3.9,2.9,8.5,3.9,12.8,2.9
			c9-2.1,14.3-12.5,11.7-23.1l0,0C319.7,236.3,312.2,229.9,304.3,229.9z"/>
	</g>
	<g>
		<path class="st8" d="M268,287.4h-2.2c-1.9,0-2.5-0.5-3.2-1.1c-0.2-0.2-0.5-0.4-0.8-0.6c-0.7-0.4-0.5-0.9-0.5-1.1
			c0.2-0.4,0.7-0.7,2.6-0.5c1.1,0.1,2.3,0.3,3,0.5c1.7,0.5,1.9,1.8,1.7,2.4C268.6,287.2,268.3,287.4,268,287.4z M263.4,285.4
			c0.6,0.5,1,0.8,2.4,0.8h1.4c-0.1-0.1-0.3-0.2-0.7-0.3C265.8,285.6,264.4,285.4,263.4,285.4z"/>
	</g>
	<g>
		<path class="st8" d="M273.4,287c-0.2,0-0.4-0.1-0.6-0.3c-0.3-0.5-0.4-1.8,1.1-2.7c0.6-0.4,1.7-0.8,2.8-1.1c1.8-0.6,2.4-0.4,2.7,0
			c0.1,0.1,0.4,0.6-0.2,1.2c-0.3,0.3-0.4,0.5-0.6,0.7c-0.6,0.7-1.1,1.4-2.9,1.8l-2.2,0.5C273.5,287,273.4,287,273.4,287z M277.5,284
			c-1,0.3-2.3,0.7-3,1.1c-0.3,0.2-0.5,0.3-0.6,0.5l1.4-0.3C276.7,285,277.1,284.6,277.5,284z"/>
	</g>
	<g class="st9">
		<path class="st6" d="M268,286.8c0,0,0.3-1.1-1.3-1.6s-5.9-0.8-4.6,0s1.4,1.6,3.7,1.6C268,286.8,268,286.8,268,286.8z"/>
	</g>
	<g class="st9">
		<path class="st6" d="M273.4,286.4c0,0-0.6-1,0.9-1.8c1.4-0.8,5.6-2.1,4.5-1s-1.1,1.9-3.2,2.3C273.4,286.4,273.4,286.4,273.4,286.4
			z"/>
	</g>
	<g>
		<path class="st1" d="M273.3,295.9l3.7,0.3c0,0-0.7,1-0.8,2.5c-0.1,1.6,0,4-2.8,3.3s-3-4.9-3-4.9L273.3,295.9z"/>
	</g>
	<g>
		<path class="st8" d="M268.5,297.9c-1.2,0-2.3-0.1-2.3-0.1c-0.4,0-0.6-0.4-0.6-0.7c0-0.4,0.4-0.6,0.7-0.6c0,0,2.3,0.3,3.8,0
			c1-0.2,1.9-0.7,2.4-0.9l-1.1-4.6c0-0.1,0-0.1,0-0.2c0-0.3,0.2-0.5,0.5-0.6s0.7,0.1,0.8,0.5l1.2,4.7c0.6,0.1,1.9,0.3,3.1,0.2
			c1.7-0.2,4-0.9,4-0.9c0.3-0.1,0.7,0.1,0.8,0.4c0.1,0.3-0.1,0.7-0.4,0.8c-0.1,0-2.5,0.8-4.3,1c-1.5,0.1-3-0.1-3.6-0.3
			c-0.5,0.3-1.7,1-3,1.2C269.8,297.9,269.1,297.9,268.5,297.9z"/>
	</g>
	<g>
		<path class="st8" d="M274.1,302.8c-0.3,0-0.6,0-1-0.1c-3.3-0.7-3.5-5.3-3.5-5.5c0-0.4,0.3-0.6,0.6-0.7c0.4,0,0.6,0.3,0.7,0.6
			c0,0,0.2,3.8,2.5,4.3c0.7,0.1,1.1,0.1,1.4-0.1c0.5-0.4,0.5-1.3,0.6-2.1c0-0.2,0-0.4,0-0.5c0.2-1.7,0.9-2.8,0.9-2.9
			c0.2-0.3,0.6-0.4,0.9-0.2c0.3,0.2,0.4,0.6,0.2,0.9c0,0-0.6,0.9-0.7,2.2c0,0.2,0,0.3,0,0.5c-0.1,1.1-0.2,2.4-1.1,3.1
			C275.2,302.7,274.7,302.8,274.1,302.8z"/>
	</g>
	<g>
		<path class="st8" d="M359.8,354c-2.6,0-5.7-1.3-7.4-2.4c-0.3-0.2-0.4-0.6-0.2-0.9c0.2-0.3,0.6-0.4,0.9-0.2c2,1.2,5.9,2.7,8.1,2
			c0.5-0.2,0.9-0.5,1.2-1.1c0.6-1.3,0.3-3.2-0.1-4.5c-0.8-2-7.6-17.6-7.6-17.8c-0.1-0.3,0-0.7,0.3-0.8c0.3-0.1,0.7,0,0.8,0.3
			c0.3,0.6,6.9,15.8,7.7,17.9c0.6,1.6,0.9,3.8,0.1,5.5c-0.4,0.9-1.1,1.5-1.9,1.7C361,353.9,360.4,354,359.8,354z"/>
	</g>
	<g>
		<path class="st7" d="M210.2,347.6c0,0-1.6,0-3.8,0s-10.8-0.3-12.7-3.2c-1.9-2.9,3.5-5.7,7-10.2s7-10,8.5-13.5"/>
		<path class="st8" d="M210.2,348.2h-3.8c-1.8,0-11.1-0.2-13.3-3.5c-1.6-2.4,0.7-4.6,3.4-7.1c1.2-1.1,2.6-2.4,3.7-3.9
			c3.5-4.5,6.9-9.9,8.4-13.4c0.1-0.3,0.5-0.5,0.8-0.3c0.3,0.1,0.5,0.5,0.3,0.8c-1.6,3.6-5,9.1-8.6,13.7c-1.2,1.5-2.6,2.8-3.8,4
			c-2.7,2.5-4.1,4-3.2,5.4c1.5,2.3,8.6,2.9,12.2,2.9h3.8c0.4,0,0.6,0.3,0.6,0.6C210.9,348,210.6,348.2,210.2,348.2z"/>
	</g>
	<g>
		<path class="st7" d="M191.9,406.8c0.2,3.9,0.4,7.9-0.1,11.7c-0.6,4.4-4,7.5-7.3,10.2s-11.4,6.7-6.6,12c1.2,1.3,2.8,2,4.4,2.6
			c10.7,4.1,21.8,2.2,32.8,4.3c7,1.3,16.6,6.6,16.6,6.6"/>
		<path class="st8" d="M231.6,454.8c-0.1,0-0.2,0-0.3-0.1s-9.5-5.2-16.4-6.5c-4.3-0.8-8.8-1-13.1-1.2c-6.5-0.3-13.3-0.6-19.8-3.1
			c-1.6-0.6-3.3-1.4-4.6-2.8c-1.2-1.3-1.8-2.7-1.6-4.2c0.3-3,3.7-5.4,6.4-7.3c0.7-0.5,1.4-1,1.9-1.4c3.1-2.5,6.5-5.6,7.1-9.7
			c0.5-3.7,0.4-7.6,0.1-11.6c0-0.4,0.2-0.7,0.6-0.7c0.4,0,0.7,0.2,0.7,0.6c0.2,3.9,0.4,8-0.1,11.8c-0.7,4.7-4.2,7.9-7.5,10.6
			c-0.6,0.5-1.3,0.9-2,1.5c-2.5,1.8-5.6,4-5.9,6.4c-0.1,1,0.3,2.1,1.3,3.2c1.1,1.2,2.7,1.9,4.1,2.5c6.3,2.4,13,2.7,19.4,3
			c4.3,0.2,8.8,0.4,13.2,1.2c7.1,1.3,16.4,6.5,16.8,6.7c0.3,0.2,0.4,0.6,0.3,0.9C232.1,454.7,231.8,454.8,231.6,454.8z"/>
	</g>
	<g>
		<path class="st7" d="M307.3,178.2c0,0,2.9,2.2,3.2-1.6c0.5-5.9-3.3-12-1.4-17.7c1-3.1,4.2-9.6,6.8-11.6c1.3-1,2.5-1.3,4.8,1.6
			c6,7.7,13.7,13.8,20.4,20.8c6.5,6.8,13,14.1,18,22c4.6,7.1,4.8,15.6,4.1,23.8"/>
		<path class="st8" d="M363.3,216.3C363.2,216.3,363.2,216.3,363.3,216.3c-0.4,0-0.7-0.3-0.6-0.7c0.6-7.5,0.7-16.1-4-23.4
			c-5.3-8.3-12.1-15.7-18-21.9c-2.5-2.6-5.1-5.1-7.7-7.6c-4.4-4.2-9-8.5-12.7-13.3c-2.2-2.8-3.1-2.1-3.9-1.5
			c-2.5,1.9-5.6,8.2-6.6,11.3s-0.3,6.3,0.5,9.7c0.6,2.6,1.2,5.2,1,7.8c-0.1,1.4-0.6,2.3-1.4,2.7c-1.2,0.6-2.7-0.5-2.8-0.6
			c-0.3-0.2-0.3-0.6-0.1-0.9s0.6-0.3,0.9-0.1l0,0c0.3,0.2,1.1,0.7,1.5,0.5c0.3-0.1,0.6-0.7,0.6-1.6c0.2-2.4-0.4-5-0.9-7.4
			c-0.8-3.4-1.6-7-0.4-10.4c1-3,4.2-9.8,7-11.9c1.9-1.5,3.6-1,5.7,1.7c3.7,4.8,8.2,9,12.6,13.2c2.6,2.5,5.3,5,7.8,7.6
			c5.9,6.2,12.7,13.8,18.1,22.1c4.9,7.6,4.9,16.5,4.2,24.2C363.9,216,363.6,216.3,363.3,216.3z"/>
	</g>
	<g>
		<path class="st7" d="M239.2,173.6c-2.7-1.1-3-3.7-6-5.3c-4.8-2.5-11.4-4-16.2-6.2c-0.8-0.4-9.6-5.2-9.6-3.3
			c0,6.1,1.7,12.9,4.8,18.2c3.3,5.7,7.9,9.8,2.8,16.2"/>
		<path class="st8" d="M214.9,193.8c-0.1,0-0.3,0-0.4-0.1c-0.3-0.2-0.3-0.6-0.1-0.9c4-5,1.8-8.4-1.1-12.8c-0.6-0.9-1.2-1.8-1.7-2.7
			c-3.1-5.2-4.8-12-4.8-18.5c0-0.4,0.2-0.7,0.5-0.9c0.8-0.5,2.8-0.1,9.4,3.3c0.3,0.2,0.6,0.3,0.7,0.3c2.2,1,4.6,1.8,7.2,2.7
			c3.1,1.1,6.3,2.1,9,3.5c1.6,0.8,2.5,1.9,3.2,2.9c0.8,1,1.4,1.8,2.7,2.3c0.3,0.1,0.5,0.5,0.3,0.8c-0.1,0.3-0.5,0.5-0.8,0.3
			c-1.5-0.6-2.4-1.7-3.2-2.7s-1.5-1.9-2.8-2.6c-2.6-1.4-5.8-2.4-8.8-3.5c-2.5-0.9-5.1-1.7-7.4-2.8c-0.1-0.1-0.4-0.2-0.7-0.4
			c-5.7-3-7.5-3.3-8-3.3c0,6.1,1.8,12.7,4.7,17.7c0.5,0.9,1.1,1.8,1.7,2.7c2.9,4.4,5.6,8.6,1,14.3
			C215.3,193.8,215.1,193.8,214.9,193.8z"/>
	</g>
	<g>
		<circle class="st11" cx="241.3" cy="262.8" r="2.1"/>
		<path class="st8" d="M241.3,265.5c-1.5,0-2.7-1.2-2.7-2.7s1.2-2.7,2.7-2.7s2.7,1.2,2.7,2.7S242.8,265.5,241.3,265.5z M241.3,261.3
			c-0.8,0-1.4,0.6-1.4,1.4s0.6,1.4,1.4,1.4s1.4-0.6,1.4-1.4C242.7,262,242.1,261.3,241.3,261.3z"/>
	</g>
	<g class="st9">
		<circle class="st6" cx="241.3" cy="262.8" r="2.1"/>
	</g>
	<g>
		<g>
			<circle class="st11" cx="303.9" cy="258" r="2.1"/>
			<path class="st8" d="M303.9,260.7c-1.5,0-2.7-1.2-2.7-2.7s1.2-2.7,2.7-2.7s2.7,1.2,2.7,2.7S305.4,260.7,303.9,260.7z
				 M303.9,256.6c-0.8,0-1.4,0.6-1.4,1.4s0.6,1.4,1.4,1.4s1.4-0.6,1.4-1.4C305.4,257.2,304.7,256.6,303.9,256.6z"/>
		</g>
		<g class="st9">
			<circle class="st6" cx="303.9" cy="258" r="2.1"/>
		</g>
	</g>
	<g>
		<path class="st7" d="M392,413.8c-6.4,10.3-12.9,21.2-6.5,33.1c1.1,2.1,3.6,5.1,1.4,7.3c-2.9,2.9-8,2.9-14.6,1.7
			c-4.7-0.9-9.2-3.2-14.5-3.7c-8.3-0.8-15.9,0.8-24.2,4"/>
		<path class="st8" d="M379.5,457.3c-2.1,0-4.5-0.3-7.3-0.8c-2-0.4-3.9-1-5.9-1.6c-2.7-0.9-5.5-1.8-8.5-2.1
			c-7.4-0.8-14.7,0.5-23.9,4c-0.3,0.1-0.7,0-0.8-0.4c-0.1-0.3,0-0.7,0.4-0.8c9.4-3.6,16.9-4.8,24.5-4c3.2,0.3,6,1.2,8.8,2.1
			c2,0.6,3.9,1.2,5.8,1.6c7.5,1.4,11.7,1,14.1-1.5c1.4-1.4,0.5-3.1-0.9-5.4c-0.2-0.4-0.5-0.8-0.7-1.1c-6.6-12.3,0.4-23.7,6.6-33.7
			c0.2-0.3,0.6-0.4,0.9-0.2c0.3,0.2,0.4,0.6,0.2,0.9c-6.3,10.2-12.8,20.8-6.5,32.4c0.2,0.3,0.4,0.7,0.6,1.1c1.2,2,2.9,4.8,0.7,7
			C385.6,456.4,383.1,457.3,379.5,457.3z"/>
	</g>
	<g>
		<path class="st8" d="M277.5,316.5c-9.3,0-18.1-2.1-26.5-6.2c-0.3-0.2-0.4-0.5-0.3-0.9c0.2-0.3,0.5-0.4,0.9-0.3
			c20.1,9.9,43.3,7.6,67.2-6.7c0.3-0.2,0.7-0.1,0.9,0.2c0.2,0.3,0.1,0.7-0.2,0.9C305.1,312.2,290.9,316.5,277.5,316.5z"/>
	</g>
	<g class="st9">
		<path class="st6" d="M278.2,322.6c6.8,0.8,13.8-0.5,20-3.3c3.3-1.5,6.3-3.5,9-5.9c1.4-1.2,2.8-2.6,4.1-3.9c1.2-1.2,2.4-3,3.8-3.9
			c-8.7,5.6-18.7,8.3-28,9.7c-11.6,1.7-24-0.2-34.7-5c7.3,5.3,15.1,10.5,23.9,12.1C276.9,322.4,277.6,322.5,278.2,322.6z"/>
	</g>
	<g class="st9">
		<path class="st6" d="M280.9,295.7l-3.9,0.6l-0.6,1.5l-0.2,2.8C276.3,298.4,279.3,296.7,280.9,295.7z"/>
	</g>
	<g class="st9">
		<path class="st6" d="M209.7,347.8c0,0-5.7,1.6-8,4.3c-2.3,2.7-4.7,6.8-5.9,11.3s-3.7,14.4-3.7,14.4l3.3-18.1l3.7-12.3L209.7,347.8
			z"/>
	</g>
	<g class="st9">
		<path class="st6" d="M196.6,445.8c0,0,11.3-2.5,16.6-3.1s9.6-1,12.9,2.1c3.3,3.1,6.2,5.5,13.1,10.3c7,4.7,21.5,8.8,21.5,8.8
			l-12.3-3.1c0,0-8.8-2.7-10.7-3.5c-1.8-0.8-11.1-4.9-13.9-6.6c-2.9-1.6-8.8-3.5-11.5-3.7C209.7,446.8,196.6,445.8,196.6,445.8z"/>
	</g>
	<g class="st9">
		<path class="st6" d="M321.2,459.6c6.7-3.3,9.8-5.5,14.1-8.2c4-2.5,8.1-5.2,12.7-6.5c6-1.7,11.3,3.4,16.1,6.4
			c3.3,2.3,6.4,3.9,8.1,4.4s-11.8-3.5-11.8-3.5l-7.9-0.4l-8.2,1l-8.1,2.3l-7.8,2.7C326.4,458.4,323.3,459.3,321.2,459.6z"/>
	</g>
	<g class="st9">
		<path class="st6" d="M352.1,350.9c0,0,4.9,4.6,7.4,5.2c2,0.4,4.4-0.6,4.8-2.7c0.2-0.9,0.1-1.9-0.1-2.8c-0.6-2.2-0.3-2.4-1.9-4.6
			c0,0,2.3,5.7-1.4,7.1C358.3,354.1,352.1,350.9,352.1,350.9z"/>
	</g>
	<g class="st9">
		<path class="st6" d="M316.4,177.2c-1.4-2.8,0.8-5.8,1-9.2c0.4-7,1.2-6.6,4.9-2.1c3.7,4.5,13.5,13.5,17.6,16.4s9.4,8.6,6.6,9
			c-2.9,0.4-7-2.1-9-4.1c-2.1-2.1-7.8-9.8-11.1-7.8c-2.4,1.5-6.7,1.1-8.9-0.9C317.1,178.2,316.7,177.7,316.4,177.2z"/>
	</g>
	<g>
		<path class="st8" d="M348.2,195L348.2,195c-0.4,0-0.7-0.3-0.6-0.7c0.2-5.2-6-9.9-10.5-13.3c-0.7-0.5-1.3-1-1.9-1.5l-0.9-0.7
			c-3.3-2.6-5.9-4.7-8.6-8.3c-2.6-3.6-6.3-7.2-7.4-7.7c-0.2,0.5-0.2,1.8-0.1,3.9c0,0.4,0,0.7,0,0.8c0,3.3-0.7,5.9-2.2,8
			c-0.2,0.3-0.6,0.4-0.9,0.2s-0.4-0.6-0.2-0.9c1.4-1.9,2-4.3,2-7.3c0-0.1,0-0.4,0-0.7c-0.2-2.7-0.2-4.3,0.5-5
			c0.2-0.2,0.5-0.3,0.8-0.3c1.6,0,6.4,5.4,8.5,8.3c2.5,3.5,5.1,5.5,8.3,8.1l0.9,0.7c0.6,0.5,1.2,0.9,1.9,1.5
			c4.7,3.6,11.2,8.5,11,14.4C348.9,194.7,348.6,195,348.2,195z"/>
	</g>
	<g class="st9">
		<path class="st6" d="M212.2,176.3c0,0,5.5,4.7,7.8,6.8s2.3,3.7,1.4,5.1c-0.8,1.4-6.8,6.4-7.4,6.8s2.9-3.3,2.9-6.6
			s-0.8-3.7-1.8-5.7C214,180.6,212.2,176.3,212.2,176.3z"/>
	</g>
	<g>
		<path class="st12" d="M471.3,259.5c-5,0-10.1-0.3-15.6-0.9l0.1-1.3c27.2,3,47.1-1.4,68.5-15.2l0.7,1.1
			C507.7,254.4,491.3,259.5,471.3,259.5z"/>
	</g>
	<g>
		<path class="st12" d="M483,269.5c-4,0-8-0.2-12-0.5l0.1-1.3c14.3,1.2,29.6,1.1,43.9-7l0.6,1.1C505.1,267.8,493.9,269.5,483,269.5z
			"/>
	</g>
	<g>
		<path class="st12" d="M176.3,232.4c-16.8,0-33.3-5.8-50.2-17.7l0.7-1c18.1,12.8,35.7,18.5,53.7,17.4l0.1,1.3
			C179.2,232.4,177.8,232.4,176.3,232.4z"/>
	</g>
	<g>
		<path class="st12" d="M169.6,242.2c-15,0-30.4-6.7-37.5-13.3l0.9-0.9c7.3,6.8,23.7,13.5,38.4,13v1.3
			C170.8,242.2,170.2,242.2,169.6,242.2z"/>
	</g>
	<g class="st13">
		<path class="st2" d="M363.2,227.9c-0.2,0-0.4,0.1-0.5,0.2c-2.5,1-2.5,4.4-1.4,6.3c2.2,3.8,4.8,1,5.1-0.6
			C366.9,231.3,365.7,227.4,363.2,227.9z"/>
	</g>
	<g class="st13">
		<path class="st2" d="M369.9,238.5c-0.1-0.1-0.3-0.1-0.4-0.2c-3-0.8-4.6,3.1-5,5.3c-1.3,6.7,0,15.4,5.1,14.7
			c6.1-0.8,4.6-9.6,3.4-13.6C372.5,243.1,371.6,239.5,369.9,238.5z"/>
	</g>
	<g class="st13">
		<path class="st2" d="M377.3,258.3c-2.1-1.2-5,2.1-4,5.7c0.5,1.6,1.5,2.9,2.6,4.2c3.8,4.1,3.3-4.9,3-6.7
			C378.6,259.6,378,258.7,377.3,258.3z"/>
	</g>
	<g class="st13">
		<path class="st2" d="M265.1,344.8c1,8.6,7.9,14.5,13,11.5c5.1-2.9,9.2-20.4,1.5-20.3S264.5,339.3,265.1,344.8z"/>
	</g>
	<g class="st13">
		<path class="st2" d="M249.7,393.7c-5.2,16.3-1.2,33.8,20.1,35.4c31,2.3,42.7-23.4,34.5-35.8c-5.7-8.6-14.1-28.6-26.7-28
			c-3.7,0.2-7.2,1.8-10.2,3.8C259.3,374.3,252.8,383.8,249.7,393.7z"/>
	</g>
	<g class="st13">
		<path class="st2" d="M288.5,352.6c-3.3,4.8-1.1,13.9,3,17.5c4.3,3.8,10.8,2.3,13.3-2.5c2.2-4.3,4.1-10.7,0.1-15
			C301.3,348.7,291.8,347.8,288.5,352.6z"/>
	</g>
	<g class="st13">
		<path class="st2" d="M251,364.5c2.6,11.3,15.8,1.7,15.4-5.8C266,351.4,249.4,357.7,251,364.5z"/>
	</g>
	<g class="st13">
		<path class="st2" d="M237.6,416.6c-4.3,2.9-5.1,7.7-1.3,9.6s10.9,0.6,10.9-2.6S241.5,414,237.6,416.6z"/>
	</g>
	<g class="st13">
		<path class="st2" d="M315.2,408.3c-0.5,0-1.1,0-1.8,0.1c-4.1,0.9-12.3,13.5-7.3,16.5c3.2,1.9,12.2,3.2,14.1,0
			C323,420.3,321.4,408.8,315.2,408.3z"/>
	</g>
	<g class="st13">
		<ellipse class="st2" cx="303.3" cy="378.1" rx="3.5" ry="3.2"/>
	</g>
</g>
</svg>
