<?xml version="1.0" encoding="utf-8"?>
<!-- Generator: Adobe Illustrator 20.0.0, SVG Export Plug-In . SVG Version: 6.00 Build 0)  -->
<svg version="1.1" xmlns="http://www.w3.org/2000/svg" xmlns:xlink="http://www.w3.org/1999/xlink" x="0px" y="0px"
	 viewBox="0 0 775 775" style="enable-background:new 0 0 775 775;" xml:space="preserve">
<style type="text/css">
	.st0{display:none;}
	.st1{fill:#FBB03B;}
	.st2{fill:#54465B;}
	.st3{fill:#C9BCC8;}
	.st4{fill:#F7EDF6;}
	.st5{fill:#8BEFAA;}
	.st6{fill:#FFE780;}
</style>
<g id="Layer_2" class="st0">
	
		<image style="display:inline;overflow:visible;" width="4032" height="3024" xlink:href="../../../../../../Desktop/IMG_3922.jpeg"  transform="matrix(3.290285e-09 0.2759 -0.2759 3.290285e-09 1330.9989 -169.7444)">
	</image>
</g>
<g id="Layer_1">
	<g>
		<g>
			<g>
				<path class="st1" d="M456.4,636c0,0-1,53.5,3.5,58s55,11,47.5,12.5c-7.5,1.5-47,1.5-53.5,5.5s-43,40-41,34.5s28.5-35,16.5-32
					s-53,23.5-40.5,9.5s53.5-27,56-32.5s-5.5-57,1-57.5S456.4,636,456.4,636z"/>
				<path class="st2" d="M413,748c-0.3,0-0.5-0.1-0.6-0.2c-0.2-0.2-0.8-0.7-0.4-1.7c0.7-1.9,3.7-5.9,7.4-10.9
					c4.3-5.8,13.3-17.9,12.1-19.8c-0.1-0.1-0.5-0.3-1.8,0.1c-3.7,0.9-10.1,3.5-17,6.3c-17.3,6.9-25,9.7-26.8,7.2
					c-1.1-1.5,0.6-3.7,2.3-5.6c7.4-8.3,24.2-16,37.7-22.3c8.5-3.9,17.2-8,18.1-10c0.9-2,0.2-12.1-0.5-21.9
					c-1.8-25.2-1.9-35.8,2.4-36.1c6.7-0.5,10.9,2,11.1,2.1l0.5,0.3l0,0.6c-0.4,20.5,0.1,54.2,3.2,57.3c2.1,2.1,18,5.2,29.6,7.5
					c17.6,3.4,18.9,3.9,18.9,5.4c0,1.1-1.2,1.3-1.6,1.4c-2.7,0.5-9.5,0.9-17.4,1.3c-13.4,0.7-31.8,1.6-35.8,4.1
					c-2.7,1.6-10.9,9.2-18.9,16.4C418.5,744.8,414.6,748,413,748z M430.9,713.3c1,0,1.8,0.3,2.2,1c1.9,2.9-3.6,10.6-12.1,22.1
					c-2.4,3.2-4.6,6.2-6,8.3c4-3.1,12.6-10.9,19.2-16.9c8.4-7.7,16.4-14.9,19.2-16.7c4.4-2.7,21.6-3.6,36.8-4.4
					c6-0.3,11.4-0.6,14.7-0.9c-3.4-0.9-9.5-2-15-3.1c-16.4-3.2-28.3-5.6-30.7-8c-4.5-4.5-3.9-50.3-3.8-58.1c-1.2-0.6-4.6-2-9.4-1.6
					c-0.1,0-1.7,0.2-1.7,10.6c0,6.7,0.6,15.2,1.2,23.4c0.9,12.7,1.4,20.6,0.3,22.9c-1.1,2.5-7.7,5.6-19.1,10.9
					c-13.3,6.2-29.9,13.9-37,21.8c-1.8,2-2.1,2.9-2.1,3.1c2,1.1,16-4.5,24.4-7.9c6.9-2.8,13.4-5.4,17.2-6.3
					C429.8,713.3,430.4,713.3,430.9,713.3z"/>
			</g>
			<g>
				<path class="st3" d="M356.9,588.5c0,0,82,52.5,90.5,55s14-1,18-4s14.5-25.5,14.5-25.5"/>
				<path class="st2" d="M453,645.3c-1.8,0-3.8-0.3-5.9-0.9c-8.5-2.5-87.4-53-90.8-55.1l1.1-1.7c0.8,0.5,82,52.5,90.2,54.9
					c8,2.3,13-0.8,17.1-3.8c3.1-2.3,11.3-18.9,14.2-25.1l1.8,0.8c-1.1,2.3-10.7,22.8-14.8,25.9C462.4,643,458.4,645.3,453,645.3z"/>
			</g>
		</g>
		<g>
			<path class="st4" d="M424.9,250.5c0,0,1,6,20,22c27.3,23,61.4,22.4,95.5,25.6c36.4,3.4,72.9,2.9,109.2,5.9
				c18.1,1.5,42.4,13.5,60.3,7.5c12-4,58-32,59-25c1.3,9.4-12.2,19.2-15.1,27.5c-6.9,19.6-1.6,47-7.1,68.6
				C710.6,525,574.6,660.9,417.9,616.2C345,595.5,292.4,538,262.6,470.5c-12.9-29.3-15.3-66.8-18.8-98.2
				c-2.6-23.6-4.9-73.1,0.1-96.7C247.9,256.5,421.9,235.5,424.9,250.5z"/>
			<path class="st2" d="M478.6,625.8c-20.3,0-40.7-2.9-60.9-8.6c-35-10-66.7-28.7-94.2-55.6c-25.3-24.7-46.1-55.3-61.7-90.8
				c-11.3-25.6-14.6-57.8-17.5-86.2c-0.4-4.2-0.9-8.3-1.3-12.4c-2.8-25.6-4.7-74.1,0.1-97.1c2-9.5,39.2-17.5,61.3-21.4
				c32.8-5.8,71-9.6,95.2-9.5c25.3,0.1,26.2,4.5,26.5,5.9l0,0c0,0.2,1.6,6.2,19.7,21.4c23.4,19.7,51.5,21.9,81.2,24.3
				c4.5,0.4,9.1,0.7,13.7,1.2c19.1,1.8,38.7,2.5,57.5,3.2c17,0.6,34.5,1.2,51.7,2.7c6.4,0.5,13.5,2.3,21,4.3
				c13.5,3.5,27.5,7.1,38.9,3.3c4.2-1.4,12.7-5.8,21.8-10.5c20.2-10.5,33.7-17.2,37.4-15.3c0.6,0.3,1.1,0.9,1.2,1.6
				c0.9,6.2-3.9,12.1-8.6,17.9c-2.8,3.6-5.5,6.9-6.6,10c-3.6,10.3-3.8,22.5-4.1,35.5c-0.2,11.2-0.4,22.8-3,33
				c-22.4,88.4-81.5,169.3-154.2,211.2C556.7,615.2,517.8,625.8,478.6,625.8z M398.3,246.4c-49.4,0-150.6,15.9-153.4,29.3
				c-4.8,22.7-2.9,71-0.1,96.4c0.4,4,0.9,8.2,1.3,12.4c2.9,28.2,6.2,60.2,17.4,85.6c15.6,35.3,36.2,65.6,61.3,90.1
				c27.3,26.7,58.7,45.2,93.4,55.1c58.8,16.7,119,8.8,174.2-23c72.3-41.6,131-122.1,153.3-209.9c2.5-10,2.7-21.5,2.9-32.6
				c0.2-12.6,0.5-25.6,4.2-36.2c1.2-3.4,4-6.9,7-10.6c4.4-5.5,8.9-11.1,8.1-16.4c0-0.1,0-0.1-0.1-0.1c-3.1-1.6-22.6,8.6-35.5,15.3
				c-9.1,4.7-17.8,9.2-22.1,10.7c-11.9,4-26.2,0.3-40-3.2c-7.4-1.9-14.4-3.7-20.7-4.2c-17.1-1.4-34.7-2.1-51.6-2.7
				c-18.9-0.7-38.5-1.4-57.6-3.2c-4.6-0.4-9.2-0.8-13.7-1.2c-30.1-2.4-58.5-4.6-82.3-24.7c-18.6-15.6-20.2-22-20.3-22.6l0,0
				c-0.2-1-2.5-4.2-24.5-4.3C399,246.4,398.6,246.4,398.3,246.4z"/>
		</g>
		<g>
			<path class="st3" d="M242.8,284.2c-3.3,1.2-2,38.3-1.9,42.9c0.3,14.8,1.9,29.8,6.4,43.9c8.4,26.1,26.3,48.5,55.9,42.7
				c18.2-3.6,35.8-15.8,50.3-27.2c25.5-20,112.9-97,80.5-129C401.6,225.5,242.8,284.1,242.8,284.2z"/>
		</g>
		<g>
			<g>
				<path class="st1" d="M486.9,637.5c0,0,4,47.5-2.5,59s-19.5,32.5-30,39s-28,24.5-18,22.5s29.5-31.5,35.5-24.5s-15,34-6,30
					s19.5-39.5,32-44s61.5-5.5,48.5-12.5s-37,3.5-41-9s0-67.5-3.5-67S486.9,637.5,486.9,637.5z"/>
				<path class="st2" d="M464.5,764.9c-0.5,0-0.9-0.1-1.3-0.5c-1.3-1.4,0-4.3,3-10.8c3.3-6.9,7.7-16.2,5-19.5
					c-0.4-0.5-0.9-0.7-1.5-0.7c0,0-0.1,0-0.1,0c-3.5,0-9.7,6.2-15.7,12.2c-6.4,6.4-12.5,12.5-17.2,13.4c-2.2,0.4-3.5,0-4-1.2
					c-1.7-4.3,13.2-18.1,21.3-23.1c10.8-6.7,24.4-29.3,29.7-38.6c6.3-11.1,2.4-58,2.4-58.4l-0.1-0.7l0.6-0.3
					c0.5-0.2,11.7-6.1,15.3-6.6c0.4-0.1,0.8,0.1,1.1,0.3c1.6,1.4,1.7,8.7,1.6,27.6c-0.1,15.7-0.1,33.4,1.9,39.7
					c2,6.4,10.1,6.1,19.4,5.8c7.5-0.3,15.2-0.5,21.1,2.7c0.7,0.4,3,1.6,2.7,3.4c-0.6,3.2-8.9,4.6-27.7,6.9c-9.4,1.2-19.1,2.4-23.6,4
					c-6.5,2.3-12.8,14.1-18.3,24.6c-5,9.4-9.3,17.5-13.6,19.4C466,764.5,465.2,764.9,464.5,764.9z M469.6,731.4c0.1,0,0.1,0,0.2,0
					c1.2,0,2.1,0.5,2.9,1.4c3.6,4.2-1,13.9-4.7,21.6c-1.5,3-3.4,7.2-3.4,8.4c0.2,0,0.4-0.1,0.9-0.3c3.8-1.7,8.1-9.8,12.7-18.5
					c6-11.3,12.2-22.9,19.4-25.5c4.7-1.7,14.1-2.9,24.1-4.1c9.5-1.2,25.5-3.1,26-5.3l0,0c0,0-0.1-0.5-1.6-1.3
					c-5.4-2.9-12.9-2.7-20.1-2.4c-9.7,0.3-18.9,0.6-21.4-7.2c-2.1-6.6-2-24.6-2-40.4c0-11.1,0.1-23.5-0.8-25.9
					c-2.9,0.7-10.3,4.3-13.7,6c0.5,6,3.5,47.9-2.7,58.9c-5.4,9.5-19.1,32.4-30.3,39.4c-9.9,6.1-21.4,18.8-20.5,20.7l0,0
					c0,0,0.3,0.3,1.8,0c4.1-0.8,10.3-6.9,16.2-12.8C459,737.6,465.3,731.4,469.6,731.4z"/>
			</g>
			<g>
				<path class="st3" d="M443.9,609.5c-1.5,2,28.5,25,43,28c14.5,3,26.5-4.5,30-10.5c4.5-7.7,11.6-12.4,17.6-18.7
					c6.1-6.3-1.1-9.7-7.5-12.5c-5.8-2.5-12.3-3.2-18.5-2.4c-18.8,2.3-38.2,2.1-57.2,3.1c-2.9,0.2-6,0.4-8.3,2.2
					C439.4,601.6,441.2,606.7,443.9,609.5z"/>
			</g>
			<g>
				<path class="st3" d="M443,598.8c-13.3,10.6,36.5,37.1,44,38.7c14.5,3,26.5-4.5,30-10.5c4.5-7.7,11.6-12.4,17.6-18.7"/>
				<path class="st2" d="M493.5,639.2c-2.2,0-4.5-0.2-6.8-0.7c-5.8-1.2-43.7-20.5-46.8-33.6c-0.6-2.7,0.2-5.1,2.4-6.8l1.2,1.6
					c-1.6,1.3-2.2,2.9-1.7,4.8c1.2,5,8.7,12,21.3,19.9c10.6,6.7,21.1,11.6,24,12.2c14.1,2.9,25.6-4.3,28.9-10
					c3.1-5.4,7.5-9.4,11.8-13.3c2-1.8,4-3.6,5.9-5.6l1.4,1.4c-1.9,2-4,3.9-6,5.7c-4.4,4-8.5,7.7-11.4,12.8
					C514.7,632.8,505.4,639.2,493.5,639.2z"/>
			</g>
		</g>
		<g>
			<path class="st5" d="M239.2,284.2c-2.9-47.1-3.9-94.4-2-141.6c0.9-20.3,2-40.5,5.6-60.6c2.3-12.8,5.2-29.2,14.7-38.9
				c12.2-12.3,27.2-21.6,43.7-26.9c16.2-5.2,34.5-8.6,49.7,1c15.4,9.7,21.4,25.5,27.4,41.9c6.6,18.1,11.6,36.7,16.5,55.3
				c0,5.7,3.4,12.9,4.9,18.5c0,3.9,2.4,8.9,3.4,12.7c1.1,4.3,2.3,8.5,3.4,12.7c2.5,9.6,5.1,19.2,7.6,28.8
				c2.9,10.9,5.8,21.9,8.6,32.8c2.6,9.7,3.7,22.4,8.9,31.1c2.6,4.3,6.7,8.6,4.8,14.1c-2.3,6.7-7.3,15.3-15.7,16.7
				c-8.3,1.3-15.3,1.3-21.7,7.7c-6.3,6.3-13.7,12.3-22,18c-8.3,5.7-24.3,11-34.7,19c-10.3,8-27.3,28.7-33,29.3
				c-7.7,0.9-17.3-6.1-23.7-9.5c-5.6-3-12.1-5.4-18.2-3.6c-3.4,1-6.4,3.3-10,3.5c-4.2,0.3-8.1-2.6-10.3-6.2
				c-5.8-9.5-6-23.6-6.8-34.4C240.1,298.4,239.6,291.3,239.2,284.2z"/>
		</g>
		<g>
			<path class="st3" d="M298.9,263.5c46.4,0,84-76.3,84-170.5c0-7.8-0.3-15.5-0.8-23c-1.2-3.6-2.4-7.2-3.7-10.8
				c-6-16.5-12-32.2-27.4-41.9c-15.2-9.6-33.6-6.2-49.7-1c-16.5,5.3-31.5,14.6-43.7,26.9c-9.6,9.7-12.4,26.1-14.7,38.9
				c-3.6,20-4.8,40.2-5.6,60.6c-0.9,21.3-1.2,42.6-0.9,64C251.7,241.5,274,263.5,298.9,263.5z"/>
		</g>
		<g>
			<path class="st3" d="M376.8,409.2c-0.6,0.8-1.1,1.7-1.7,2.5c-20.9,32.6-22.8,78.6-1.2,110.7c24.3,36,71.2,47.9,113.4,44.6
				c41.4-3.3,89.3-13.6,127.7-30.5c48.2-21.2,73.6-57.4,94.2-105.7c9.5-22.3,18-45.2,24.6-68.7c0.6-2,8.8-33,4-32.2
				c-41.8,7.6-85.8,8.1-128.1,12.2c-32.3,3.2-65.1,5.4-97.1,10.5C461.4,360.9,409.6,360.7,376.8,409.2z"/>
		</g>
		<g>
			<ellipse class="st6" cx="272.9" cy="131.5" rx="9" ry="13"/>
			<path class="st2" d="M272.9,145.5c-5.5,0-10-6.3-10-14s4.5-14,10-14s10,6.3,10,14S278.4,145.5,272.9,145.5z M272.9,119.5
				c-4.4,0-8,5.4-8,12s3.6,12,8,12s8-5.4,8-12S277.3,119.5,272.9,119.5z"/>
		</g>
		<g>
			<ellipse class="st2" cx="271.1" cy="129.3" rx="3.8" ry="6.2"/>
			<path class="st2" d="M271.1,136.5c-2.7,0-4.8-3.1-4.8-7.2c0-4,2.1-7.2,4.8-7.2s4.8,3.1,4.8,7.2
				C275.9,133.3,273.8,136.5,271.1,136.5z M271.1,124.1c-1.3,0-2.8,2.1-2.8,5.2s1.5,5.2,2.8,5.2s2.8-2.1,2.8-5.2
				S272.4,124.1,271.1,124.1z"/>
		</g>
		<g>
			<path class="st4" d="M376.3,404.1c-0.5,0.8-1.1,1.6-1.6,2.4C354.4,437,352.5,480,373.6,510c23.7,33.7,69.3,44.8,110.4,41.7
				c40.3-3.1,86.9-12.7,124.4-28.6c47-19.8,71.7-53.7,91.7-98.9c9.3-20.9,17.6-42.3,24-64.2c0.5-1.9,8.6-30.9,3.9-30.1
				c-40.7,7.1-83.6,7.5-124.7,11.4c-31.4,3-63.3,5-94.6,9.8C458.7,358.9,408.3,358.7,376.3,404.1z"/>
			<path class="st2" d="M470.3,553.3c-42.6,0-78.4-15.5-97.5-42.7c-20.7-29.5-20.3-72.5,1.1-104.7c0.5-0.8,1.1-1.6,1.6-2.4v0
				c27.7-39.3,68.5-44.7,111.7-50.4c7-0.9,14.1-1.9,21.2-2.9c23.2-3.6,47.1-5.6,70.2-7.6c8-0.7,16.3-1.4,24.4-2.2
				c14.2-1.3,28.9-2.3,43.1-3.2c27-1.8,54.9-3.6,81.6-8.2c0.7-0.1,1.3,0.1,1.8,0.6c3.4,3.8-4.4,30.5-4.5,30.7
				c-5.9,20.2-13.8,41.3-24,64.4c-11.2,25.2-22.6,44-35.9,59.2c-15.4,17.5-33.8,30.7-56.3,40.2c-35.2,14.9-80.6,25.3-124.7,28.6
				C479.4,553.1,474.8,553.3,470.3,553.3z M377.2,404.7c-0.5,0.8-1.1,1.5-1.6,2.3c-21,31.5-21.4,73.6-1.1,102.4
				c18.7,26.6,54,41.8,95.9,41.8c4.5,0,9-0.2,13.6-0.5c43.9-3.3,89.1-13.7,124.1-28.5c41.6-17.6,68-46.1,91.2-98.4
				c10.2-23,18-44,23.9-64.1c3-10.4,6.5-27,4.9-28.8c-26.7,4.6-54.7,6.5-81.8,8.2c-14.2,0.9-28.8,1.9-43,3.2
				c-8.1,0.8-16.4,1.5-24.5,2.2c-23.1,2-46.9,4.1-70.1,7.6c-7.1,1.1-14.3,2-21.3,2.9C444.7,360.8,404.3,366.1,377.2,404.7
				L377.2,404.7z"/>
		</g>
		<g>
			<path class="st2" d="M662.5,337.1c-16.7,1.2-33.4,2.1-49.9,3.5c-0.4,2.2-1.1,4.7-2,6.9c-1.7,4,3.2,8,4.4,11.4
				c1.3,3.9,1.5,8.7,0.7,12.7c-1.5,7.7-7.2,13.9-12.2,19.1c-9.7,9.9-2.5,13.9-3.5,24.8c-0.8,8.5-11.9,11-14.9,18.5
				c-1.5,3.8-1.9,8-2.2,12.1c-1.1,12.8-2.2,20.5-14.6,27c-9.3,4.9-1.1,21.6-7.8,29.8c-3.8,4.7-11.3,8.3-13.5,14.1
				c-1.9,4.9,0.5,10.6-3.5,15c-1.3,1.5-7.9,8.4-13.1,13.6c17-3.1,34.1-7.3,50.3-12.4c0.7-3.5,1.8-6.9,3.5-9.8
				c3.2-5.5,8-9.6,11.1-15.5c3.3-6.2,5.6-12.9,10-18.5c6.6-8.3,14.9-15.4,18-25.9c2.4-8.5-1.8-18.1,0.6-25.6
				c4.1-13.1,27.7-15.1,23.8-32.4c-0.8-3.6-2.5-6.9-3.4-10.5c-3-13,14.1-16.6,15.8-28c1.3-9.2-7.6-12.9-3.2-21.9
				C657.6,343.7,660,339.8,662.5,337.1z"/>
			<path class="st2" d="M527.4,547.2l2.3-2.3c5.3-5.3,11.8-12.2,13-13.6c2.1-2.3,2.2-5.2,2.3-8.2c0.1-2.1,0.2-4.4,1-6.5
				c1.5-3.8,4.9-6.7,8.3-9.4c2-1.7,4-3.2,5.4-5c2.9-3.5,2.8-8.9,2.7-14.1c-0.1-6.4-0.2-13,5.4-16c11.9-6.3,13-13.3,14.1-26.2
				c0.3-4.1,0.7-8.4,2.3-12.4c1.4-3.6,4.5-6.1,7.5-8.5c3.5-2.8,6.9-5.5,7.3-9.8c0.3-3.6-0.3-6.4-0.9-9.1c-1.1-5.1-2.1-9.5,4.7-16.3
				c5-5.1,10.5-11.2,12-18.6c0.8-4.1,0.6-8.6-0.7-12.1c-0.4-1-1.1-2.2-2-3.4c-1.8-2.6-3.7-5.6-2.4-8.7c0.7-1.7,1.4-4,1.9-6.7
				l0.1-0.7l0.8-0.1c11.2-0.9,22.8-1.7,33.9-2.4c5.3-0.3,10.7-0.7,16-1.1l2.5-0.2l-1.7,1.8c-2.4,2.7-4.8,6.4-5.4,7.7
				c-2.2,4.5-0.8,7.5,0.9,11c1.4,2.9,3,6.2,2.4,10.6c-0.8,5.4-4.7,9-8.5,12.6c-4.6,4.3-8.9,8.3-7.3,15.1c0.4,1.7,1,3.4,1.6,5.1
				c0.6,1.7,1.3,3.6,1.7,5.4c2.4,10.7-5.1,15.9-12.3,20.9c-5.1,3.5-9.9,6.8-11.5,12c-1.1,3.5-0.7,7.6-0.3,11.9
				c0.5,4.5,0.9,9.2-0.3,13.7c-2.3,8.1-7.7,14.3-12.9,20.2c-1.7,2-3.5,4-5.2,6.1c-3,3.8-5,8-7.1,12.5c-0.9,1.9-1.8,3.9-2.8,5.9
				c-1.7,3.2-3.9,5.9-6,8.6c-1.9,2.3-3.6,4.5-5.1,7c-1.5,2.6-2.6,5.7-3.4,9.5l-0.1,0.6l-0.6,0.2c-15.9,5-32.8,9.2-50.4,12.4
				L527.4,547.2z M613.4,341.5c-0.5,2.5-1.2,4.6-1.9,6.3c-0.9,2.1,0.7,4.5,2.2,6.8c0.9,1.3,1.8,2.6,2.2,3.9
				c1.3,3.8,1.6,8.8,0.7,13.2c-1.5,7.6-6.9,13.9-12.5,19.6c-6,6.1-5.2,9.6-4.1,14.5c0.6,2.7,1.3,5.8,0.9,9.7
				c-0.5,5.2-4.3,8.2-8,11.2c-2.9,2.3-5.7,4.5-6.9,7.6c-1.5,3.7-1.8,7.8-2.1,11.8c-1.1,13.3-2.3,21.1-15.1,27.8
				c-4.5,2.4-4.4,8.1-4.3,14.2c0.1,5.6,0.2,11.3-3.2,15.4c-1.5,1.9-3.6,3.6-5.7,5.2c-3.2,2.6-6.4,5.3-7.7,8.6
				c-0.7,1.8-0.8,3.8-0.8,5.9c-0.1,3.2-0.2,6.5-2.8,9.4c-1.2,1.4-6.2,6.7-10.8,11.4c16.2-3.1,31.8-7,46.5-11.6
				c0.8-3.8,2-6.9,3.5-9.5c1.5-2.6,3.4-5,5.2-7.2c2.1-2.6,4.2-5.2,5.8-8.2c1-1.9,1.9-3.9,2.8-5.8c2-4.4,4.2-8.9,7.3-12.9
				c1.7-2.1,3.5-4.2,5.3-6.2c5.3-6,10.3-11.7,12.5-19.4c1.2-4.1,0.7-8.6,0.3-12.9c-0.5-4.5-0.9-8.8,0.3-12.7
				c1.8-5.8,7.2-9.5,12.3-13c7-4.8,13.6-9.4,11.5-18.8c-0.4-1.7-1-3.4-1.7-5.2c-0.6-1.7-1.3-3.5-1.7-5.3c-1.8-7.8,3.2-12.5,7.9-17
				c3.7-3.5,7.2-6.7,7.9-11.4c0.6-3.8-0.8-6.7-2.2-9.5c-1.8-3.6-3.6-7.4-0.9-12.8c0.6-1.1,2.3-3.8,4.2-6.3
				c-4.6,0.3-9.1,0.6-13.7,0.9C635.6,339.9,624.4,340.6,613.4,341.5z"/>
		</g>
		<g>
			<path class="st2" d="M674,336.3c-1.2,2.4-2.6,5.1-4.1,7.9c-4,7.3-4,14.7-1.3,28c2.7,13.3-6,12.7-12.7,22.7s4.7,15.3,0,26
				s-16.7,14-24.7,17.3c-8,3.3,8,16,0,30c-8,14-12,19.3-16,23.3c-7.3,7.3-13.7,22.7-15.1,35c2.8-1.1,5.5-2.2,8.2-3.3
				c6.7-2.8,12.9-5.9,18.7-9.3c2.7-4.8,4.4-10,4.3-15.2c-0.1-7.2-0.4-9,5-14.5c4.2-4.1,9.3-7.3,12.9-12c6-8-1.3-10-4-19.3
				c-2.7-9.3,16-8,24-16.7c8-8.7,0.7-24-1.3-32.7c-2-8.7,8-7.3,14-14.7s3.3-20,1.3-26c-1.5-4.5,5-20.5,8.2-28.1
				C685.7,335.3,679.8,335.8,674,336.3z"/>
			<path class="st2" d="M598.9,528l0.2-1.6c1.5-13,8.1-28.3,15.4-35.6c3.8-3.8,7.8-9,15.8-23.1c4.1-7.2,1.5-14.1-0.6-19.6
				c-1.8-4.6-3.4-9,1.1-10.9c1.1-0.4,2.2-0.9,3.4-1.4c7.5-2.9,16.9-6.6,20.7-15.5c2.1-4.7,0.8-8.2-0.6-12c-1.5-4.2-3.1-8.5,0.7-14.2
				c2.4-3.5,4.9-5.8,7.2-7.7c4.2-3.6,7-6,5.3-14.2c-2.8-14.2-2.5-21.5,1.4-28.7c1.3-2.4,2.7-5,4.1-7.8l0.3-0.5l0.6,0
				c6-0.5,11.9-1,17.5-1.5l1.7-0.2l-0.7,1.6c-6.1,14.2-9.2,24.4-8.2,27.3c5.7,17-0.3,25.4-1.5,26.9c-2.5,3.1-5.6,4.7-8.4,6.1
				c-4.3,2.2-6.4,3.5-5.4,7.7c0.4,1.7,1,3.7,1.6,5.8c2.6,8.6,6.3,20.4-0.5,27.8c-3.6,3.9-9.2,5.9-14.1,7.6c-6.9,2.4-10.8,4-9.6,8.2
				c0.9,3.2,2.4,5.4,3.7,7.5c2.4,3.8,4.5,7,0.2,12.7c-2.3,3-5.1,5.4-7.9,7.7c-1.7,1.4-3.5,2.9-5.1,4.5c-4.9,4.9-4.9,6.4-4.8,12.7
				l0,1.1c0.1,5.1-1.5,10.6-4.4,15.8l-0.1,0.2l-0.2,0.1c-6,3.4-12.3,6.6-18.8,9.3c-2.5,1-5.2,2.1-8.3,3.3L598.9,528z M674.6,337.2
				c-1.3,2.6-2.6,5.1-3.8,7.4c-3.7,6.8-4,13.4-1.2,27.3c1.9,9.3-1.6,12.3-6,16.1c-2.2,1.9-4.6,4-6.8,7.3c-3.2,4.8-1.9,8.3-0.4,12.4
				c1.4,3.7,2.9,8,0.5,13.4c-4.2,9.6-14,13.4-21.8,16.5c-1.2,0.5-2.3,0.9-3.4,1.3c-2.5,1-2,3.1,0,8.3c2.1,5.6,5.1,13.2,0.5,21.3
				c-8.2,14.3-12.3,19.6-16.2,23.5c-6.6,6.6-12.8,20.7-14.6,32.8c2.4-1,4.6-1.8,6.6-2.7c6.3-2.7,12.5-5.7,18.3-9.1
				c2.7-4.8,4.1-9.8,4-14.5l0-1.1c-0.1-6.5-0.1-8.6,5.4-14.1c1.6-1.6,3.5-3.1,5.2-4.6c2.7-2.2,5.5-4.5,7.6-7.3
				c3.5-4.6,2.1-6.7-0.3-10.5c-1.3-2-2.9-4.6-3.9-8c-1.8-6.2,4.4-8.3,10.9-10.6c4.7-1.6,10.1-3.5,13.3-7c6-6.5,2.7-17.2,0.1-25.9
				c-0.7-2.1-1.3-4.2-1.7-5.9c-1.4-6,2.4-7.9,6.4-10c2.6-1.3,5.5-2.8,7.8-5.6c6.4-7.9,2.1-22.2,1.2-25.1c-1.4-4.3,3.2-16.8,7.6-27.2
				C685,336.4,679.9,336.8,674.6,337.2z"/>
		</g>
		<g>
			<path class="st2" d="M241.4,352c0-0.6-0.2-3.4-0.3-7.4c-0.6-11.2-1.6-32.2-1.5-39.4l-0.2-3c-0.4-5.8-0.9-11.8-1.2-17.8
				c-2.1-34.2-3.1-68.1-2.9-100.6l0-2.7c0-1.8,0-3.5,0.1-5.3c0-1.1,0-2.3,0.1-3.4c0-1.6,0.1-3.2,0.1-4.8c0-1.1,0-2.2,0.1-3.3l0-1.9
				c0-1,0-2.1,0.1-3.1c0-1.6,0.1-3.2,0.1-4.8l0.1-3.5c0.1-2.8,0.2-5.6,0.3-8.4c0.8-19.5,1.9-40.2,5.6-60.7l0.1-0.7
				c2.3-12.9,5.3-29,14.9-38.7C269.2,30,284.4,20.6,301,15.3c15-4.9,34.3-9.1,50.6,1.1c20.8,13.1,28.4,41.3,34.5,64
				c0.7,2.7,1.4,5.3,2.1,7.8c8.5,30.4,16.6,60.3,26.3,95.9l13.7,50.8c2.1,7.6,3.9,13.9,7.1,20.2c0.7,1.4,1.5,2.8,2.4,4.2
				c2,3.3,4.1,6.8,4.7,10.6l-2,0.3c-0.5-3.4-2.5-6.7-4.5-9.9c-0.9-1.4-1.8-2.9-2.5-4.4c-3.3-6.5-5.1-12.9-7.2-20.6l-13.7-50.8
				c-9.6-35.6-17.8-65.5-26.3-95.9c-0.7-2.5-1.4-5.2-2.1-7.8c-6-22.3-13.5-50.1-33.6-62.8c-15.5-9.8-34.3-5.6-48.9-0.9
				c-16.2,5.3-31.2,14.5-43.3,26.7c-9.2,9.3-12,25-14.3,37.6l-0.1,0.7c-3.7,20.4-4.8,41-5.6,60.4c-0.1,2.8-0.2,5.6-0.3,8.4l-0.1,3.5
				c-0.1,1.6-0.1,3.2-0.1,4.8c0,1-0.1,2.1-0.1,3.1l0,1.9c0,1.1-0.1,2.2-0.1,3.3c0,1.6-0.1,3.2-0.1,4.8c0,1.1,0,2.3-0.1,3.4
				c0,1.8,0,3.5-0.1,5.3l0,2.7c-0.2,32.5,0.7,66.3,2.8,100.5c0.4,6,0.8,12,1.2,17.8l0.2,3.1c0,7.2,1,28.1,1.5,39.4
				c0.2,4.1,0.3,6.8,0.3,7.4L241.4,352z"/>
		</g>
		<g>
			<g>
				<path class="st1" d="M234.2,133.5c1.9-1.6,6-3.3,9.3,0c3.3,3.3,6,11.7,6,19.3c0,7.7-2,22-7,23.7s-6.3-0.7-8.3-0.7s-6.7,2-11,2
					c-4.3,0-12-5-12-5s-19.3,7-16-0.7c3.3-7.7,21.3-23.3,24-25.3C221.9,144.8,229.9,137.1,234.2,133.5z"/>
				<path class="st2" d="M223.2,178.8c-4,0-10.4-3.8-12.1-4.9c-3.1,1.1-13.8,4.6-16.6,1.6c-0.6-0.6-1.1-1.8-0.2-3.8
					c3.4-7.9,21.5-23.7,24.3-25.7c1.4-1.1,4.5-3.8,7.7-6.8c2.6-2.4,5.3-4.9,7.3-6.5l0,0c2-1.7,6.8-3.8,10.7,0.1
					c3.6,3.6,6.3,12.2,6.3,20c0,5.7-1.4,22.5-7.7,24.6c-3.8,1.3-5.7,0.4-7.2-0.2c-0.6-0.2-1-0.4-1.5-0.4c-0.7,0-1.9,0.3-3.3,0.7
					C228.7,178.1,226,178.8,223.2,178.8z M211.4,171.7l0.4,0.3c0.1,0,7.5,4.8,11.5,4.8c2.5,0,5.1-0.7,7.2-1.2
					c1.6-0.4,2.9-0.8,3.8-0.8c0.8,0,1.6,0.3,2.2,0.6c1.3,0.5,2.7,1.1,5.8,0.1c4.1-1.4,6.3-14.3,6.3-22.7c0-7.2-2.5-15.4-5.7-18.6
					c-3.6-3.6-7.8-0.1-8,0.1l0,0c-1.9,1.6-4.6,4.1-7.2,6.5c-3.2,3-6.3,5.8-7.8,6.9c-2.6,2-20.4,17.5-23.7,24.9
					c-0.2,0.6-0.5,1.3-0.1,1.7c1.3,1.4,8.8-0.1,14.9-2.3L211.4,171.7z"/>
			</g>
			<g>
				<path class="st2" d="M211.4,173.8l-0.3-2c0.5-0.1,12.1-2,16.1-2.3c0.6,0,1.2-0.1,1.8-0.2c3.4-0.3,6.3-0.6,8.6,1l-1.2,1.6
					c-1.7-1.2-4.1-1-7.2-0.7c-0.6,0.1-1.2,0.1-1.8,0.2C223.4,171.8,211.5,173.8,211.4,173.8z"/>
			</g>
		</g>
	</g>
</g>
</svg>
