<?xml version="1.0" encoding="utf-8"?>
<!-- Generator: Adobe Illustrator 20.0.0, SVG Export Plug-In . SVG Version: 6.00 Build 0)  -->
<svg version="1.1" id="Layer_1" xmlns="http://www.w3.org/2000/svg" xmlns:xlink="http://www.w3.org/1999/xlink" x="0px" y="0px"
	 viewBox="0 0 1049.4 1178.6" style="enable-background:new 0 0 1049.4 1178.6;" xml:space="preserve">
<style type="text/css">
	.st0{opacity:0.5;fill:#33BCB5;}
	.st1{opacity:0.25;fill:#5D5D5D;}
</style>
<path class="st0" d="M293.9,1061c19.4-1.7,31.9-44.5,36.2-60.2c8-29,7.7-57.9-1-86c-18.5-59.9-58.2-110.9-79.7-170.2
	c-21.7-59.9,5.6-108.5,39.4-157.4c26.5-38.4,35.7-65.8,26.7-112.2c-6-30.9-11.2-78.5,18.4-100.1c14.5,7.3,3.8,20.9,1.6,32.5
	c-4.6,24.2,6.2,40.5,16,62.2c24.7,54.9,33.1,96.7,4.9,153.7c-21.4,43.1-61.6,78.3-52.5,131.8c7.5,44,47.7,79,60.5,122
	c15.2,50.6,52.5,172.6-0.5,210.1"/>
<path class="st0" d="M205.7,1056.5C102.9,972.8,40,800.8,69.7,631.4c10.2-58.3,37.1-114,69.9-151.1c24.2-27.4,51.1-51.8,69.2-88.7
	c30.5-62.3,3.7-133.2,23.8-195.8c16.6-51.6,42.5-85.2,80.6-97c10.7,2.1-40.3,65.5-43.5,103.7c-4.9,58.5,20.1,109.4,22.1,166.7
	c4.5,127-96.8,180-141.5,272c-24.6,50.6-21.2,117.1,5.6,164.3c63.6,111.7,108.8,208.3,79.7,363.3"/>
<path class="st0" d="M897.9,1085c-40.3-21.4-75.4-36.3-106.1-72c-27-31.4-36.8-86.5-23.9-126c9.4-29,33.2-40.6,54-60
	c28.3-26.4,47.6-61.3,44.1-101.3c-5-57-52.9-113.6-76.2-165.3c-26.4-58.5-2.5-108.7,21.9-163.3c19.4-43.5,45.6-85.9,46.1-134.5
	c0.4-41.8-10.2-81.2-12.2-122.6c-2.3-47.1,0.7-82,41.2-110.3c16-11.1,34.4-23.1,54.7-20.4c3.3,14.8-24.1,20-33.7,29.1
	c-32.1,30.4-39.7,76.5-22.1,116.2c18.3,41.2,63.4,81.8,71.6,126.2c7.8,42.1-19.3,75.1-48,101.7c-33.7,31.1-64.3,57.6-78.5,102.9
	c-16.6,53.1,0.8,89.2,34.9,129.6c27.2,32.3,56,71.3,68,112.5c13.1,45.1-0.6,77.6-27.9,114.2c-29.3,39.1-54.9,70.8-36.5,121.4
	c20.2,55.4,81,116.5,56.5,178"/>
<path class="st1" d="M884,1071.1c-9-13.1-32.2-24.9-45.5-33.5c-29.4-19-42.7-40.5-44.3-75.9c-2.6-58.4,36.4-97.9,64-145.4
	c25.7-44.4,39.8-100.9,16.5-148.9c-24.9-51.2-65-100.9-68.8-159.5c-3.9-60.7,19-105.2,42.4-158.7c19.6-44.9,22-98.1,13.9-146.1
	c-4.1-24.5-20.3-65.4-8.7-90.2c7.6-16.4,10.2-6,10.9,5.8c2.7,43.2,13.9,79.5,28.8,120.3c23.9,64.9,12.1,119.8-22.8,178.3
	c-24.6,41.1-64.9,81.5-43.6,133.4C847,599.6,883.8,640.3,902,690c11.2,30.6,12.9,63.1,1.6,94.1c-11.3,31.1-36.7,55.4-51.4,84.8
	c-13.9,27.6-23.4,58.9-17.3,90.1c3.8,19.6,13.4,33.7,25.9,49.1c12.7,15.7,27.2,30,41.8,44.1c8.9,8.6,27.8,19.9,28,32.4"/>
<path class="st1" d="M354.5,1030.6c10.8-47.4-6.4-92-26.6-134.9c-29.9-63.4-71.6-136.1-69.5-208.1c1.3-44.7,27.2-82.5,45.1-121.9
	c9.1-20,17.2-41.7,18-63.9c0.8-25-14.3-55.1-5.5-79c14.2,18.3,20.9,44,25.2,66.2c5.2,27,6.1,54.9,2.6,82.3
	c-3.4,26.2-10.6,52.3-22.2,76c-11.5,23.6-28.7,44.8-34.2,71c-9,42.4,3.8,85.8,20.7,124.1c34.3,78,110.8,172.3,72,261.8"/>
<path class="st0" d="M931.9,1047c16,9.9,29.9-28.7,33.1-40.3c7.6-27.8,1.5-55.3-7-82c-22-68.8-79.8-122-62-199.8
	c7.1-30.9,26.3-48.4,40-75.9c12.5-25.1,15.3-53.9,13.9-81.7c-1.3-25.7,1.4-58.8,28.9-70.6c8.7-3.7,23.2-7.2,19.2,8.3
	c-1.5,5.6-14.8,10.4-18.3,16.9c-13.1,24.5-5.5,62.3,0.7,87.5c10.2,42,10.5,77.7-12.4,115.9c-19.9,33.2-37.5,65.4-36.1,105.7
	c3.3,93.3,154.1,209.1,68,295.9"/>
<path class="st0" d="M255.3,1077c34.1,6.6,65.7-68.9,68.6-100.6c4.1-45.4-2.4-92.3-27.2-128c-52.3-75.2-130.6-120.7-157.9-218.2
	c-24.4-87.1,15.7-157.9,19.3-243.3c1.9-43.9-6-72.4-26.9-107.8c-12.1-20.6-38-63.2-61.9-63.7c5.3,17.5,19.3,31.5,27.3,46.9
	c12,23.1,16,56.7,9.5,82.7c-10,39.7-40,68.8-53.7,106.7C36.9,494,30.8,539.4,33.9,585.6c10.3,149.8,183.2,161.3,187.8,312.4
	c1.1,37.4-15.6,67.3-23.9,102.4c-15.9,67.6,15,119,72.5,134.6"/>
<path class="st1" d="M254,1107.1c-53.9-41.5-19.3-112.9-12.8-165.1c6.6-53.4-10.9-103-45.9-142.8C152.8,751,96.8,716.2,56,665.7
	C16,616.3,1.8,544.6,27.4,485.6c0,0,0,0,0,0c5.5-12.7,11.2-26.2,19.2-37.5c17.7-24.9,15.5,0.8,11.9,17.9
	C34,585.1,110.8,700,186.9,784.2c35.2,39,89.3,70.5,110.3,120.4c10.9,26.1,10.9,54.9,9.4,82.9c-1.3,24.1-5.9,50-11.8,73.3
	c-5.6,21.8-16.2,40.3-26.9,59.9c-9.4,17.3-14.5,37-24.4,53.9"/>
</svg>
