<?xml version="1.0" encoding="utf-8"?>
<!-- Generator: Adobe Illustrator 20.0.0, SVG Export Plug-In . SVG Version: 6.00 Build 0)  -->
<svg version="1.1" id="Layer_1" xmlns="http://www.w3.org/2000/svg" xmlns:xlink="http://www.w3.org/1999/xlink" x="0px" y="0px"
	 viewBox="0 0 100.1 94.9" style="enable-background:new 0 0 100.1 94.9;" xml:space="preserve">
<style type="text/css">
	.st0{fill:#201732;}
</style>
<g>
	<path class="st0" d="M71.4,41.9c-9.6,0-17.9,5.9-21.4,14.3c-3.5-8.4-11.8-14.3-21.4-14.3H4.1v2.4c0,17.7,14.4,32.1,32.1,32.1h27.6
		C81.6,76.4,96,62,96,44.3v-2.4C96,41.9,71.4,41.9,71.4,41.9z M39.4,67.4h-8.5c-7.4,0-13.3-6-13.3-13.4v-3h11.2
		c5.9,0,10.6,4.8,10.6,10.6V67.4z M82.5,54.1c0,7.4-6,13.4-13.3,13.4h-8.5v-5.8c0-5.9,4.8-10.6,10.6-10.6h11.2
		C82.5,51.1,82.5,54.1,82.5,54.1z"/>
	<polygon class="st0" points="46.8,18.5 46.8,26 39.5,26 39.5,32.5 46.8,32.5 46.8,39.8 53.3,39.8 53.3,32.5 60.6,32.5 60.6,26 
		53.3,26 53.3,18.5 	"/>
</g>
</svg>
