<?xml version="1.0" encoding="utf-8"?>
<!-- Generator: Adobe Illustrator 20.0.0, SVG Export Plug-In . SVG Version: 6.00 Build 0)  -->
<svg version="1.1" id="Layer_1" xmlns="http://www.w3.org/2000/svg" xmlns:xlink="http://www.w3.org/1999/xlink" x="0px" y="0px"
	 viewBox="0 0 100.1 94.9" style="enable-background:new 0 0 100.1 94.9;" xml:space="preserve">
<style type="text/css">
	.st0{fill:#201732;}
</style>
<g>
	<g>
		<path class="st0" d="M37.1,26.2c-1.5-0.8-4-1.6-6.7-2.2c-0.3,1.2-0.4,2.5-0.4,3.8v13.6C30,51.6,38.5,60,48.8,60h2.6
			c2.4,0,4.7-0.5,6.9-1.3C55.1,45.1,50.3,33.1,37.1,26.2z"/>
		<g>
			<path class="st0" d="M51.3,9h-2.6c-7.2,0-13.4,4.1-16.5,10c4.3-1.6,8.9-3.3,11.7-3.9c2.5-0.6,11.2-2.3,16.8,2.5
				c3.1,2.7,4.3,6.2,3.2,9.1c-1,2.7-3.8,4.3-7.4,4.3c-1.6,0-4.2-0.4-7.2-1.1c7.5,7.5,11,17.1,13.2,26.3c4.5-3.4,7.5-8.8,7.5-14.9
				V27.8C70.1,17.5,61.6,9,51.3,9z"/>
			<path class="st0" d="M59.2,25c0.3-0.7-0.2-2.2-1.8-3.6c-3-2.6-8.3-2.5-12.2-1.5c-1.6,0.4-4.1,1.2-6.8,2.2
				c7.2,1.9,15.3,3.9,18.2,3.9C57.9,26,58.9,25.7,59.2,25z"/>
		</g>
	</g>
	<polygon class="st0" points="46.8,64.6 46.8,72.1 39.5,72.1 39.5,78.6 46.8,78.6 46.8,85.9 53.3,85.9 53.3,78.6 60.6,78.6 
		60.6,72.1 53.3,72.1 53.3,64.6 	"/>
</g>
</svg>
