<?xml version="1.0" encoding="utf-8"?>
<!-- Generator: Adobe Illustrator 20.0.0, SVG Export Plug-In . SVG Version: 6.00 Build 0)  -->
<svg version="1.1" id="Layer_1" xmlns="http://www.w3.org/2000/svg" xmlns:xlink="http://www.w3.org/1999/xlink" x="0px" y="0px"
	 viewBox="0 0 100.1 94.9" style="enable-background:new 0 0 100.1 94.9;" xml:space="preserve">
<style type="text/css">
	.st0{fill:#201732;}
</style>
<path class="st0" d="M-328.2,112.8v2.1c0,0-3-3.2-7.7-2.5c-4.7,0.6-8.1,5.1-8,9.2c0.2,5.7,6.7,10.2,12.1,8.2
	c0.5-0.2,3.6-1.5,3.6-2.2c0,0,0,2.5,0,2.5h3.9v-17.3H-328.2z M-337,126.1c-1.6-1-2.4-2.9-2.5-4.8c-0.1-2.8,1.8-5.6,4.8-5.5
	c2.4,0.2,4.9,1.9,5.3,4.3C-328.8,124.2-332.8,128.8-337,126.1z"/>
<polygon class="st0" points="-322.7,112.7 -318.6,112.7 -318.6,130.4 -322.6,130.4 "/>
<path class="st0" d="M-307.7,112.2c-0.2,0-0.5,0-0.7,0c-4.9,0.1-9.7,4.9-9,9.8c0.8,5.1,4.8,8.1,9.5,8c4.7-0.1,8.8-3.7,8.7-9.7
	C-299.3,116.1-303.6,112.5-307.7,112.2z M-310.2,126.2c-1.8-0.9-2.7-3.1-2.7-5c-0.1-2.5,1.6-5.1,4.2-5.3c0.1,0,0.3,0,0.5,0
	c3.3,0.1,4.3,2.9,4.2,5.7C-304.1,124.8-306.9,127.9-310.2,126.2z"/>
<path class="st0" d="M-297.7,112.7v25.2h3.9c0,0,0-10.4,0-10.4c0,0.7,3.1,2,3.6,2.2c5.4,2,11.9-2.4,12.1-8.2c0.1-4.2-3.3-8.6-8-9.2
	c-4.7-0.6-7.7,2.5-7.7,2.5v-2.1H-297.7z M-292.5,120c0.4-2.4,2.9-4.1,5.3-4.3c3-0.2,4.9,2.6,4.8,5.5c-0.1,1.9-0.9,3.7-2.5,4.8
	C-289.1,128.7-293.1,124.1-292.5,120z"/>
<g>
	<polygon class="st0" points="33.3,17.7 33.3,24.6 26.6,24.6 26.6,30.6 33.3,30.6 33.3,37.3 39.3,37.3 39.3,30.6 46,30.6 46,24.6 
		39.3,24.6 39.3,17.7 	"/>
	<g>
		<path class="st0" d="M25.4,40.9v3.1c0,0-4.4-4.6-11.2-3.7C7.4,41.3,2.5,47.7,2.7,53.8c0.3,8.3,9.7,14.8,17.5,11.8
			c0.7-0.3,5.2-2.2,5.2-3.2c0,0,0,3.7,0,3.7h5.7V40.9H25.4z M12.5,60.2c-2.3-1.5-3.5-4.2-3.6-6.9c-0.1-4.1,2.6-8.2,6.9-7.9
			c3.5,0.2,7.2,2.8,7.7,6.2C24.5,57.5,18.7,64.2,12.5,60.2z"/>
		<polygon class="st0" points="33.3,40.8 39.3,40.8 39.3,66.4 33.5,66.4 		"/>
		<path class="st0" d="M55.1,40.1c-0.4,0-0.7,0-1.1,0c-7.1,0.2-14.1,7.1-13,14.3c1.1,7.3,7,11.7,13.7,11.5
			c6.8-0.2,12.8-5.3,12.6-14.1C67.2,45.7,60.9,40.5,55.1,40.1z M51.4,60.4c-2.6-1.3-3.9-4.5-4-7.2c-0.1-3.6,2.3-7.5,6.2-7.7
			c0.2,0,0.4,0,0.7,0c4.7,0.2,6.2,4.2,6.1,8.3C60.3,58.3,56.2,62.8,51.4,60.4z"/>
		<path class="st0" d="M69.6,40.8v36.5h5.7c0,0,0-15,0-15c0,1.1,4.5,3,5.2,3.2c7.8,2.9,17.3-3.5,17.5-11.8c0.2-6-4.8-12.5-11.5-13.4
			c-6.8-0.9-11.2,3.7-11.2,3.7v-3.1H69.6z M77.1,51.4c0.5-3.4,4.2-6,7.7-6.2c4.4-0.3,7,3.8,6.9,7.9c-0.1,2.7-1.3,5.4-3.6,6.9
			C82,64,76.2,57.3,77.1,51.4z"/>
	</g>
</g>
</svg>
