<?xml version="1.0" encoding="utf-8"?>
<!-- Generator: Adobe Illustrator 20.0.0, SVG Export Plug-In . SVG Version: 6.00 Build 0)  -->
<svg version="1.1" id="Layer_1" xmlns="http://www.w3.org/2000/svg" xmlns:xlink="http://www.w3.org/1999/xlink" x="0px" y="0px"
	 viewBox="0 0 100.1 94.9" style="enable-background:new 0 0 100.1 94.9;" xml:space="preserve">
<style type="text/css">
	.st0{fill:#201732;}
</style>
<g>
	<polygon class="st0" points="76.7,7.2 76.7,14.7 69.3,14.7 69.3,21.2 76.7,21.2 76.7,28.5 83.2,28.5 83.2,21.2 90.4,21.2 
		90.4,14.7 83.2,14.7 83.2,7.2 	"/>
	<path class="st0" d="M44.2,18.7c-19.1,0-34.5,15.4-34.5,34.5c0,19.1,15.4,34.5,34.5,34.5s34.5-15.4,34.5-34.5
		C78.7,34.1,63.2,18.7,44.2,18.7z M47,72.2c-12,0-21.8-9.8-21.8-21.8S35,28.6,47,28.6s21.8,9.8,21.8,21.8S59,72.2,47,72.2z"/>
</g>
</svg>
